<svg id="f624206b-e9cb-4f72-83b6-6009e173d412" data-name="Layer 1" xmlns="http://www.w3.org/2000/svg" width="1080" height="1080" viewBox="0 0 1080 1080">
  <g>
    <path d="M623.7,406.9c-8.2-2.8-10.7-6.6-9.6-14.3a25.4,25.4,0,0,0,0-3.9c-.6-44-30.1-75.5-74-79-23.3-1.9-33.2-12.7-33.3-36.2-.1-21,.5-42.1-.8-63.1-2.2-37.1-35.3-68.3-72.6-69.6a77.5,77.5,0,0,0-80.2,75.9c-.3,20.5.1,41-.1,61.6-.2,15-9.5,27-23.3,30.3-3.7.9-7.7.8-11.6,1.2-29.7,2.9-51.7,17.3-65,44.2-6.6,13.4-8.4,27.8-7.5,42.5.3,5.2-1.3,7.7-6.5,9.3a66.6,66.6,0,0,0-17.3,8.6c-23.8,16.7-31.9,40.5-29.5,68.6s17.2,48.7,43.4,59.3c8.2,3.3,10,6.8,10,14.9q-.5,153.9-.2,307.9c0,24.6,7.7,45.9,28.4,60,9.5,6.5,21.4,9.5,32.3,14.1H552.7l5.2-1.4c15.7-3.2,29-10.7,39.5-23,12.6-14.5,16.8-31.7,16.8-50.5q-.2-155.1-.1-310.2c0-4.4-.5-8,5.6-10.1,29.8-10.3,45.8-31.9,48.1-63.3C670.4,446.5,653,416.9,623.7,406.9ZM326.6,355.6a71.2,71.2,0,0,0,13.8-2.4c37.1-10.6,58.5-38.6,58.9-77.2.2-20.3-.2-40.6.4-60.8.5-15,12.1-26.4,26.6-27.9,18.9-2,34,11.3,34.3,30.6s0,38.5.1,57.7c.1,45.1,31.2,77.8,76.1,80.2,19.2,1,31,13.2,31.4,32.5.1,4.1,0,8.2,0,12.9H293C287.3,373.7,299.4,357.5,326.6,355.6ZM567.8,873.4c-1.4,10.7-9.7,18.2-20.4,19.4a35.5,35.5,0,0,1-4.6.3c-75.2,0-150.3.1-225.4-.2-5.8-.1-13-1.9-17-5.7s-8.1-11.5-8.1-17.4c-.5-106-.4-212.1-.4-318.1,0-1,.3-2,.5-3.6H567.8v37.6l-8.9.4c-18.2.1-36.4-.2-54.6.5-11,.4-19.4,9.5-20.3,20.1s5.8,21.7,17.1,24.5a42.2,42.2,0,0,0,10.1.8c18.6.1,37.3,0,56.5,0v61c-2.7.2-5.5.5-8.2.5-16.6,0-33.3-.2-49.9,0s-25.7,9.4-25.7,23.2,10.2,22.8,25.8,22.9c19.2.1,38.4,0,58,0v69H524.9c-5.7,0-11.4-.2-17.2,0-14.4.7-24,10.2-23.8,23.5s10.1,22.6,24.6,22.7c16.9.2,33.8.1,50.6.1h8.8C567.9,861.6,568.5,867.6,567.8,873.4Zm28.6-372q-60.1.2-120.2,0H266.5c-20.5,0-29.6-9.4-28.6-29.7.8-15.1,10.2-23.8,26-23.8H596.1c16.9.1,25.6,9,25.7,26.3S613.6,501.4,596.4,501.4Z" style="fill: #fff"/>
    <path d="M758,401h0a29,29,0,0,1-29-29V170a29,29,0,0,1,29-29h0a29,29,0,0,1,29,29V372A29,29,0,0,1,758,401Z" style="fill: #fff"/>
    <path d="M628,271h0a29,29,0,0,1,29-29H859a29,29,0,0,1,29,29h0a29,29,0,0,1-29,29H657A29,29,0,0,1,628,271Z" style="fill: #fff"/>
  </g>
</svg>
