<svg id="ab019783-27eb-42d7-bc63-8a4a3408b607" data-name="Layer 1" xmlns="http://www.w3.org/2000/svg" xmlns:xlink="http://www.w3.org/1999/xlink" width="1876.3" height="1080" viewBox="0 0 1876.3 1080">
  <circle cx="1336.3" cy="540" r="540" style="fill: #ef4136"/>
  <g>
    <path d="M350.3,985.2c-10.9-4.6-22.8-7.6-32.3-14.1-20.7-14.1-28.5-35.4-28.4-60q0-154.1.2-307.9c0-8.1-1.9-11.5-10-14.8-26.2-10.7-41-30.8-43.5-59.4s5.8-51.9,29.6-68.6a61.9,61.9,0,0,1,17.3-8.5c5.2-1.7,6.8-4.2,6.5-9.4-.9-14.7.9-29.1,7.5-42.5,13.3-26.9,35.3-41.3,65-44.2,3.9-.4,7.8-.3,11.6-1.2,13.8-3.3,23.1-15.3,23.2-30.3.2-20.6-.2-41.1.2-61.6a77.5,77.5,0,0,1,80.2-75.9c37.2,1.3,70.3,32.5,72.6,69.6,1.3,21,.6,42.1.8,63.2.1,23.4,10,34.2,33.3,36.1,43.9,3.5,73.4,35,74,79a25.4,25.4,0,0,1,0,3.9c-1.1,7.7,1.3,11.5,9.5,14.3,29.4,10,46.8,39.7,44.2,73.8-2.3,31.4-18.3,53-48.2,63.3-6,2.1-5.5,5.7-5.5,10.1q0,155.1.1,310.2c0,18.9-4.2,36-16.8,50.5a68.7,68.7,0,0,1-39.6,23l-5.1,1.4ZM336.4,594.1c-.2,1.6-.5,2.6-.5,3.6,0,106-.1,212.1.4,318.1,0,6,3.7,13.3,8.1,17.4s11.2,5.7,17,5.7c75.1.3,150.2.2,225.3.2a37.1,37.1,0,0,0,4.7-.3c10.7-1.2,19-8.7,20.4-19.4.7-5.8.1-11.8.1-18.5h-8.8c-16.9,0-33.8.1-50.7-.1-14.4-.1-24.3-9.5-24.5-22.7s9.3-22.8,23.8-23.5c5.7-.2,11.5,0,17.2,0h42.8v-69c-19.6,0-38.8.1-58,0-15.6-.1-25.8-9.1-25.8-22.9s9.9-23,25.7-23.1,33.2-.1,49.9-.1c2.7,0,5.4-.3,8.2-.5V678c-19.2,0-37.9.1-56.6,0a41.8,41.8,0,0,1-10-.8c-11.3-2.8-18.1-12.8-17.1-24.5s9.2-19.7,20.3-20.1c18.2-.7,36.4-.4,54.6-.5l8.8-.4V594.1ZM612.2,447.3c0-4.8.1-8.9,0-13-.4-19.3-12.2-31.5-31.4-32.5-44.9-2.4-76-35.1-76.1-80.2-.1-19.2.2-38.5-.1-57.7s-15.5-32.6-34.4-30.6c-14.4,1.5-26,12.9-26.5,27.9-.7,20.3-.2,40.5-.4,60.8-.4,38.6-21.8,66.7-58.9,77.2a72.5,72.5,0,0,1-13.8,2.4c-27.2,1.9-39.3,18.1-33.6,45.7ZM473.5,547.4c55.6,0,111.2.1,166.8,0,17.2,0,25.6-9.2,25.5-27.2s-8.9-26.2-25.7-26.3H307.9c-15.9,0-25.3,8.8-26,23.8-1,20.3,8,29.7,28.6,29.7C364.8,547.5,419.1,547.4,473.5,547.4Z" transform="translate(796.3)" style="fill: #fff"/>
    <path d="M336.4,594.1H611.7v37.6l-8.8.4c-18.2.1-36.4-.2-54.6.5-11.1.4-19.4,9.5-20.3,20.1s5.8,21.7,17.1,24.5a41.8,41.8,0,0,0,10,.8c18.7.1,37.4,0,56.6,0v61c-2.8.2-5.5.5-8.2.5-16.7,0-33.3-.1-49.9.1s-25.8,9.3-25.7,23.1,10.2,22.8,25.8,22.9c19.2.1,38.4,0,58,0v69H568.9c-5.7,0-11.5-.2-17.2,0-14.5.7-24,10.2-23.8,23.5s10.1,22.6,24.5,22.7c16.9.2,33.8.1,50.7.1h8.8c0,6.7.6,12.7-.1,18.5-1.4,10.7-9.7,18.2-20.4,19.4a37.1,37.1,0,0,1-4.7.3c-75.1,0-150.2.1-225.3-.2-5.8,0-13.1-1.9-17-5.7s-8.1-11.4-8.1-17.4c-.5-106-.4-212.1-.4-318.1C335.9,596.7,336.2,595.7,336.4,594.1Z" transform="translate(796.3)" style="fill: #ef4136"/>
    <path d="M612.2,447.3H337c-5.7-27.6,6.4-43.8,33.6-45.7a72.5,72.5,0,0,0,13.8-2.4c37.1-10.5,58.5-38.6,58.9-77.2.2-20.3-.3-40.5.4-60.8.5-15,12.1-26.4,26.5-27.9,18.9-2,34,11.3,34.4,30.6s0,38.5.1,57.7c.1,45.1,31.2,77.8,76.1,80.2,19.2,1,31,13.2,31.4,32.5C612.3,438.4,612.2,442.5,612.2,447.3Z" transform="translate(796.3)" style="fill: #ef4136"/>
    <path d="M473.5,547.4c-54.4,0-108.7.1-163,0-20.6,0-29.6-9.4-28.6-29.7.7-15,10.1-23.8,26-23.8H640.1c16.8.1,25.5,9,25.7,26.3s-8.3,27.2-25.5,27.2C584.7,547.5,529.1,547.4,473.5,547.4Z" transform="translate(796.3)" style="fill: #ef4136"/>
  </g>
  <image width="512" height="512" transform="translate(0 4.3) scale(0.94)" xlink:href="C:%5CUsers%5C62821%5CDownloads%5Cbook.png"/>
  <rect x="1569.3" y="187" width="58" height="260" rx="29" style="fill: #fff"/>
  <rect x="773" y="187" width="58" height="260" rx="29" transform="translate(1915.3 -485) rotate(90)" style="fill: #fff"/>
</svg>
