<svg id="b66223f9-4fb7-4ff8-b798-b94dcd87a551" data-name="Layer 1" xmlns="http://www.w3.org/2000/svg" width="1080" height="1080" viewBox="0 0 1080 1080">
  <g>
    <circle cx="540" cy="540" r="540" style="fill: #ef4136"/>
    <g>
      <path d="M386.7,357.5c21.6-39.1,67.1-74.6,115.8-73.7,22.3.3,61.3,8.5,86.8,28.9,4.9,4,16.2,13.6,33.7,18.4a84.8,84.8,0,0,0,30.1,2.5c15.4-1.3,30.9-.3,46.3-.2,45.4,0,49.9,3,54.9,49.5,1.7,15.4,9.9,12.2,18.6,12.2,28.8.1,57.6.4,86.4-.1,12.8-.2,26.6.4,34.8,9.4,45.2,49.3,100.2,93.3,96,170.9-1.6,28.7-.2,57.5-.3,86.3s-14,43-41.6,42c-16.4-.7-22.1,6.1-28.5,20.1-12.5,27.3-36,41.9-66.5,41.8s-54.7-13.6-63.8-40.4-33.9-28.7-48-25.7c-39.2,8.3-77.8,2.2-116.5,4.3-12.7.6-19.7,2.8-25,16.1-11.7,29.3-35.2,45.4-67,45.6s-55.3-15.6-67.7-44.6c-5.3-12.3-10.6-16.7-24.2-17.2-34.2-1.3-44.3-13.1-44.5-48.2-.3-42.2-1-84.4.2-126.5.3-9.5-2.9-26.2-8.7-47.5-8.1-29.4-15-36-17.9-53C364.8,397.1,379.8,370,386.7,357.5Z" style="fill: #fff"/>
      <path d="M422.5,527.1c57.9,37.1,113.9,40.9,166.4.7,56.8-43.6,67.2-102.2,41.4-169.7,28,0,53.7.6,79.3-.3,16.8-.6,20.9,7.2,20.8,22.4q-.6,138.8,0,277.4c.1,15.5-4.5,22.9-21.1,21.9s-32.8-.4-49.3-.1c-28.9.5-52.4,2.8-71.9-32.3C561.3,599,490,609.5,465.9,661.3c-7.2,15.5-14.8,20.2-29.6,17.8-17.7-2.8-15.1-16.6-15.1-28.6q-.1-55.5,0-111C421.2,536.5,421.8,533.5,422.5,527.1Z" style="fill: #ef4136"/>
      <path d="M396.4,418.6c.6-61.6,51.5-110.9,113.2-109.9S620.3,361,618.9,422.6,567.5,531.3,507.2,531,395.8,480.2,396.4,418.6Z" style="fill: #ef4136"/>
      <path d="M899.7,444.6c-21.9,0-39-.6-56.1.1-24.4,1-37.9,14.1-39.1,38.6-.6,12.3-.3,24.7-.1,37,.6,34.5,13.7,47.5,49.1,47.8,30.9.2,61.8.7,92.6-.3,14.2-.4,20.2,2.9,19.3,18.5-1.3,23.6-.5,47.3-.2,70.9.1,11.5-2.6,20.9-15.8,21.9-11,.8-21.6,2.7-27-12.7-11-31.3-35.1-48-68-48.4s-56.4,16.7-69.1,47.3c-3.3,7.9-5.6,15.8-16.7,13.8s-13.7-10.3-13.7-20.4q.1-109.7,0-219.1c0-10.4,3.5-19.1,15.1-19.3,32.9-.4,65.9-.7,98.8.6C880.2,421.3,888.7,430.2,899.7,444.6Z" style="fill: #ef4136"/>
      <path d="M960.6,543.4c-36.3,0-72.2-.5-108.2.2-17.3.4-23-6.8-23.7-23.8-2-50.6-2.6-50.5,49.2-50.5C926.5,469.3,950.6,490.6,960.6,543.4Z" style="fill: #ef4136"/>
      <path d="M581.7,693c-.7,26.6-23.3,48.4-49.9,48s-50.4-24.5-48.7-52.2,24.8-47.7,51.4-46.5S582.5,666.4,581.7,693Z" style="fill: #ef4136"/>
      <path d="M903.2,691.3c.1,26.7-21.7,49.1-48.3,49.7s-51.1-22.7-50.4-50.6a49.7,49.7,0,0,1,49.8-48.1C880.9,642.6,903,664.7,903.2,691.3Z" style="fill: #ef4136"/>
      <path d="M526.2,417.7c.5,7.3-.8,14.6-7,16.6-16.7,5.2-26.4,18.8-38.4,29.6-6.1,5.4-12.4,7.6-18.8.6s-4.7-12.4.7-16.3c38-27.1,33.4-67,32.6-105.8-.1-9.4-.4-20.6,12.5-20.4s11.8,11.4,12.3,20.7C521.7,368,515.1,394,526.2,417.7Z" style="fill: #fff"/>
      <path d="M315.7,518.4H45a11.9,11.9,0,0,1-11.9-11.9h0A11.9,11.9,0,0,1,45,494.6H315.7a11.9,11.9,0,0,1,11.9,11.9h0A11.9,11.9,0,0,1,315.7,518.4Z" style="fill: #fff"/>
      <path d="M315.7,619.1H85.8a11.9,11.9,0,0,1-11.9-11.9h0a11.9,11.9,0,0,1,11.9-11.8H315.7a11.8,11.8,0,0,1,11.9,11.8h0A11.9,11.9,0,0,1,315.7,619.1Z" style="fill: #fff"/>
      <path d="M315.7,407.2H121.9A11.9,11.9,0,0,1,110,395.4h0a11.9,11.9,0,0,1,11.9-11.9H315.7a11.9,11.9,0,0,1,11.9,11.9h0A11.8,11.8,0,0,1,315.7,407.2Z" style="fill: #fff"/>
    </g>
  </g>
</svg>
