<svg id="Layer_1" data-name="Layer 1" xmlns="http://www.w3.org/2000/svg" viewBox="0 0 761.65 688.45">
    <defs>
        <style>.cls-1 {
            fill: #fbb040;
            }

            .cls-2 {
            fill: #ef4136;
            }</style>
    </defs>
    <path class="cls-1"
          d="M939.17,420.36,876.35,311.55H509.22c-33.84,0-68,17.72-68,57.32a68.07,68.07,0,0,0,68,68H626a142.49,142.49,0,0,1,72.41,19.73h0a143.34,143.34,0,0,1,70.2,122.9c0,76.48-60,132-142.64,132H449.15c22.31,7,37.81,28.25,38.31,53.25a54.79,54.79,0,0,0,54.78,53.68H707a111.68,111.68,0,0,0,96.73-55.85L939.17,528A107.65,107.65,0,0,0,939.17,420.36Z"
          transform="translate(-191.95 -129.96)"/>
    <path class="cls-2"
          d="M694,579.5a68.34,68.34,0,0,0-33.5-58.6h0A67.71,67.71,0,0,0,626,511.52H509.22c-78.66,0-142.65-64-142.65-142.65,0-76.47,60-132,142.65-132h206.7a57.22,57.22,0,0,1-28.69-49.47A57.46,57.46,0,0,0,629.78,130H438.52a111.7,111.7,0,0,0-96.73,55.85L206.37,420.36a107.65,107.65,0,0,0,0,107.65l62.82,108.81H626C659.86,636.82,694,619.1,694,579.5Z"
          transform="translate(-191.95 -129.96)"/>
</svg>
