<svg id="Layer_1" data-name="Layer 1" xmlns="http://www.w3.org/2000/svg" xmlns:xlink="http://www.w3.org/1999/xlink" viewBox="0 0 5846.26 5725.55"><defs><style>.cls-1{fill:none;}.cls-2{fill:#f4f7fa;}.cls-3{clip-path:url(#clip-path);}.cls-4{fill:#ebeff2;}</style><clipPath id="clip-path" transform="translate(1269.45)"><rect class="cls-1" width="3839" height="5725.55"/></clipPath></defs><rect class="cls-2" x="1269.45" width="3839" height="5725.55"/><g class="cls-3"><path class="cls-4" d="M3164.51,2319.43c-156.25-156.25-242.3-364-242.3-585s86.05-428.72,242.3-585,364-242.3,585-242.3,428.72,86,585,242.3,242.3,364,242.3,585-86.05,428.71-242.3,585-364,242.3-585,242.3S3320.76,2475.68,3164.51,2319.43Zm43-585c0,298.86,243.14,542,542,542s542-243.14,542-542-243.14-542-542-542-542,243.18-542,542Z" transform="translate(1269.45)"/><path class="cls-4" d="M1426.82,227.07c0-125,101.7-226.71,226.71-226.71s226.71,101.71,226.71,226.71-101.7,226.71-226.71,226.71S1426.82,352.08,1426.82,227.07Zm135.13,0a91.59,91.59,0,1,0,91.6-91.58h0A91.7,91.7,0,0,0,1562,227.07Z" transform="translate(1269.45)"/><circle class="cls-4" cx="3343.38" cy="605.33" r="33.03"/><circle class="cls-4" cx="5098.5" cy="540.86" r="76.57"/><circle class="cls-4" cx="2808.1" cy="501.83" r="22.52" transform="translate(1737.08 2132.61) rotate(-45)"/><path class="cls-4" d="M2419.24,489.82a43.54,43.54,0,1,1,43.54,43.54A43.54,43.54,0,0,1,2419.24,489.82Zm6,0a37.54,37.54,0,1,0,37.54-37.54h0a37.57,37.57,0,0,0-37.52,37.54Z" transform="translate(1269.45)"/><path class="cls-4" d="M3720.94,1597.84a102.1,102.1,0,1,1,102.1,102.1A102.1,102.1,0,0,1,3720.94,1597.84Zm6,0a96.09,96.09,0,1,0,96.09-96.09h0a96.2,96.2,0,0,0-96,96.09Z" transform="translate(1269.45)"/><path class="cls-4" d="M1038,615.93a25.53,25.53,0,1,1,25.53,25.53h0A25.55,25.55,0,0,1,1038,615.93Zm6,0a19.52,19.52,0,1,0,19.53-19.51h0A19.53,19.53,0,0,0,1044,615.93Z" transform="translate(1269.45)"/><rect class="cls-4" x="2271.43" y="1037.13" width="112.99" height="51.92" transform="translate(1053.24 1340.16) rotate(-30.76)"/><rect class="cls-4" x="2301.96" y="1006.58" width="51.92" height="112.99" transform="translate(1053.24 1340.15) rotate(-30.76)"/><circle class="cls-4" cx="2037.6" cy="310" r="9.44"/><circle class="cls-4" cx="1788.36" cy="400.12" r="12.44"/><path class="cls-4" d="M225.71,342.71a27.78,27.78,0,1,1,27.78,27.78h0A27.81,27.81,0,0,1,225.71,342.71Zm6,0a21.77,21.77,0,1,0,21.77-21.77h0a21.8,21.8,0,0,0-21.76,21.77Z" transform="translate(1269.45)"/><rect class="cls-4" x="-38.63" y="555.85" width="78.51" height="36.07" transform="translate(976.03 81.06) rotate(-30.76)"/><rect class="cls-4" x="-17.41" y="534.62" width="36.07" height="78.51" transform="translate(976.03 81.06) rotate(-30.76)"/><rect class="cls-4" x="2844.96" y="181.87" width="112.99" height="51.92" transform="translate(1571.34 1513.17) rotate(-30.76)"/><rect class="cls-4" x="2875.49" y="151.33" width="51.92" height="112.99" transform="translate(1571.34 1513.16) rotate(-30.76)"/><path class="cls-4" d="M236.21,1260.9C274.91,1142,403.1,1076.82,522,1115.55s184.08,166.9,145.38,285.76-166.9,184.08-285.77,145.38S197.5,1379.77,236.21,1260.9Zm128.48,41.84A91.58,91.58,0,1,0,480.13,1244,91.58,91.58,0,0,0,364.69,1302.74Z" transform="translate(1269.45)"/><circle class="cls-4" cx="2003.83" cy="1821.07" r="33.03"/><circle class="cls-4" cx="3692.68" cy="2303.05" r="76.57"/><circle class="cls-4" cx="2734.14" cy="1949.69" r="22.52"/><path class="cls-4" d="M1098.51,1818a43.54,43.54,0,1,1,27.92,54.88h0A43.6,43.6,0,0,1,1098.51,1818Zm5.71,1.86a37.53,37.53,0,1,0,47.31-24.07A37.53,37.53,0,0,0,1104.22,1819.87Z" transform="translate(1269.45)"/><path class="cls-4" d="M1993.18,3274.62a102.1,102.1,0,1,1,65.48,128.69h0A102.21,102.21,0,0,1,1993.18,3274.62Zm5.71,1.86A96.09,96.09,0,1,0,2120,3214.86h0a96.21,96.21,0,0,0-121.11,61.62Z" transform="translate(1269.45)"/><path class="cls-4" d="M-253.94,1510.26a25.55,25.55,0,0,1,32.17-16.37,25.56,25.56,0,0,1,16.37,32.17,25.55,25.55,0,0,1-32.18,16.37A25.55,25.55,0,0,1-253.94,1510.26Zm5.71,1.86a19.54,19.54,0,0,0,12.51,24.6,19.56,19.56,0,0,0,24.61-12.52,19.55,19.55,0,0,0-12.52-24.6A19.55,19.55,0,0,0-248.23,1512.12Z" transform="translate(1269.45)"/><rect class="cls-4" x="777.83" y="2308.79" width="112.99" height="51.92" transform="translate(775.85 241.01) rotate(-12.72)"/><rect class="cls-4" x="808.31" y="2278.46" width="51.92" height="112.99" transform="translate(775.8 241) rotate(-12.72)"/><path class="cls-4" d="M-424.77,1132.93a9.46,9.46,0,0,0,6,11.9,9.46,9.46,0,0,0,11.9-6,9.45,9.45,0,0,0-6.05-11.9A9.45,9.45,0,0,0-424.77,1132.93Z" transform="translate(1269.45)"/><path class="cls-4" d="M-692.5,1140.49a12.45,12.45,0,0,0,8,15.68h0a12.45,12.45,0,0,0,15.68-8h0a12.45,12.45,0,0,0-8-15.68h0a12.45,12.45,0,0,0-15.68,8Z" transform="translate(1269.45)"/><path class="cls-4" d="M-941.69,999a27.81,27.81,0,0,1,35-17.81,27.81,27.81,0,0,1,17.82,35,27.82,27.82,0,0,1-35,17.81A27.81,27.81,0,0,1-941.69,999Zm5.71,1.86a21.82,21.82,0,0,0,14,27.44,21.8,21.8,0,0,0,27.45-14,21.81,21.81,0,0,0-14-27.44,21.8,21.8,0,0,0-27.47,14h0Z" transform="translate(1269.45)"/><rect class="cls-4" x="-1266.44" y="1131.11" width="78.51" height="36.07" transform="translate(986.31 -242.01) rotate(-12.72)"/><rect class="cls-4" x="-1245.37" y="1109.93" width="36.07" height="78.51" transform="translate(986.29 -242.04) rotate(-12.72)"/><rect class="cls-4" x="1587.93" y="1673.09" width="112.99" height="51.92" transform="translate(935.7 403.78) rotate(-12.72)"/><rect class="cls-4" x="1618.51" y="1642.76" width="51.92" height="112.99" transform="translate(935.66 403.79) rotate(-12.72)"/><path class="cls-4" d="M1157.23,3030.64c-48.92-115,4.87-248.43,119.9-297.36s248.43,4.86,297.36,119.9-4.87,248.43-119.9,297.35S1206.16,3145.67,1157.23,3030.64Zm124.35-52.89A91.58,91.58,0,1,0,1330,2857.63h0a91.7,91.7,0,0,0-48.42,120.12Z" transform="translate(1269.45)"/><circle class="cls-4" cx="3664.62" cy="3125.53" r="33.03"/><path class="cls-4" d="M1446,3540.67a25.53,25.53,0,1,1,33.49,13.48h0A25.56,25.56,0,0,1,1446,3540.67Zm5.53-2.35a19.52,19.52,0,1,0,10.32-25.6h0a19.54,19.54,0,0,0-10.36,25.6Z" transform="translate(1269.45)"/><rect class="cls-4" x="2751.54" y="3421.37" width="112.99" height="51.92" transform="translate(-362.82 3677.29) rotate(-53.8)"/><rect class="cls-4" x="2782.04" y="3390.8" width="51.92" height="112.99" transform="translate(-362.8 3677.25) rotate(-53.8)"/><circle class="cls-4" cx="3380.74" cy="4551.34" r="76.57" transform="translate(719.25 465.78) rotate(-7.29)"/><circle class="cls-4" cx="3630.28" cy="4601.04" r="22.52"/><path class="cls-4" d="M1972.14,4623.16a43.54,43.54,0,1,1,47.17,39.58A43.54,43.54,0,0,1,1972.14,4623.16Zm6-.52a37.53,37.53,0,1,0,34.12-40.67,37.52,37.52,0,0,0-34.12,40.67Z" transform="translate(1269.45)"/><path class="cls-4" d="M3365.52,5613.43a102.09,102.09,0,1,1,110.61,92.81A102.08,102.08,0,0,1,3365.52,5613.43Zm6-.52a96.09,96.09,0,1,0,87.35-104.1h0a96.2,96.2,0,0,0-87.36,104.1Z" transform="translate(1269.45)"/><rect class="cls-4" x="1874.85" y="5175.99" width="112.99" height="51.92" transform="translate(-1406.41 2109.37) rotate(-35.76)"/><rect class="cls-4" x="1905.46" y="5145.87" width="51.92" height="112.99" transform="translate(-1406.64 2109.5) rotate(-35.76)"/><rect class="cls-4" x="1822.56" y="4152" width="112.99" height="51.92" transform="translate(-817.86 1885.76) rotate(-35.76)"/><rect class="cls-4" x="1853.19" y="4121.82" width="51.92" height="112.99" transform="translate(-818.05 1885.89) rotate(-35.76)"/><path class="cls-4" d="M1216,4987.27c-156.25-156.25-242.3-364-242.3-585s86-428.71,242.3-585S1580,3575,1801,3575s428.71,86.05,585,242.3,242.3,364,242.3,585-86.05,428.72-242.3,585-364,242.3-585,242.3S1372.21,5143.55,1216,4987.27Zm-195.79-584.84c0,430.57,350.3,780.88,780.88,780.88S2582,4833,2582,4402.43s-350.34-780.88-780.92-780.88-780.88,350.3-780.88,780.88Z" transform="translate(1269.45)"/><path class="cls-4" d="M247.75,4684.47a102.1,102.1,0,1,1,102.12,102.08h0A102.2,102.2,0,0,1,247.75,4684.47Zm6,0a96.09,96.09,0,1,0,96.09-96.09h0a96.2,96.2,0,0,0-96.08,96.09Z" transform="translate(1269.45)"/><circle class="cls-4" cx="2096.35" cy="3390.92" r="12.44"/><path class="cls-4" d="M533.7,3333.55a27.78,27.78,0,1,1,27.79,27.77h0A27.8,27.8,0,0,1,533.7,3333.55Zm6,0a21.77,21.77,0,1,0,21.77-21.77A21.77,21.77,0,0,0,539.7,3333.55Z" transform="translate(1269.45)"/><rect class="cls-4" x="269.35" y="3546.65" width="78.51" height="36.07" transform="translate(-510.27 659.32) rotate(-30.76)"/><rect class="cls-4" x="293.45" y="3530.35" width="36.06" height="78.5" transform="matrix(0.86, -0.51, 0.51, 0.86, -507.75, 658.16)"/><path class="cls-4" d="M54,4501.06a25.52,25.52,0,1,1,16.37,32.17A25.52,25.52,0,0,1,54,4501.06Zm5.72,1.86a19.51,19.51,0,1,0,24.6-12.52,19.5,19.5,0,0,0-24.6,12.52Z" transform="translate(1269.45)"/><path class="cls-4" d="M-116.78,4123.73a9.44,9.44,0,0,0,6,11.9,9.45,9.45,0,0,0,11.9-6.06,9.43,9.43,0,0,0-6.06-11.89A9.43,9.43,0,0,0-116.78,4123.73Z" transform="translate(1269.45)"/><circle class="cls-4" cx="-388.59" cy="4113.43" r="12.37" transform="translate(-2987.94 2663.03) rotate(-74.85)"/><path class="cls-4" d="M-633.7,3989.77a27.81,27.81,0,0,1,35-17.81,27.8,27.8,0,0,1,17.81,35,27.81,27.81,0,0,1-35,17.81A27.81,27.81,0,0,1-633.7,3989.77Zm5.71,1.86a21.82,21.82,0,0,0,14,27.44,21.79,21.79,0,0,0,27.44-14,21.79,21.79,0,0,0-14-27.44,21.8,21.8,0,0,0-27.45,14Z" transform="translate(1269.45)"/><rect class="cls-4" x="-958.29" y="4121.86" width="78.51" height="36.07" transform="translate(335.35 -100.76) rotate(-12.72)"/><rect class="cls-4" x="-937.33" y="4100.89" width="36.07" height="78.51" transform="translate(335.28 -100.81) rotate(-12.72)"/><circle class="cls-4" cx="-503.6" cy="5234.7" r="12.44" transform="translate(-1891.74 696.76) rotate(-35.85)"/><path class="cls-4" d="M-283.42,5436.55a27.82,27.82,0,0,1-38.18,9.26,27.79,27.79,0,0,1-9.25-38.18,27.78,27.78,0,0,1,38.17-9.25A27.8,27.8,0,0,1-283.42,5436.55Zm-5.13-3.12a21.81,21.81,0,0,0-7.26-29.93,21.78,21.78,0,0,0-29.92,7.26,21.78,21.78,0,0,0,7.26,29.92,21.81,21.81,0,0,0,29.92-7.29Z" transform="translate(1269.45)"/><rect class="cls-4" x="11.4" y="5317.08" width="36.07" height="78.51" transform="matrix(0.01, -1, 1, 0.01, -4057.46, 5328.74)"/><rect class="cls-4" x="-10.16" y="5338.63" width="78.51" height="36.07" transform="matrix(0.01, -1, 1, 0.01, -4058.12, 5328.73)"/><path class="cls-4" d="M733.94,4689.38a25.52,25.52,0,1,1,2.77-36A25.52,25.52,0,0,1,733.94,4689.38Zm-3.91-4.56a19.52,19.52,0,1,0-27.52-2.12h0a19.53,19.53,0,0,0,27.49,2.12Z" transform="translate(1269.45)"/><path class="cls-4" d="M683.35,5100.47a9.44,9.44,0,1,0-13.31-1h0a9.41,9.41,0,0,0,13.28,1Z" transform="translate(1269.45)"/><path class="cls-4" d="M915.87,5233.4a12.44,12.44,0,1,0-17.54-1.35h0A12.44,12.44,0,0,0,915.87,5233.4Z" transform="translate(1269.45)"/><path class="cls-4" d="M1055,5484a27.78,27.78,0,1,1,3-39.17h0A27.81,27.81,0,0,1,1055,5484Zm-3.91-4.56a199.44,199.44,0,1,0-.09,0Z" transform="translate(1269.45)"/><rect class="cls-4" x="1358.9" y="5465.22" width="36.07" height="78.51" transform="translate(-3009.37 5048.85) rotate(-71.35)"/><rect class="cls-4" x="1337.69" y="5486.44" width="78.51" height="36.07" transform="translate(-3009.36 5048.86) rotate(-71.35)"/><path class="cls-4" d="M1104.71,4397.4a102.1,102.1,0,1,1,102.1,102.1A102.1,102.1,0,0,1,1104.71,4397.4Zm6,0a96.09,96.09,0,1,0,96.09-96.09h0a96.2,96.2,0,0,0-96.08,96.09Z" transform="translate(1269.45)"/><path class="cls-4" d="M1651.71,4887.4a102.1,102.1,0,1,1,102.1,102.1A102.1,102.1,0,0,1,1651.71,4887.4Zm6,0a96.09,96.09,0,1,0,96.09-96.09h0a96.2,96.2,0,0,0-96.08,96.09Z" transform="translate(1269.45)"/></g></svg>