<svg id="fc28e05e-1aea-4b1f-a5bf-bb084a9869b7" data-name="Layer 1" xmlns="http://www.w3.org/2000/svg" width="1080" height="1080" viewBox="0 0 1080 1080">
  <circle cx="540" cy="540" r="540" style="fill: #ef4136"/>
  <g>
    <g>
      <path d="M441.8,664.2c-7.4-3.1-15.4-5.2-21.8-9.6-13.9-9.5-19.2-23.9-19.2-40.4.1-69.2,0-138.5.2-207.7,0-5.4-1.3-7.7-6.8-10-17.6-7.1-27.6-20.7-29.3-40s3.9-35,20-46.3a44.7,44.7,0,0,1,11.6-5.7c3.6-1.1,4.6-2.8,4.4-6.3-.6-10,.6-19.7,5.1-28.7,8.9-18.1,23.8-27.8,43.8-29.8a50.3,50.3,0,0,0,7.8-.8c9.3-2.2,15.6-10.3,15.7-20.4.1-13.9-.1-27.7.1-41.6a52.1,52.1,0,0,1,54.1-51.1c25.1.9,47.4,21.9,49,46.9.8,14.2.4,28.4.5,42.6.1,15.8,6.7,23.1,22.4,24.3,29.6,2.4,49.5,23.7,49.9,53.3a7.6,7.6,0,0,1,0,2.6c-.7,5.2.9,7.8,6.5,9.7,19.8,6.8,31.5,26.7,29.8,49.8-1.6,21.1-12.4,35.7-32.5,42.7-4.1,1.4-3.8,3.8-3.8,6.8.1,69.7,0,139.4.1,209.2,0,12.7-2.8,24.2-11.3,34a46.5,46.5,0,0,1-26.7,15.5l-3.5,1Zm-9.4-263.8a13.9,13.9,0,0,0-.3,2.4c0,71.5-.1,143,.2,214.5,0,4.1,2.5,9,5.5,11.8s7.5,3.8,11.5,3.8c50.6.3,101.3.2,151.9.2l3.2-.2c7.2-.9,12.8-5.9,13.7-13.1.5-3.9.1-8,.1-12.5h-5.9c-11.4,0-22.8.1-34.2-.1-9.8-.1-16.4-6.4-16.6-15.3s6.3-15.3,16.1-15.8c3.9-.2,7.7,0,11.6,0h28.9V529.6H579c-10.6,0-17.4-6.1-17.5-15.4s6.7-15.5,17.4-15.6h33.6c1.9,0,3.7-.2,5.5-.3V457H579.9a30.7,30.7,0,0,1-6.8-.5c-7.6-1.9-12.2-8.7-11.5-16.6a14.5,14.5,0,0,1,13.7-13.5c12.3-.5,24.5-.3,36.8-.4,2,0,4-.2,6-.3V400.4Zm186-99v-8.7c-.3-13.1-8.2-21.3-21.2-22-30.3-1.6-51.2-23.7-51.3-54,0-13,.1-26-.1-38.9s-10.4-22-23.1-20.7a19.5,19.5,0,0,0-17.9,18.8c-.5,13.7-.2,27.4-.3,41-.3,26-14.7,45-39.7,52.1a48.9,48.9,0,0,1-9.3,1.6c-18.4,1.3-26.5,12.2-22.7,30.8Zm-93.6,67.5c37.5,0,75.1.1,112.6,0,11.6,0,17.2-6.2,17.1-18.3s-5.9-17.7-17.3-17.7h-224c-10.7,0-17,5.8-17.6,16-.6,13.7,5.5,20,19.3,20Q470,369.1,524.8,368.9Z" style="fill: #fff"/>
      <path d="M432.4,400.4H618.1v25.3c-2,.1-4,.3-6,.3-12.3.1-24.5-.1-36.8.4a14.5,14.5,0,0,0-13.7,13.5c-.7,7.9,3.9,14.7,11.5,16.6a30.7,30.7,0,0,0,6.8.5H618v41.1c-1.8.1-3.6.3-5.5.3H578.9c-10.7.1-17.4,6.3-17.4,15.6s6.9,15.4,17.5,15.4h39.1v46.5H589.2c-3.9,0-7.7-.2-11.6,0-9.8.5-16.2,6.9-16.1,15.8s6.8,15.2,16.6,15.3c11.4.2,22.8.1,34.2.1h5.9c0,4.5.4,8.6-.1,12.5-.9,7.2-6.5,12.2-13.7,13.1l-3.2.2c-50.6,0-101.3.1-151.9-.2-4,0-8.8-1.3-11.5-3.8s-5.5-7.7-5.5-11.8c-.3-71.5-.2-143-.2-214.5A13.9,13.9,0,0,1,432.4,400.4Z" style="fill: #ef4136"/>
      <path d="M618.4,301.4H432.8c-3.8-18.6,4.3-29.5,22.7-30.8a48.9,48.9,0,0,0,9.3-1.6c25-7.1,39.4-26.1,39.7-52.1.1-13.6-.2-27.3.3-41a19.5,19.5,0,0,1,17.9-18.8c12.7-1.3,22.9,7.6,23.1,20.7s.1,25.9.1,38.9c.1,30.3,21,52.4,51.3,54,13,.7,20.9,8.9,21.2,22Z" style="fill: #ef4136"/>
      <path d="M524.8,369H414.9c-13.8,0-19.9-6.3-19.3-20,.6-10.2,6.9-16,17.6-16h224c11.4,0,17.2,6,17.3,17.7s-5.5,18.3-17.1,18.3Z" style="fill: #ef4136"/>
    </g>
    <g>
      <path d="M326.7,954.3c-2.4-3.2-5.3-6.1-7.3-9.6q-51.3-88.8-102.6-177.9c-1-1.9-2.2-3.7-3.1-5.6-2.8-6.2-1.5-11.5,4.3-14.9q46-26.8,92.4-53.2c6.6-3.8,11.5-2.2,15.6,4.6,7.5,12.7,14.8,25.6,22.3,38.3,1.1,2,2.4,4,4.1,6.7,2.2-2,3.9-3.3,5.5-4.9,10-10,20.1-19.9,30-30a18.7,18.7,0,0,1,14.8-6.2H625.6c30.1,0,50.3,26.6,42.3,55.6a8.6,8.6,0,0,0-.1,5.3c1.7-1.5,3.4-3,5-4.6L792.5,638.8c7.8-7.8,16.6-13.1,27.7-14.9,21-3.3,44.3,13.9,47.1,35.2,2,15.1-2.5,27.8-13.2,38.5q-68.9,69.1-137.9,138.3c-11.8,11.8-26.2,16.8-43,16.7q-123.6-.3-247.3-.1H416l6.8,12.3,9.7,16.7c5.2,9.2,4.1,13.6-5.1,18.9-28.6,16.7-57.4,33.2-86.1,49.8-1.9,1.2-3.7,2.7-5.6,4.1Zm216-121.8c42.6,0,85.3-.2,127.9.1,13.7.1,24.6-4.3,34.3-14.1q66.3-66.7,133.1-133a46.8,46.8,0,0,0,5.6-6.2,22.3,22.3,0,0,0-3.7-30.6c-9.3-7.7-22.7-6.6-32.3,3.1Q746.3,713,685.1,774.5c-8.5,8.5-18,12.7-30.3,12.6-44.3-.3-88.6,0-132.9-.2-15.8,0-13.5,3.3-13.7-14.6-.1-3.8,1.2-5.4,5.1-5.3,7.1.3,14.2.1,21.2.1,30.7,0,61.3.1,91.9-.1,16.6-.1,27.4-15.6,21.8-30.6-3.6-9.6-12.2-14.9-25.3-14.9-71.5,0-143-.1-214.5.2a15.1,15.1,0,0,0-9.5,3.8c-10.9,10.3-21.2,21.2-32,31.6-3.2,3.1-3.4,5.5-1.1,9.3q17.6,29.6,34.4,59.5c2.7,4.9,5.8,6.8,11.5,6.7C455.4,832.4,499.1,832.5,542.7,832.5ZM334.8,930.1l76.1-43.9c-.7-1.7-.8-2.3-1.1-2.9q-47.2-81.9-94.3-164.1c-2.4-4.2-4.7-3.6-8.2-1.6-19.4,11.4-38.8,22.6-58.3,33.8l-13.1,7.9C268.9,816.4,301.7,872.9,334.8,930.1Z" style="fill: #fff"/>
      <path d="M542.7,832.5c-43.6,0-87.3-.1-131,.1-5.7.1-8.8-1.8-11.5-6.7q-16.8-30-34.4-59.5c-2.3-3.8-2.1-6.2,1.1-9.3,10.8-10.4,21.1-21.3,32-31.6a15.1,15.1,0,0,1,9.5-3.8c71.5-.3,143-.2,214.5-.2,13.1,0,21.7,5.3,25.3,14.9,5.6,15-5.2,30.5-21.8,30.6-30.6.2-61.2.1-91.9.1-7,0-14.1.2-21.2-.1-3.9-.1-5.2,1.5-5.1,5.3.2,17.9-2.1,14.6,13.7,14.6,44.3.2,88.6-.1,132.9.2,12.3.1,21.8-4.1,30.3-12.6q61-61.7,122.5-122.7c9.6-9.7,23-10.8,32.3-3.1a22.3,22.3,0,0,1,3.7,30.6,46.8,46.8,0,0,1-5.6,6.2q-66.6,66.4-133.1,133c-9.7,9.8-20.6,14.2-34.3,14.1C628,832.3,585.3,832.5,542.7,832.5Z" style="fill: #ef4136"/>
      <path d="M334.8,930.1c-33.1-57.2-65.9-113.7-98.9-170.8l13.1-7.9c19.5-11.2,38.9-22.4,58.3-33.8,3.5-2,5.8-2.6,8.2,1.6q47.1,82.2,94.3,164.1c.3.6.4,1.2,1.1,2.9Z" style="fill: #ed1c24"/>
    </g>
  </g>
</svg>
