<svg id="ba3ef7b6-66bc-4533-a476-fde5dfc3157e" data-name="Layer 1" xmlns="http://www.w3.org/2000/svg" width="1080" height="1080" viewBox="0 0 1080 1080">
  <circle cx="540" cy="540" r="540" style="fill: #ef4136"/>
  <g>
    <g>
      <g>
        <path d="M523.1,452.3c16.3-29.4,50.5-56.1,87.2-55.5,16.8.2,46.2,6.4,65.4,21.8,3.7,2.9,12.2,10.2,25.4,13.8a62.2,62.2,0,0,0,22.7,1.9c11.5-.9,23.2-.2,34.8-.2,34.2.1,37.6,2.3,41.4,37.3,1.3,11.7,7.5,9.2,14,9.2,21.7.1,43.4.3,65.1,0,9.6-.2,20,.3,26.2,7,34,37.2,75.5,70.3,72.3,128.8-1.2,21.6-.1,43.3-.2,65s-10.6,32.4-31.3,31.6c-12.4-.5-16.7,4.6-21.5,15.2-9.5,20.5-27.2,31.5-50.1,31.5s-41.2-10.2-48.1-30.4-25.5-21.7-36.2-19.4c-29.4,6.2-58.5,1.6-87.7,3.2-9.5.5-14.8,2.1-18.8,12.1-8.8,22.1-26.5,34.2-50.5,34.4s-41.7-11.8-51-33.6c-4-9.2-8-12.6-18.2-13-25.8-.9-33.4-9.9-33.6-36.3-.1-31.8-.7-63.5.2-95.3.3-7.1-2.2-19.7-6.6-35.8-6-22.1-11.3-27-13.4-39.9C506.6,482.1,517.8,461.7,523.1,452.3Z" style="fill: #fff"/>
        <path d="M550.1,580.1c43.5,27.9,85.8,30.8,125.3.5,42.8-32.8,50.6-77,31.2-127.8,21.1,0,40.4.5,59.7-.2,12.7-.5,15.7,5.4,15.7,16.8q-.4,104.6,0,209c.1,11.7-3.4,17.2-15.9,16.5s-24.7-.3-37.1-.1c-21.8.4-39.5,2.1-54.2-24.3-20.2-36.3-73.9-28.4-92.1,10.7-5.4,11.6-11.1,15.2-22.3,13.4-13.3-2.1-11.3-12.5-11.4-21.6,0-27.9,0-55.7.1-83.6A87.5,87.5,0,0,1,550.1,580.1Z" style="fill: #ef4136"/>
        <path d="M530.4,498.3c.5-46.3,38.8-83.5,85.3-82.8S699.1,455,698,501.3s-38.7,81.9-84.2,81.7S530,544.8,530.4,498.3Z" style="fill: #ef4136"/>
        <path d="M909.5,517.9c-16.5,0-29.4-.4-42.3.1-18.4.7-28.5,10.6-29.4,29.1-.4,9.2-.2,18.6-.1,27.9.5,26,10.4,35.7,37,35.9,23.3.2,46.5.6,69.8-.1,10.7-.4,15.2,2.1,14.5,13.9-.9,17.7-.4,35.6-.2,53.4.1,8.7-1.9,15.8-11.9,16.5-8.2.6-16.2,2-20.3-9.6-8.3-23.6-26.4-36.2-51.2-36.4s-42.5,12.6-52.1,35.6c-2.4,5.9-4.1,11.9-12.5,10.4s-10.4-7.8-10.4-15.4q.1-82.5.1-165c0-7.9,2.6-14.4,11.3-14.6,24.8-.3,49.6-.5,74.4.4C894.8,500.4,901.3,507.1,909.5,517.9Z" style="fill: #ef4136"/>
        <path d="M955.4,592.4c-27.3,0-54.4-.4-81.5.1-13,.3-17.3-5.1-17.8-17.9-1.6-38.1-2-38.1,37-38.1C929.7,536.5,947.9,552.6,955.4,592.4Z" style="fill: #ef4136"/>
        <path d="M670,705c-.6,20.1-17.6,36.5-37.6,36.2s-38-18.4-36.7-39.3,18.7-35.9,38.7-35S670.6,685,670,705Z" style="fill: #ef4136"/>
        <path d="M912.1,703.8a37.2,37.2,0,1,1-36.8-36.9A37.4,37.4,0,0,1,912.1,703.8Z" style="fill: #ef4136"/>
      </g>
      <g>
        <path d="M545.2,630.6c-6.1-2.5-12.8-4.1-18.1-7.6-11.6-7.6-15.9-19.1-15.9-32.4,0-55.3-.1-110.6.1-165.9,0-4.3-1-6.2-5.6-8-14.7-5.7-23-16.5-24.4-31.9s3.2-28,16.6-37a34.6,34.6,0,0,1,9.7-4.6c2.9-.9,3.8-2.2,3.6-5.1-.5-7.9.5-15.7,4.2-22.8,7.5-14.5,19.8-22.3,36.5-23.9a47.6,47.6,0,0,0,6.5-.6,16.6,16.6,0,0,0,13-16.4c.1-11-.1-22.1.1-33.1.4-23.4,20.7-41.8,45-40.9,20.8.7,39.4,17.5,40.7,37.5.7,11.3.3,22.7.4,34s5.6,18.5,18.7,19.5c24.5,1.9,41.1,18.8,41.4,42.5a14.7,14.7,0,0,1,0,2.1c-.6,4.2.8,6.2,5.4,7.7,16.4,5.4,26.2,21.4,24.7,39.8s-10.2,28.6-27,34.1c-3.3,1.2-3.1,3.1-3.1,5.5q0,83.5.1,167.1c0,10.2-2.4,19.4-9.4,27.3a38.8,38.8,0,0,1-22.2,12.3l-2.9.8Zm-7.8-210.8a19.1,19.1,0,0,0-.2,2q-.2,85.6.1,171.4a14.8,14.8,0,0,0,4.6,9.4c2.2,2,6.3,3,9.5,3,42.1.2,84.2.1,126.3.1h2.6c6.1-.7,10.7-4.7,11.5-10.5.4-3.1,0-6.3,0-10h-4.9c-9.5,0-18.9.1-28.4,0s-13.7-5.1-13.8-12.2,5.3-12.3,13.4-12.7c3.2-.1,6.4,0,9.6,0h24V523c-11,0-21.7.1-32.5,0-8.7,0-14.4-4.9-14.5-12.3s5.6-12.4,14.5-12.5h27.9c1.6,0,3.1-.2,4.6-.3V465.1H660a25.9,25.9,0,0,1-5.6-.5,12.1,12.1,0,0,1-9.6-13.2,11.9,11.9,0,0,1,11.4-10.8c10.2-.4,20.4-.2,30.6-.3l4.9-.2V419.8ZM692,340.7v-7c-.2-10.4-6.8-16.9-17.6-17.5-25.2-1.3-42.6-18.9-42.7-43.2,0-10.4.2-20.7,0-31.1s-8.7-17.5-19.3-16.5c-8.1.8-14.5,7-14.8,15.1-.4,10.9-.2,21.8-.3,32.7-.2,20.8-12.2,35.9-33,41.6a40,40,0,0,1-7.7,1.3c-15.3,1.1-22,9.7-18.9,24.6Zm-77.8,54h93.6c9.6,0,14.3-5,14.2-14.7s-4.9-14.1-14.4-14.1H521.4c-8.8,0-14.1,4.7-14.5,12.8-.6,10.9,4.5,16,16,16Z" style="fill: #fff"/>
        <path d="M537.4,419.8H691.7v20.3l-4.9.2c-10.2.1-20.4-.1-30.6.3a11.9,11.9,0,0,0-11.4,10.8,12.1,12.1,0,0,0,9.6,13.2,25.9,25.9,0,0,0,5.6.5h31.7v32.8c-1.5.1-3,.3-4.6.3H659.2c-8.9.1-14.5,5-14.5,12.5s5.8,12.3,14.5,12.3c10.8.1,21.5,0,32.5,0v37.2h-24c-3.2,0-6.4-.1-9.6,0-8.1.4-13.4,5.5-13.4,12.7s5.7,12.1,13.8,12.2,18.9,0,28.4,0h4.9c0,3.7.4,6.9,0,10-.8,5.8-5.4,9.8-11.5,10.5h-2.6c-42.1,0-84.2.1-126.3-.1-3.2,0-7.3-1-9.5-3a14.8,14.8,0,0,1-4.6-9.4q-.3-85.8-.1-171.4A19.1,19.1,0,0,1,537.4,419.8Z" style="fill: #ef4136"/>
        <path d="M692,340.7H537.7c-3.1-14.9,3.6-23.5,18.9-24.6a40,40,0,0,0,7.7-1.3c20.8-5.7,32.8-20.8,33-41.6.1-10.9-.1-21.8.3-32.7.3-8.1,6.7-14.3,14.8-15.1,10.6-1,19.1,6.1,19.3,16.5s0,20.7,0,31.1c.1,24.3,17.5,41.9,42.7,43.2,10.8.6,17.4,7.1,17.6,17.5Z" style="fill: #ef4136"/>
        <path d="M614.2,394.7H522.9c-11.5,0-16.6-5.1-16-16,.4-8.1,5.7-12.8,14.5-12.8H707.6c9.5,0,14.4,4.8,14.4,14.1s-4.6,14.7-14.2,14.7Z" style="fill: #ef4136"/>
      </g>
    </g>
    <path d="M384.9,566.8H114.1A11.8,11.8,0,0,1,102.2,555h0a11.9,11.9,0,0,1,11.9-11.9H384.9A11.9,11.9,0,0,1,396.8,555h0A11.9,11.9,0,0,1,384.9,566.8Z" style="fill: #fff"/>
    <path d="M384.9,667.5H155a11.8,11.8,0,0,1-11.9-11.8h0A11.9,11.9,0,0,1,155,643.8H384.9a11.9,11.9,0,0,1,11.9,11.9h0A11.9,11.9,0,0,1,384.9,667.5Z" style="fill: #fff"/>
    <path d="M384.9,455.7H191.1a11.9,11.9,0,0,1-11.9-11.9h0a11.9,11.9,0,0,1,11.9-11.9H384.9a11.9,11.9,0,0,1,11.9,11.9h0A11.9,11.9,0,0,1,384.9,455.7Z" style="fill: #fff"/>
  </g>
</svg>
