<svg xmlns="http://www.w3.org/2000/svg" xmlns:xlink="http://www.w3.org/1999/xlink" viewBox="0 0 2190.9 1077.8">
  <defs>
    <clipPath id="aeab365f-d606-4b81-9b03-c4addeb8b443" transform="translate(98.5 200.4)">
      <rect width="1920" height="480" transform="translate(1920 480) rotate(180)" style="fill: none"/>
    </clipPath>
    <linearGradient id="f2e1bbaf-cc34-4145-8430-daa855b1ac57" data-name="Degradado sin nombre 2" x1="1355.25" y1="88.21" x2="1920" y2="88.21" gradientTransform="matrix(-1, 0, 0, 1, 1920, 0)" gradientUnits="userSpaceOnUse">
      <stop offset="0" stop-color="#f59b26"/>
      <stop offset="1" stop-color="#f4c236"/>
    </linearGradient>
    <linearGradient id="ae4b48af-165f-49ef-8fd8-220afa545e2d" x1="305.39" y1="390.06" x2="870.14" y2="390.06" gradientTransform="matrix(1.27, 0.59, 0.45, -0.97, 788.06, 544.63)" xlink:href="#f2e1bbaf-cc34-4145-8430-daa855b1ac57"/>
    <linearGradient id="abe36bc5-dd0b-4e60-a1b6-33f5fbcf0fdf" x1="462.85" y1="55.69" x2="1089.31" y2="55.69" xlink:href="#f2e1bbaf-cc34-4145-8430-daa855b1ac57"/>
  </defs>
  <g style="isolation: isolate">
    <g id="bb4ee411-6709-430e-b0c3-635be07d849e" data-name="BACKGROUND">
      <rect x="98.5" y="200.4" width="1920" height="480" style="fill: #f7931e"/>
    </g>
    <g id="f63cb394-a01a-449d-80d3-a45753c7da70" data-name="OBJECTS">
      <g style="clip-path: url(#aeab365f-d606-4b81-9b03-c4addeb8b443)">
        <g>
          <path d="M416.1-200.4c45.6,4.8,86.6,33.8,111.9,72,19.9,30.1,29.9,67.1,35.3,102.5C580.5,85.9,437.6,90.4,400.8,177.6c-12,28.2-17.4,58.7-25.5,88.3C355.1,340.5,297,388.7,216.5,374.2,147.1,361.7,82.2,310.3,47.3,250.1,4.4,175.9-5.2,86.4,2.3,1,7.4-58,23.7-121.9,71.9-156.4c30-21.4,67.9-28,104.5-32.7,41.4-5.3,83.8-9,124.4.6,23.7,5.5,46.3,15.4,70.2,19.5a149.5,149.5,0,0,0,99.1-17.7" transform="translate(98.5 200.4)" style="fill: url(#f2e1bbaf-cc34-4145-8430-daa855b1ac57)"/>
          <path d="M1411.7,715.4c-55.7-31.7-94.8-84.2-109.6-136.3-11.6-41.1-7.6-83.1,1.5-120.7,29-119,212.8-38.5,299.3-101.5,27.9-20.4,48.7-46.8,72.4-70.8,59.7-60.6,155.5-73,251.2-11.1,82.6,53.4,141.9,142,158.9,221.2,20.9,97.7-7.6,190.4-55.8,269.1-33.3,54.3-83,106.8-160,111.7-47.9,3.1-99.1-13-147.8-30.2-55-19.4-110.7-41-158-74.4-27.6-19.4-51.8-42.5-80.5-60.7-40.3-25.6-88.6-40.6-134-41.6" transform="translate(98.5 200.4)" style="fill: url(#ae4b48af-165f-49ef-8fd8-220afa545e2d)"/>
          <path d="M850.5-50.5c-23.5,45.7-31.6,99,6.9,139,26.2,27.2,68.3,39.3,105.2,32.1,39.4-7.8,69.4-41.9,110.3-44.4,35.2-2.2,55.3,21.4,77.9,44a365.4,365.4,0,0,0,54.6,44.6c51.4,34.2,136.2,75.6,197.4,43.5,26.9-14.1,43.5-43.1,49.7-72.9,10.9-52,2-115.1-20.8-162.9-39.2-82.3-179.8-49.1-251.3-56.8-53.6-5.8-107.6-5.5-161.3-8.6-26.6-1.6-53.3-3.6-79.5-8.2-14.1-2.4-33-11.1-47.2-5.5C873.3-99,859.3-67.6,850.5-50.5Z" transform="translate(98.5 200.4)" style="fill: url(#abe36bc5-dd0b-4e60-a1b6-33f5fbcf0fdf)"/>
          <g>
            <path d="M1921.5,213.8a79.8,79.8,0,0,0,29.8-8.3l16.5-8.3-27.9-342-440.2,18.4-1,25.4c-1,29.5-2.3,63,6.1,95.6,10.1,39.7,33.8,71.3,65,86.7,27.9,13.8,58,13.3,84.4,12.8,9-.1,17.5-.3,25.7.1a180.6,180.6,0,0,1,109.3,43.5c7,6,13.7,12.7,20.8,19.8,11.9,12,24.3,24.3,39.4,34.8C1872.2,208.1,1897.8,215.7,1921.5,213.8Z" transform="translate(98.5 200.4)" style="fill: none;stroke: #fcfcfc;stroke-miterlimit: 10;stroke-width: 5px"/>
            <path d="M1523.2-86.1c-1,29.4-2.1,59.3,5.2,87.8s24.2,55.9,50.6,68.9c30.1,14.8,65.7,8.6,99.2,10.1a209.1,209.1,0,0,1,126,50.1c19.8,17.1,36.4,37.9,57.9,52.8s50.5,23.1,73.8,11.3l-24.2-297.3Z" transform="translate(98.5 200.4)" style="fill: #ef4136"/>
          </g>
          <polygon points="553.2 449.8 596.5 462.2 585.6 418.5 553.2 449.8" style="fill: none;stroke: #fcfcfc;stroke-miterlimit: 10;stroke-width: 5px"/>
          <g style="mix-blend-mode: screen">
            <g>
              <path d="M1348.7-64.2a5.8,5.8,0,0,0,5.7-5.7,5.8,5.8,0,0,0-5.7-5.8,5.8,5.8,0,0,0-5.8,5.8A5.8,5.8,0,0,0,1348.7-64.2Z" transform="translate(98.5 200.4)" style="fill: #ffaf12"/>
              <path d="M1348.7-31.4a5.7,5.7,0,0,0,5.7-5.7,5.7,5.7,0,0,0-5.7-5.7,5.7,5.7,0,0,0-5.8,5.7A5.7,5.7,0,0,0,1348.7-31.4Z" transform="translate(98.5 200.4)" style="fill: #ffaf12"/>
              <path d="M1348.7,1.5a5.8,5.8,0,0,0,5.7-5.8,5.8,5.8,0,0,0-5.7-5.7,5.8,5.8,0,0,0-5.8,5.7A5.8,5.8,0,0,0,1348.7,1.5Z" transform="translate(98.5 200.4)" style="fill: #ffaf12"/>
              <circle cx="1447.2" cy="228.9" r="5.7" style="fill: #ffaf12"/>
              <circle cx="1447.2" cy="261.8" r="5.7" style="fill: #ffaf12"/>
              <circle cx="1447.2" cy="294.6" r="5.7" style="fill: #ffaf12"/>
            </g>
            <g>
              <path d="M1377.3-64.2a5.7,5.7,0,0,0,5.7-5.7,5.7,5.7,0,0,0-5.7-5.8,5.7,5.7,0,0,0-5.7,5.8A5.7,5.7,0,0,0,1377.3-64.2Z" transform="translate(98.5 200.4)" style="fill: #ffaf12"/>
              <path d="M1377.3-31.4a5.6,5.6,0,0,0,5.7-5.7,5.6,5.6,0,0,0-5.7-5.7,5.6,5.6,0,0,0-5.7,5.7A5.6,5.6,0,0,0,1377.3-31.4Z" transform="translate(98.5 200.4)" style="fill: #ffaf12"/>
              <path d="M1377.3,1.5a5.7,5.7,0,0,0,5.7-5.8,5.7,5.7,0,0,0-5.7-5.7,5.7,5.7,0,0,0-5.7,5.7A5.7,5.7,0,0,0,1377.3,1.5Z" transform="translate(98.5 200.4)" style="fill: #ffaf12"/>
              <circle cx="1475.8" cy="228.9" r="5.7" style="fill: #ffaf12"/>
              <circle cx="1475.8" cy="261.8" r="5.7" style="fill: #ffaf12"/>
              <circle cx="1475.8" cy="294.6" r="5.7" style="fill: #ffaf12"/>
            </g>
            <g>
              <path d="M1405.9-64.2a5.8,5.8,0,0,0,5.8-5.7,5.8,5.8,0,0,0-5.8-5.8,5.8,5.8,0,0,0-5.7,5.8A5.8,5.8,0,0,0,1405.9-64.2Z" transform="translate(98.5 200.4)" style="fill: #ffaf12"/>
              <path d="M1405.9-31.4a5.7,5.7,0,0,0,5.8-5.7,5.7,5.7,0,0,0-5.8-5.7,5.7,5.7,0,0,0-5.7,5.7A5.7,5.7,0,0,0,1405.9-31.4Z" transform="translate(98.5 200.4)" style="fill: #ffaf12"/>
              <path d="M1405.9,1.5a5.8,5.8,0,0,0,5.8-5.8,5.8,5.8,0,0,0-5.8-5.7,5.8,5.8,0,0,0-5.7,5.7A5.8,5.8,0,0,0,1405.9,1.5Z" transform="translate(98.5 200.4)" style="fill: #ffaf12"/>
              <circle cx="1504.5" cy="228.9" r="5.7" style="fill: #ffaf12"/>
              <circle cx="1504.5" cy="261.8" r="5.7" style="fill: #ffaf12"/>
              <circle cx="1504.5" cy="294.6" r="5.7" style="fill: #ffaf12"/>
            </g>
          </g>
          <g style="mix-blend-mode: screen">
            <g>
              <path d="M113.3,171a5.7,5.7,0,1,0-5.7,5.7A5.6,5.6,0,0,0,113.3,171Z" transform="translate(98.5 200.4)" style="fill: #ffaf12"/>
              <path d="M146.2,171a5.8,5.8,0,1,0-5.8,5.7A5.7,5.7,0,0,0,146.2,171Z" transform="translate(98.5 200.4)" style="fill: #ffaf12"/>
              <path d="M179,171a5.8,5.8,0,1,0-5.7,5.7A5.7,5.7,0,0,0,179,171Z" transform="translate(98.5 200.4)" style="fill: #ffaf12"/>
              <path d="M211.9,171a5.8,5.8,0,1,0-5.8,5.7A5.7,5.7,0,0,0,211.9,171Z" transform="translate(98.5 200.4)" style="fill: #ffaf12"/>
              <path d="M244.7,171a5.8,5.8,0,1,0-5.7,5.7A5.7,5.7,0,0,0,244.7,171Z" transform="translate(98.5 200.4)" style="fill: #ffaf12"/>
              <path d="M277.5,171a5.7,5.7,0,1,0-5.7,5.7A5.6,5.6,0,0,0,277.5,171Z" transform="translate(98.5 200.4)" style="fill: #ffaf12"/>
            </g>
            <g>
              <circle cx="206.1" cy="342.7" r="5.7" style="fill: #ffaf12"/>
              <circle cx="239" cy="342.7" r="5.7" style="fill: #ffaf12"/>
              <path d="M179,142.4a5.8,5.8,0,1,0-5.7,5.7A5.8,5.8,0,0,0,179,142.4Z" transform="translate(98.5 200.4)" style="fill: #ffaf12"/>
              <path d="M211.9,142.4a5.8,5.8,0,1,0-5.8,5.7A5.8,5.8,0,0,0,211.9,142.4Z" transform="translate(98.5 200.4)" style="fill: #ffaf12"/>
              <path d="M244.7,142.4a5.8,5.8,0,1,0-5.7,5.7A5.8,5.8,0,0,0,244.7,142.4Z" transform="translate(98.5 200.4)" style="fill: #ffaf12"/>
              <circle cx="370.3" cy="342.7" r="5.7" style="fill: #ffaf12"/>
            </g>
            <g>
              <circle cx="206.1" cy="314.1" r="5.7" style="fill: #ffaf12"/>
              <circle cx="239" cy="314.1" r="5.7" style="fill: #ffaf12"/>
              <path d="M179,113.7a5.8,5.8,0,1,0-5.7,5.8A5.8,5.8,0,0,0,179,113.7Z" transform="translate(98.5 200.4)" style="fill: #ffaf12"/>
              <path d="M211.9,113.7a5.8,5.8,0,1,0-5.8,5.8A5.8,5.8,0,0,0,211.9,113.7Z" transform="translate(98.5 200.4)" style="fill: #ffaf12"/>
              <path d="M244.7,113.7a5.8,5.8,0,1,0-5.7,5.8A5.8,5.8,0,0,0,244.7,113.7Z" transform="translate(98.5 200.4)" style="fill: #ffaf12"/>
              <circle cx="370.3" cy="314.1" r="5.7" style="fill: #ffaf12"/>
            </g>
          </g>
          <g style="mix-blend-mode: screen">
            <g>
              <circle cx="1897.9" cy="495" r="5.7" style="fill: #ffaf12"/>
              <circle cx="1897.9" cy="527.9" r="5.7" style="fill: #ffaf12"/>
              <path d="M1799.3,366.1a5.8,5.8,0,1,0,0-11.5,5.8,5.8,0,0,0,0,11.5Z" transform="translate(98.5 200.4)" style="fill: #ffaf12"/>
              <path d="M1799.3,398.9a5.7,5.7,0,1,0,0-11.4,5.7,5.7,0,0,0,0,11.4Z" transform="translate(98.5 200.4)" style="fill: #ffaf12"/>
              <path d="M1799.3,431.8a5.8,5.8,0,1,0,0-11.5,5.8,5.8,0,0,0,0,11.5Z" transform="translate(98.5 200.4)" style="fill: #ffaf12"/>
              <path d="M1799.3,464.6a5.7,5.7,0,1,0,0-11.4,5.7,5.7,0,0,0,0,11.4Z" transform="translate(98.5 200.4)" style="fill: #ffaf12"/>
            </g>
            <g>
              <path d="M1827.9,300.4a5.8,5.8,0,1,0-5.7-5.7A5.8,5.8,0,0,0,1827.9,300.4Z" transform="translate(98.5 200.4)" style="fill: #ffaf12"/>
              <path d="M1827.9,333.3a5.8,5.8,0,1,0-5.7-5.8A5.8,5.8,0,0,0,1827.9,333.3Z" transform="translate(98.5 200.4)" style="fill: #ffaf12"/>
              <path d="M1827.9,366.1a5.8,5.8,0,1,0-5.7-5.7A5.8,5.8,0,0,0,1827.9,366.1Z" transform="translate(98.5 200.4)" style="fill: #ffaf12"/>
              <path d="M1827.9,398.9a5.7,5.7,0,1,0-5.7-5.7A5.7,5.7,0,0,0,1827.9,398.9Z" transform="translate(98.5 200.4)" style="fill: #ffaf12"/>
              <path d="M1827.9,431.8a5.8,5.8,0,1,0-5.7-5.7A5.8,5.8,0,0,0,1827.9,431.8Z" transform="translate(98.5 200.4)" style="fill: #ffaf12"/>
              <path d="M1827.9,464.6a5.7,5.7,0,1,0-5.7-5.7A5.7,5.7,0,0,0,1827.9,464.6Z" transform="translate(98.5 200.4)" style="fill: #ffaf12"/>
            </g>
            <g>
              <path d="M1856.6,300.4a5.8,5.8,0,1,0-5.8-5.7A5.8,5.8,0,0,0,1856.6,300.4Z" transform="translate(98.5 200.4)" style="fill: #ffaf12"/>
              <path d="M1856.6,333.3a5.8,5.8,0,1,0-5.8-5.8A5.8,5.8,0,0,0,1856.6,333.3Z" transform="translate(98.5 200.4)" style="fill: #ffaf12"/>
              <path d="M1856.6,366.1a5.8,5.8,0,1,0-5.8-5.7A5.8,5.8,0,0,0,1856.6,366.1Z" transform="translate(98.5 200.4)" style="fill: #ffaf12"/>
              <path d="M1856.6,398.9a5.7,5.7,0,1,0-5.8-5.7A5.7,5.7,0,0,0,1856.6,398.9Z" transform="translate(98.5 200.4)" style="fill: #ffaf12"/>
              <path d="M1856.6,431.8a5.8,5.8,0,1,0-5.8-5.7A5.8,5.8,0,0,0,1856.6,431.8Z" transform="translate(98.5 200.4)" style="fill: #ffaf12"/>
              <path d="M1856.6,464.6a5.7,5.7,0,1,0-5.8-5.7A5.7,5.7,0,0,0,1856.6,464.6Z" transform="translate(98.5 200.4)" style="fill: #ffaf12"/>
            </g>
          </g>
          <circle cx="1650.6" cy="387.5" r="17.3" transform="translate(53.7 589.9) rotate(-13.3)" style="fill: none;stroke: #fcfcfc;stroke-miterlimit: 10;stroke-width: 5px"/>
          <circle cx="1134.8" cy="640.6" r="10.8" style="fill: none;stroke: #fcfcfc;stroke-miterlimit: 10;stroke-width: 5px"/>
          <circle cx="1235.1" cy="98.8" r="10.8" transform="translate(132 601.3) rotate(-18.7)" style="fill: none;stroke: #fcfcfc;stroke-miterlimit: 10;stroke-width: 5px"/>
          <circle cx="757.7" cy="478.4" r="10.8" style="fill: none;stroke: #fcfcfc;stroke-miterlimit: 10;stroke-width: 5px"/>
          <circle cx="189.6" cy="11" r="10.8" transform="translate(146.3 337.7) rotate(-45)" style="fill: none;stroke: #fcfcfc;stroke-miterlimit: 10;stroke-width: 5px"/>
          <path d="M1235.1,393.2a5,5,0,0,0,5,5,5,5,0,0,0,5-5,5,5,0,0,0-5-5A5.1,5.1,0,0,0,1235.1,393.2Z" transform="translate(98.5 200.4)" style="fill: #fcfcfc"/>
          <path d="M1662.9,176.7a5,5,0,1,0,5-4.9A5,5,0,0,0,1662.9,176.7Z" transform="translate(98.5 200.4)" style="fill: #fcfcfc"/>
          <path d="M830.3,393.2a5,5,0,1,0,9.9,0,5,5,0,1,0-9.9,0Z" transform="translate(98.5 200.4)" style="fill: #fcfcfc"/>
          <path d="M622.7,88.2a5,5,0,1,0,5-5A5,5,0,0,0,622.7,88.2Z" transform="translate(98.5 200.4)" style="fill: #fcfcfc"/>
          <g>
            <path d="M-23.7,166.5a124.9,124.9,0,0,0-46.5,12.9l-25.7,13,43.5,533.7,686.6-28.7,1.4-39.6c1.7-46.1,3.7-98.3-9.3-149.1-15.9-62.1-52.9-111.4-101.5-135.4-43.6-21.5-90.4-20.8-131.7-20.1-14,.3-27.3.5-40-.1a281.3,281.3,0,0,1-170.5-67.8c-10.9-9.4-21.4-19.9-32.4-31-18.7-18.6-37.9-37.9-61.5-54.2C53.2,175.4,13.2,163.5-23.7,166.5Z" transform="translate(98.5 200.4)" style="fill: none;stroke: #fcfcfc;stroke-miterlimit: 10;stroke-width: 5px"/>
            <path d="M608.4,641.4c1.7-46.5,3.3-93.8-8.2-138.9s-38.4-88.6-80.1-109.2c-47.7-23.5-104.1-13.6-157.2-16a331.4,331.4,0,0,1-199.6-79.4c-31.4-27.1-57.7-60.1-91.8-83.7s-80-36.6-116.9-17.9l38.3,471Z" transform="translate(98.5 200.4)" style="fill: #ef4136"/>
          </g>
        </g>
      </g>
    </g>
    <g id="bfc01448-162a-41b9-8e7b-4208d78f3096" data-name="TEXTS">
      <g>
        <path d="M265.8,271.4a5.3,5.3,0,0,1-3.9-1.6,5.5,5.5,0,0,1-1.6-3.9V195.4a5.8,5.8,0,0,1,1.6-4,5.8,5.8,0,0,1,7.8,0,5.7,5.7,0,0,1,1.5,4v70.5a5.4,5.4,0,0,1-1.5,3.9A5.3,5.3,0,0,1,265.8,271.4Z" transform="translate(98.5 200.4)" style="stroke: #000;stroke-miterlimit: 10;stroke-width: 3px"/>
        <path d="M319.7,271.8a28.1,28.1,0,0,1-24.9-14.2,30.4,30.4,0,0,1-3.8-14.8V195.2a5,5,0,0,1,1.5-3.8,5.2,5.2,0,0,1,3.8-1.5,5.3,5.3,0,0,1,3.9,1.5,5.4,5.4,0,0,1,1.4,3.8v28.2a28.1,28.1,0,0,1,8.8-6.9,26.3,26.3,0,0,1,25,1.2,27.7,27.7,0,0,1,9.5,10.3,30.2,30.2,0,0,1,3.5,14.8,28.8,28.8,0,0,1-14,25.2A29.3,29.3,0,0,1,319.7,271.8Zm0-9.4a17.5,17.5,0,0,0,9.4-2.6,18.8,18.8,0,0,0,6.7-7,20.8,20.8,0,0,0,2.4-10,19.1,19.1,0,0,0-9.1-17,17.4,17.4,0,0,0-9.4-2.5,18,18,0,0,0-9.5,2.5,19.3,19.3,0,0,0-6.6,7,20.3,20.3,0,0,0-2.4,10,20.8,20.8,0,0,0,2.4,10,17.8,17.8,0,0,0,6.6,7A18.1,18.1,0,0,0,319.7,262.4Z" transform="translate(98.5 200.4)" style="stroke: #000;stroke-miterlimit: 10;stroke-width: 3px"/>
        <path d="M388.3,271.9a26.2,26.2,0,0,1-12.9-3.1,22.3,22.3,0,0,1-9-9,29.7,29.7,0,0,1-3.3-14.6V219.5a5.2,5.2,0,0,1,1.5-3.8,5.4,5.4,0,0,1,3.9-1.5,5.4,5.4,0,0,1,3.8,1.5,5.2,5.2,0,0,1,1.5,3.8v25.7a18.4,18.4,0,0,0,2.2,9.6,13.5,13.5,0,0,0,5.9,5.7,19.2,19.2,0,0,0,8.4,1.8,17.1,17.1,0,0,0,8-1.8,15.4,15.4,0,0,0,5.6-4.8,11.6,11.6,0,0,0,2.1-6.8h6.6a22.3,22.3,0,0,1-3.2,11.7,23.9,23.9,0,0,1-8.7,8.3A25.3,25.3,0,0,1,388.3,271.9Zm23-.5a4.9,4.9,0,0,1-3.8-1.6A5,5,0,0,1,406,266V219.5a5,5,0,0,1,1.5-3.8,5.2,5.2,0,0,1,3.8-1.5,5.3,5.3,0,0,1,3.9,1.5,5.4,5.4,0,0,1,1.4,3.8V266a5.4,5.4,0,0,1-1.4,3.8A5,5,0,0,1,411.3,271.4Z" transform="translate(98.5 200.4)" style="stroke: #000;stroke-miterlimit: 10;stroke-width: 3px"/>
        <path d="M472.4,271.4a5.5,5.5,0,0,1-3.8-1.6,5.1,5.1,0,0,1-1.6-3.9V195.4a5,5,0,0,1,1.6-3.9,5.5,5.5,0,0,1,3.8-1.6,5.7,5.7,0,0,1,3.9,1.6,5.3,5.3,0,0,1,1.5,3.9v31.2l34.5-34.5a9.5,9.5,0,0,1,2.3-1.7,5.4,5.4,0,0,1,2.2-.5,4.7,4.7,0,0,1,3.8,1.6,5.1,5.1,0,0,1,.8,3.7,7.3,7.3,0,0,1-2,3.9l-26.6,26.7,27.1,36.9a5.5,5.5,0,0,1,1.1,3.8,5.6,5.6,0,0,1-1.5,3.4,4,4,0,0,1-3.3,1.5,5.1,5.1,0,0,1-4.5-2.3l-26.4-35.8-7.5,7.5v25.1a5.4,5.4,0,0,1-1.5,3.9A5.7,5.7,0,0,1,472.4,271.4Z" transform="translate(98.5 200.4)" style="stroke: #000;stroke-miterlimit: 10;stroke-width: 3px"/>
        <path d="M556,271.8a32.2,32.2,0,0,1-15.4-3.7,27.1,27.1,0,0,1-10.5-10.2,29.9,29.9,0,0,1-3.8-15,30.9,30.9,0,0,1,3.6-15.1,26.9,26.9,0,0,1,9.9-10.2,28.6,28.6,0,0,1,14.6-3.7,26,26,0,0,1,14,3.6,23.1,23.1,0,0,1,8.9,9.9,32.3,32.3,0,0,1,3.1,14.6,3.9,3.9,0,0,1-1.4,3.2,4.5,4.5,0,0,1-3.4,1.3h-42v-8.3h41.7l-4.3,2.9a19.9,19.9,0,0,0-2.1-9.3,15.5,15.5,0,0,0-5.6-6.5,15.8,15.8,0,0,0-8.9-2.4,18.3,18.3,0,0,0-10.1,2.6,16.3,16.3,0,0,0-6.4,7.1,22.9,22.9,0,0,0-2.2,10.3,19.4,19.4,0,0,0,2.6,10.2,18.2,18.2,0,0,0,7.2,7.1,21,21,0,0,0,10.5,2.6,19.2,19.2,0,0,0,6.6-1.2,18.8,18.8,0,0,0,5.5-2.8,7,7,0,0,1,3.4-1.2,5.2,5.2,0,0,1,3.2,1.1,4.7,4.7,0,0,1,1.8,3.5,3.5,3.5,0,0,1-1.6,3.2,29.2,29.2,0,0,1-8.8,4.6A31.3,31.3,0,0,1,556,271.8Z" transform="translate(98.5 200.4)" style="stroke: #000;stroke-miterlimit: 10;stroke-width: 3px"/>
        <path d="M599.3,295.8a5.1,5.1,0,0,1-3.8-1.6,5,5,0,0,1-1.5-3.8V242.9a29.4,29.4,0,0,1,3.8-14.8A28.3,28.3,0,0,1,608,217.7a28.8,28.8,0,0,1,39.6,10.4,29.4,29.4,0,0,1,3.8,14.8,30.7,30.7,0,0,1-3.5,14.7,27.2,27.2,0,0,1-9.5,10.4,25.7,25.7,0,0,1-13.7,3.8,25,25,0,0,1-11.3-2.6,27,27,0,0,1-8.8-6.9v28.1a5,5,0,0,1-1.5,3.8A5,5,0,0,1,599.3,295.8Zm23.3-33.4a18,18,0,0,0,16.1-9.6,19.2,19.2,0,0,0,2.5-9.9,19.9,19.9,0,0,0-2.5-10.1,19.3,19.3,0,0,0-6.6-7,19.1,19.1,0,0,0-18.9,0,19.3,19.3,0,0,0-6.6,7,20.9,20.9,0,0,0-2.4,10.1,20.2,20.2,0,0,0,2.4,9.9,18,18,0,0,0,16,9.6Z" transform="translate(98.5 200.4)" style="stroke: #000;stroke-miterlimit: 10;stroke-width: 3px"/>
        <path d="M691,271.8a25.1,25.1,0,0,1-13.6-3.8,26.7,26.7,0,0,1-9.6-10.4,30.7,30.7,0,0,1-3.5-14.7,29.4,29.4,0,0,1,3.8-14.8,29.4,29.4,0,0,1,39.6-10.4,28.6,28.6,0,0,1,14.1,25.2h-4.1a30.7,30.7,0,0,1-3.5,14.7,27.2,27.2,0,0,1-9.5,10.4A25.7,25.7,0,0,1,691,271.8Zm2.1-9.4a18.1,18.1,0,0,0,9.5-2.6,17.8,17.8,0,0,0,6.6-7,20.2,20.2,0,0,0,2.4-9.9,20.9,20.9,0,0,0-2.4-10.1,19.3,19.3,0,0,0-6.6-7,18,18,0,0,0-9.5-2.5,17.6,17.6,0,0,0-9.4,2.5,19.5,19.5,0,0,0-6.7,7,21,21,0,0,0-2.5,10.1,20.2,20.2,0,0,0,2.5,9.9,18.1,18.1,0,0,0,6.7,7A17.7,17.7,0,0,0,693.1,262.4Zm23.4,9.1a5.5,5.5,0,0,1-5.4-5.4V250.2l2-11.1,8.7,3.8v23.2a5,5,0,0,1-1.5,3.8A4.9,4.9,0,0,1,716.5,271.5Z" transform="translate(98.5 200.4)" style="stroke: #000;stroke-miterlimit: 10;stroke-width: 3px"/>
        <path d="M751.2,271.4a14.4,14.4,0,0,1-8.2-2.5,17.2,17.2,0,0,1-5.5-6.9,24,24,0,0,1-2-9.9v-57a5.1,5.1,0,0,1,5.2-5.2,5,5,0,0,1,3.8,1.5,5,5,0,0,1,1.5,3.7v57a12,12,0,0,0,1.4,6.3c1,1.7,2.2,2.5,3.8,2.5h2.6a4.3,4.3,0,0,1,3.4,1.5,5.7,5.7,0,0,1,1.3,3.7,4.6,4.6,0,0,1-2,3.8,8.1,8.1,0,0,1-5.1,1.5Z" transform="translate(98.5 200.4)" style="stroke: #000;stroke-miterlimit: 10;stroke-width: 3px"/>
        <path d="M789.5,271.8a25.3,25.3,0,0,1-13.6-3.8,28.3,28.3,0,0,1-9.6-10.4,30.7,30.7,0,0,1-3.4-14.7,28.4,28.4,0,0,1,3.8-14.8A27.8,27.8,0,0,1,777,217.7a28.7,28.7,0,0,1,39.5,10.4,29.4,29.4,0,0,1,3.8,14.8h-4.1a29.6,29.6,0,0,1-3.5,14.7,27.2,27.2,0,0,1-9.5,10.4A25.4,25.4,0,0,1,789.5,271.8Zm2.1-9.4a18,18,0,0,0,16.1-9.6,20.2,20.2,0,0,0,2.4-9.9,20.9,20.9,0,0,0-2.4-10.1,19.3,19.3,0,0,0-6.6-7,19.1,19.1,0,0,0-18.9,0,19.5,19.5,0,0,0-6.7,7,20.9,20.9,0,0,0-2.4,10.1,20.2,20.2,0,0,0,2.4,9.9,18.1,18.1,0,0,0,6.7,7A17.7,17.7,0,0,0,791.6,262.4Zm23.4,9.1a4.8,4.8,0,0,1-3.8-1.6,5,5,0,0,1-1.5-3.8V250.2l1.9-11.1,8.7,3.8v23.2a5,5,0,0,1-1.5,3.8A4.9,4.9,0,0,1,815,271.5Z" transform="translate(98.5 200.4)" style="stroke: #000;stroke-miterlimit: 10;stroke-width: 3px"/>
        <path d="M873.2,271.4a5.3,5.3,0,0,1-3.9-1.6,5.5,5.5,0,0,1-1.6-3.9V195.4a5.8,5.8,0,0,1,1.6-4,5.3,5.3,0,0,1,3.9-1.5h18.7a28.6,28.6,0,0,1,13.9,3.3,24,24,0,0,1,9.4,9,25.7,25.7,0,0,1,3.4,13.4,23.3,23.3,0,0,1-3.4,12.6,22.4,22.4,0,0,1-9.4,8.6,29.7,29.7,0,0,1-13.9,3.2H878.6v25.9a5.4,5.4,0,0,1-1.5,3.9A5.3,5.3,0,0,1,873.2,271.4Zm5.4-41.4h13.3a18,18,0,0,0,8.5-1.9,14.1,14.1,0,0,0,5.7-5.1,13.3,13.3,0,0,0,2.1-7.4,15.9,15.9,0,0,0-2.1-8.2,15.1,15.1,0,0,0-5.7-5.5,18.1,18.1,0,0,0-8.5-2H878.6Zm37.8,41.4a5.6,5.6,0,0,1-2.6-.7,5,5,0,0,1-2.1-2L893,238.5l10.5-3L920.6,263a5.6,5.6,0,0,1,.5,5.7A4.8,4.8,0,0,1,916.4,271.4Z" transform="translate(98.5 200.4)" style="stroke: #000;stroke-miterlimit: 10;stroke-width: 3px"/>
        <path d="M956.6,271.9a26.2,26.2,0,0,1-12.9-3.1,22.3,22.3,0,0,1-9-9,29.7,29.7,0,0,1-3.3-14.6V219.5a5.2,5.2,0,0,1,1.5-3.8,5.4,5.4,0,0,1,3.8-1.5,5.4,5.4,0,0,1,3.9,1.5,5.2,5.2,0,0,1,1.5,3.8v25.7a18.4,18.4,0,0,0,2.2,9.6,13.5,13.5,0,0,0,5.9,5.7,19.2,19.2,0,0,0,8.4,1.8,17.1,17.1,0,0,0,8-1.8,15.4,15.4,0,0,0,5.6-4.8,11.6,11.6,0,0,0,2.1-6.8h6.5a22.3,22.3,0,0,1-3.1,11.7,23.9,23.9,0,0,1-8.7,8.3A25.3,25.3,0,0,1,956.6,271.9Zm23-.5a4.9,4.9,0,0,1-3.8-1.6,5,5,0,0,1-1.5-3.8V219.5a5,5,0,0,1,1.5-3.8,5.2,5.2,0,0,1,3.8-1.5,5.3,5.3,0,0,1,3.9,1.5,5.4,5.4,0,0,1,1.4,3.8V266a5.4,5.4,0,0,1-1.4,3.8A5,5,0,0,1,979.6,271.4Z" transform="translate(98.5 200.4)" style="stroke: #000;stroke-miterlimit: 10;stroke-width: 3px"/>
        <path d="M1009,271.5a4.9,4.9,0,0,1-3.8-1.6,5,5,0,0,1-1.5-3.8V219.7a5,5,0,0,1,1.5-3.8,5.2,5.2,0,0,1,3.8-1.5,5.3,5.3,0,0,1,3.9,1.5,5.4,5.4,0,0,1,1.4,3.8v46.4a5.4,5.4,0,0,1-1.4,3.8A5,5,0,0,1,1009,271.5Zm34.8,0a4.9,4.9,0,0,1-3.8-1.6,5,5,0,0,1-1.5-3.8V236.3c0-4.4-1.1-7.6-3.2-9.7a11.8,11.8,0,0,0-8.5-3.2,11.3,11.3,0,0,0-8.9,3.8,13.2,13.2,0,0,0-3.6,9.5h-6.6a25.2,25.2,0,0,1,2.8-11.9,21.4,21.4,0,0,1,28.9-8.4,17.4,17.4,0,0,1,7.2,7.7,26.5,26.5,0,0,1,2.5,12.2v29.8a5.1,5.1,0,0,1-5.3,5.4Zm34.7,0a4.9,4.9,0,0,1-3.8-1.6,5,5,0,0,1-1.5-3.8V236.3c0-4.4-1.1-7.6-3.2-9.7a11.8,11.8,0,0,0-8.5-3.2,11.4,11.4,0,0,0-8.9,3.8,13.6,13.6,0,0,0-3.5,9.5h-8.6a24.1,24.1,0,0,1,2.9-11.9,21.3,21.3,0,0,1,8.2-8.1,24.8,24.8,0,0,1,12-2.9,21.6,21.6,0,0,1,10.6,2.6,17.7,17.7,0,0,1,7.1,7.7,26.5,26.5,0,0,1,2.6,12.2v29.8a5,5,0,0,1-1.5,3.8A5,5,0,0,1,1078.5,271.5Z" transform="translate(98.5 200.4)" style="stroke: #000;stroke-miterlimit: 10;stroke-width: 3px"/>
        <path d="M1125.2,271.8a25.3,25.3,0,0,1-13.6-3.8,28.3,28.3,0,0,1-9.6-10.4,30.7,30.7,0,0,1-3.4-14.7,28.4,28.4,0,0,1,3.8-14.8,27.8,27.8,0,0,1,10.3-10.4,28.7,28.7,0,0,1,39.5,10.4,29.4,29.4,0,0,1,3.8,14.8h-4.1a29.6,29.6,0,0,1-3.5,14.7,27.2,27.2,0,0,1-9.5,10.4A25.4,25.4,0,0,1,1125.2,271.8Zm2.1-9.4a18,18,0,0,0,16.1-9.6,20.2,20.2,0,0,0,2.4-9.9,20.9,20.9,0,0,0-2.4-10.1,19.3,19.3,0,0,0-6.6-7,19.1,19.1,0,0,0-18.9,0,20.4,20.4,0,0,0-6.7,7,20.9,20.9,0,0,0-2.4,10.1,20.2,20.2,0,0,0,2.4,9.9,18.8,18.8,0,0,0,6.7,7A18,18,0,0,0,1127.3,262.4Zm23.4,9.1a4.9,4.9,0,0,1-3.8-1.6,5,5,0,0,1-1.5-3.8V250.2l1.9-11.1,8.7,3.8v23.2a5,5,0,0,1-1.5,3.8A4.9,4.9,0,0,1,1150.7,271.5Z" transform="translate(98.5 200.4)" style="stroke: #000;stroke-miterlimit: 10;stroke-width: 3px"/>
        <path d="M1177.2,250.6a5,5,0,0,1-3.8-1.5,5.3,5.3,0,0,1-1.6-3.8V195.2a5.1,5.1,0,0,1,1.6-3.8,5.3,5.3,0,0,1,9.1,3.8v50.1a5.2,5.2,0,0,1-1.5,3.8A5,5,0,0,1,1177.2,250.6Zm0,20.9a4.8,4.8,0,0,1-3.8-1.6,5.1,5.1,0,0,1-1.6-3.8V219.6a5.1,5.1,0,0,1,1.6-3.8,5.3,5.3,0,0,1,9.1,3.8v46.5a5,5,0,0,1-1.5,3.8A4.8,4.8,0,0,1,1177.2,271.5Zm42.8,0a4.9,4.9,0,0,1-3.8-1.6,5,5,0,0,1-1.5-3.8V240.5c0-4-.7-7.2-2.2-9.7a13.8,13.8,0,0,0-5.9-5.6,19.3,19.3,0,0,0-8.5-1.8,17.3,17.3,0,0,0-7.9,1.8,14.4,14.4,0,0,0-5.6,4.7,11.6,11.6,0,0,0-2.1,6.8h-6.6a22.3,22.3,0,0,1,3.2-11.7,22.9,22.9,0,0,1,8.7-8.2,25.6,25.6,0,0,1,12.4-3,26.2,26.2,0,0,1,12.9,3.1,20.9,20.9,0,0,1,8.9,9,29.7,29.7,0,0,1,3.3,14.6v25.6a5,5,0,0,1-1.5,3.8A4.9,4.9,0,0,1,1220,271.5Z" transform="translate(98.5 200.4)" style="stroke: #000;stroke-miterlimit: 10;stroke-width: 3px"/>
        <path d="M1270.8,199.9a4.5,4.5,0,0,1-3.6-1.4,4.9,4.9,0,0,1-1.4-3.6,5.2,5.2,0,0,1,1.4-3.6,4.9,4.9,0,0,1,3.6-1.4h55.8a4.8,4.8,0,0,1,5,5,4.9,4.9,0,0,1-1.4,3.6,4.8,4.8,0,0,1-3.6,1.4Zm27.9,71.5a5.3,5.3,0,0,1-3.8-1.6,5.1,5.1,0,0,1-1.6-3.9v-76h10.8v76a5.4,5.4,0,0,1-1.5,3.9A5.5,5.5,0,0,1,1298.7,271.4Z" transform="translate(98.5 200.4)" style="stroke: #000;stroke-miterlimit: 10;stroke-width: 3px"/>
        <path d="M1350.6,271.8A25.3,25.3,0,0,1,1337,268a27.2,27.2,0,0,1-9.5-10.4,29.6,29.6,0,0,1-3.5-14.7,28.4,28.4,0,0,1,3.8-14.8,27.8,27.8,0,0,1,10.3-10.4,28.7,28.7,0,0,1,39.5,10.4,29.4,29.4,0,0,1,3.8,14.8h-4.1a29.6,29.6,0,0,1-3.5,14.7,27.2,27.2,0,0,1-9.5,10.4A25.4,25.4,0,0,1,1350.6,271.8Zm2.1-9.4a18,18,0,0,0,16.1-9.6,20.2,20.2,0,0,0,2.4-9.9,20.9,20.9,0,0,0-2.4-10.1,19.3,19.3,0,0,0-6.6-7,19.1,19.1,0,0,0-18.9,0,20.4,20.4,0,0,0-6.7,7,20.9,20.9,0,0,0-2.4,10.1,20.2,20.2,0,0,0,2.4,9.9,18.8,18.8,0,0,0,6.7,7A18,18,0,0,0,1352.7,262.4Zm23.4,9.1a4.9,4.9,0,0,1-3.8-1.6,5,5,0,0,1-1.5-3.8V250.2l2-11.1,8.6,3.8v23.2a5,5,0,0,1-1.5,3.8A4.9,4.9,0,0,1,1376.1,271.5Z" transform="translate(98.5 200.4)" style="stroke: #000;stroke-miterlimit: 10;stroke-width: 3px"/>
        <path d="M1402.6,271.5a4.8,4.8,0,0,1-3.8-1.6,5.1,5.1,0,0,1-1.6-3.8V219.6a5.1,5.1,0,0,1,1.6-3.8,5,5,0,0,1,3.8-1.5,4.9,4.9,0,0,1,3.8,1.5,5,5,0,0,1,1.5,3.8v46.5a5,5,0,0,1-1.5,3.8A4.6,4.6,0,0,1,1402.6,271.5Zm42.8,0a4.9,4.9,0,0,1-3.8-1.6,5,5,0,0,1-1.5-3.8V240.5c0-4-.7-7.2-2.2-9.7a13.3,13.3,0,0,0-5.9-5.6,19,19,0,0,0-8.5-1.8,17.3,17.3,0,0,0-7.9,1.8,14.4,14.4,0,0,0-5.6,4.7,11.6,11.6,0,0,0-2.1,6.8h-6.6a22.3,22.3,0,0,1,3.2-11.7,22.9,22.9,0,0,1,8.7-8.2,25.6,25.6,0,0,1,12.4-3,26.2,26.2,0,0,1,12.9,3.1,21.7,21.7,0,0,1,9,9,30.9,30.9,0,0,1,3.2,14.6v25.6a5,5,0,0,1-1.5,3.8A4.9,4.9,0,0,1,1445.4,271.5Z" transform="translate(98.5 200.4)" style="stroke: #000;stroke-miterlimit: 10;stroke-width: 3px"/>
        <path d="M1492.1,271.8a25.3,25.3,0,0,1-23.2-13.9,31.9,31.9,0,0,1-3.5-15,31,31,0,0,1,3.7-15.1,27.7,27.7,0,0,1,10.2-10.2,29.2,29.2,0,0,1,14.9-3.7,28.8,28.8,0,0,1,14.8,3.7,27.7,27.7,0,0,1,10.2,10.2,31,31,0,0,1,3.7,15.1h-6.2a33.1,33.1,0,0,1-3.2,15,25.6,25.6,0,0,1-8.7,10.2A22.6,22.6,0,0,1,1492.1,271.8ZM1494,295a34.3,34.3,0,0,1-13.9-2.9,29.1,29.1,0,0,1-10.9-8.5,4.7,4.7,0,0,1-1-3.7,4.4,4.4,0,0,1,2-3,5.2,5.2,0,0,1,3.9-.9,5.3,5.3,0,0,1,3.3,2.1,20.6,20.6,0,0,0,7.1,5.6,23.3,23.3,0,0,0,9.7,1.9,18.3,18.3,0,0,0,9.2-2.4,17,17,0,0,0,6.8-7,25.4,25.4,0,0,0,2.5-11.5V249.9l3.4-9.2,6.8,2.2v22.5a30.3,30.3,0,0,1-3.7,15,28.1,28.1,0,0,1-10.1,10.7A29,29,0,0,1,1494,295Zm.2-32.6a18.1,18.1,0,0,0,9.6-2.5,17.3,17.3,0,0,0,6.5-6.9,20.7,20.7,0,0,0,2.4-10.1,21.3,21.3,0,0,0-2.4-10.2,17.3,17.3,0,0,0-6.5-6.9,18.5,18.5,0,0,0-25.8,6.9,22.5,22.5,0,0,0-2.3,10.2A21.8,21.8,0,0,0,1478,253a17.8,17.8,0,0,0,16.2,9.4Z" transform="translate(98.5 200.4)" style="stroke: #000;stroke-miterlimit: 10;stroke-width: 3px"/>
        <path d="M1562.5,271.8a26.4,26.4,0,0,1-13.8-3.7,26.7,26.7,0,0,1-9.5-10.2,33.1,33.1,0,0,1-3.4-15,29.9,29.9,0,0,1,3.7-15.1,27.7,27.7,0,0,1,10.2-10.2,31.7,31.7,0,0,1,29.7,0,27.7,27.7,0,0,1,10.2,10.2,31,31,0,0,1,3.7,15.1h-6.2a34.4,34.4,0,0,1-3.2,15,25.6,25.6,0,0,1-8.7,10.2A22.8,22.8,0,0,1,1562.5,271.8Zm1.9,23.2a33.9,33.9,0,0,1-13.9-2.9,28.4,28.4,0,0,1-10.9-8.5,4.3,4.3,0,0,1-1-3.7,4.4,4.4,0,0,1,2-3,5.2,5.2,0,0,1,3.9-.9,5.3,5.3,0,0,1,3.3,2.1,19.7,19.7,0,0,0,7.1,5.6,23,23,0,0,0,9.7,1.9,18.3,18.3,0,0,0,9.2-2.4,16.8,16.8,0,0,0,6.7-7,24.1,24.1,0,0,0,2.5-11.5V249.9l3.5-9.2,6.8,2.2v22.5a31.4,31.4,0,0,1-3.7,15,27.6,27.6,0,0,1-10.2,10.7A28.4,28.4,0,0,1,1564.4,295Zm.2-32.6a17.5,17.5,0,0,0,16.1-9.4,20.6,20.6,0,0,0,2.3-10.1,21.3,21.3,0,0,0-2.3-10.2,18.9,18.9,0,0,0-25.7-6.9,18.2,18.2,0,0,0-6.6,6.9,21.3,21.3,0,0,0-2.4,10.2,20.7,20.7,0,0,0,2.4,10.1,17.8,17.8,0,0,0,16.2,9.4Z" transform="translate(98.5 200.4)" style="stroke: #000;stroke-miterlimit: 10;stroke-width: 3px"/>
        <path d="M1632.9,271.8a25.4,25.4,0,0,1-13.7-3.8,27.2,27.2,0,0,1-9.5-10.4,29.6,29.6,0,0,1-3.5-14.7,28.6,28.6,0,0,1,14.1-25.2,28.7,28.7,0,0,1,14.7-3.8,28.3,28.3,0,0,1,14.5,3.8,27.8,27.8,0,0,1,10.3,10.4,28.4,28.4,0,0,1,3.8,14.8h-4a30.7,30.7,0,0,1-3.5,14.7,27.5,27.5,0,0,1-9.6,10.4A25.3,25.3,0,0,1,1632.9,271.8Zm2.1-9.4a17.5,17.5,0,0,0,9.4-2.6,17.8,17.8,0,0,0,6.6-7,20.2,20.2,0,0,0,2.4-9.9,20.9,20.9,0,0,0-2.4-10.1,19.3,19.3,0,0,0-6.6-7,17.4,17.4,0,0,0-9.4-2.5,18,18,0,0,0-9.5,2.5,20.4,20.4,0,0,0-6.7,7,20.9,20.9,0,0,0-2.4,10.1,20.2,20.2,0,0,0,2.4,9.9,18.8,18.8,0,0,0,6.7,7A18.1,18.1,0,0,0,1635,262.4Zm23.3,9.1a4.9,4.9,0,0,1-3.8-1.6,5,5,0,0,1-1.5-3.8V250.2l2-11.1,8.6,3.8v23.2a5,5,0,0,1-1.5,3.8A4.9,4.9,0,0,1,1658.3,271.5Z" transform="translate(98.5 200.4)" style="stroke: #000;stroke-miterlimit: 10;stroke-width: 3px"/>
      </g>
    </g>
  </g>
</svg>
