<svg xmlns="http://www.w3.org/2000/svg" xmlns:xlink="http://www.w3.org/1999/xlink" viewBox="0 0 2190.9 1077.8">
  <defs>
    <clipPath id="ac061e32-45c8-4d0b-b311-4560fa5fb53d" transform="translate(98.5 397.4)">
      <rect width="1920" height="480" transform="translate(1920 480) rotate(180)" style="fill: none"/>
    </clipPath>
    <linearGradient id="b6dec7e8-fdee-40ac-a5a0-3755b63d8ec5" data-name="Degradado sin nombre 2" x1="1355.25" y1="88.21" x2="1920" y2="88.21" gradientTransform="translate(1920 480) rotate(180)" gradientUnits="userSpaceOnUse">
      <stop offset="0" stop-color="#f59b26"/>
      <stop offset="1" stop-color="#f4c236"/>
    </linearGradient>
    <linearGradient id="a3947b2e-747b-49a7-a36a-e4465ac1436e" x1="305.39" y1="390.06" x2="870.14" y2="390.06" gradientTransform="matrix(1.27, -0.59, 0.45, 0.97, 788.06, -64.63)" xlink:href="#b6dec7e8-fdee-40ac-a5a0-3755b63d8ec5"/>
    <linearGradient id="f1d20da5-b631-4dc4-9604-353f8d3dcec2" x1="462.85" y1="55.69" x2="1089.31" y2="55.69" xlink:href="#b6dec7e8-fdee-40ac-a5a0-3755b63d8ec5"/>
  </defs>
  <g style="isolation: isolate">
    <g id="ee1e0c5a-cbed-4b23-b0d8-da94431d150b" data-name="BACKGROUND">
      <rect x="98.5" y="397.4" width="1920" height="480" style="fill: #f7931e"/>
    </g>
    <g id="a20bda93-d589-4ef3-82cf-217beb4d704a" data-name="OBJECTS">
      <g style="clip-path: url(#ac061e32-45c8-4d0b-b311-4560fa5fb53d)">
        <g>
          <path d="M416.1,680.4c45.6-4.8,86.6-33.8,111.9-72,19.9-30.1,29.9-67.1,35.3-102.5,17.2-111.8-125.7-116.3-162.5-203.5-12-28.2-17.4-58.7-25.5-88.3C355.1,139.5,297,91.3,216.5,105.8,147.1,118.3,82.2,169.7,47.3,229.9,4.4,304.1-5.2,393.6,2.3,479c5.1,59,21.4,122.9,69.6,157.4,30,21.4,67.9,28,104.5,32.7,41.4,5.3,83.8,9,124.4-.6,23.7-5.5,46.3-15.4,70.2-19.5a149.5,149.5,0,0,1,99.1,17.7" transform="translate(98.5 397.4)" style="fill: url(#b6dec7e8-fdee-40ac-a5a0-3755b63d8ec5)"/>
          <path d="M1411.7-235.4c-55.7,31.7-94.8,84.2-109.6,136.3-11.6,41.1-7.6,83.1,1.5,120.7,29,119,212.8,38.5,299.3,101.5,27.9,20.4,48.7,46.8,72.4,70.8,59.7,60.6,155.5,73,251.2,11.1,82.6-53.4,141.9-142,158.9-221.2,20.9-97.7-7.6-190.4-55.8-269.1-33.3-54.3-83-106.8-160-111.7-47.9-3.1-99.1,13-147.8,30.2-55,19.4-110.7,41-158,74.4-27.6,19.4-51.8,42.5-80.5,60.7-40.3,25.6-88.6,40.6-134,41.6" transform="translate(98.5 397.4)" style="fill: url(#a3947b2e-747b-49a7-a36a-e4465ac1436e)"/>
          <path d="M850.5,530.5c-23.5-45.7-31.6-99,6.9-139,26.2-27.2,68.3-39.3,105.2-32.1,39.4,7.8,69.4,41.9,110.3,44.4,35.2,2.2,55.3-21.4,77.9-44a365.4,365.4,0,0,1,54.6-44.6c51.4-34.2,136.2-75.6,197.4-43.5,26.9,14.1,43.5,43.1,49.7,72.9,10.9,52,2,115.1-20.8,162.9-39.2,82.3-179.8,49.1-251.3,56.8-53.6,5.8-107.6,5.5-161.3,8.6-26.6,1.6-53.3,3.6-79.5,8.2-14.1,2.4-33,11.1-47.2,5.5C873.3,579,859.3,547.6,850.5,530.5Z" transform="translate(98.5 397.4)" style="fill: url(#f1d20da5-b631-4dc4-9604-353f8d3dcec2)"/>
          <g>
            <path d="M1921.5,266.2a79.8,79.8,0,0,1,29.8,8.3l16.5,8.3-27.9,342-440.2-18.4-1-25.4c-1-29.5-2.3-63,6.1-95.6,10.1-39.7,33.8-71.3,65-86.7,27.9-13.8,58-13.3,84.4-12.8,9,.1,17.5.3,25.7-.1a180.6,180.6,0,0,0,109.3-43.5c7-6,13.7-12.7,20.8-19.8,11.9-12,24.3-24.3,39.4-34.8C1872.2,271.9,1897.8,264.3,1921.5,266.2Z" transform="translate(98.5 397.4)" style="fill: none;stroke: #fcfcfc;stroke-miterlimit: 10;stroke-width: 5px"/>
            <path d="M1523.2,566.1c-1-29.4-2.1-59.3,5.2-87.8s24.2-55.9,50.6-68.9c30.1-14.8,65.7-8.6,99.2-10.1a209.1,209.1,0,0,0,126-50.1c19.8-17.1,36.4-37.9,57.9-52.8s50.5-23.1,73.8-11.3l-24.2,297.3Z" transform="translate(98.5 397.4)" style="fill: #ef4136"/>
          </g>
          <polygon points="553.2 628 596.5 615.6 585.6 659.2 553.2 628" style="fill: none;stroke: #fcfcfc;stroke-miterlimit: 10;stroke-width: 5px"/>
          <g style="mix-blend-mode: screen">
            <g>
              <path d="M1348.7,544.2a5.8,5.8,0,1,1-5.8,5.7A5.8,5.8,0,0,1,1348.7,544.2Z" transform="translate(98.5 397.4)" style="fill: #ffaf12"/>
              <path d="M1348.7,511.4a5.7,5.7,0,1,1-5.8,5.7A5.7,5.7,0,0,1,1348.7,511.4Z" transform="translate(98.5 397.4)" style="fill: #ffaf12"/>
              <path d="M1348.7,478.5a5.8,5.8,0,1,1-5.8,5.8A5.8,5.8,0,0,1,1348.7,478.5Z" transform="translate(98.5 397.4)" style="fill: #ffaf12"/>
              <circle cx="1447.2" cy="848.8" r="5.7" style="fill: #ffaf12"/>
              <circle cx="1447.2" cy="816" r="5.7" style="fill: #ffaf12"/>
              <circle cx="1447.2" cy="783.1" r="5.7" style="fill: #ffaf12"/>
            </g>
            <g>
              <path d="M1377.3,544.2a5.8,5.8,0,1,1-5.7,5.7A5.7,5.7,0,0,1,1377.3,544.2Z" transform="translate(98.5 397.4)" style="fill: #ffaf12"/>
              <path d="M1377.3,511.4a5.7,5.7,0,1,1-5.7,5.7A5.6,5.6,0,0,1,1377.3,511.4Z" transform="translate(98.5 397.4)" style="fill: #ffaf12"/>
              <path d="M1377.3,478.5a5.8,5.8,0,1,1-5.7,5.8A5.7,5.7,0,0,1,1377.3,478.5Z" transform="translate(98.5 397.4)" style="fill: #ffaf12"/>
              <circle cx="1475.8" cy="848.8" r="5.7" style="fill: #ffaf12"/>
              <circle cx="1475.8" cy="816" r="5.7" style="fill: #ffaf12"/>
              <circle cx="1475.8" cy="783.1" r="5.7" style="fill: #ffaf12"/>
            </g>
            <g>
              <path d="M1405.9,544.2a5.8,5.8,0,1,1-5.7,5.7A5.8,5.8,0,0,1,1405.9,544.2Z" transform="translate(98.5 397.4)" style="fill: #ffaf12"/>
              <path d="M1405.9,511.4a5.7,5.7,0,1,1-5.7,5.7A5.7,5.7,0,0,1,1405.9,511.4Z" transform="translate(98.5 397.4)" style="fill: #ffaf12"/>
              <path d="M1405.9,478.5a5.8,5.8,0,1,1-5.7,5.8A5.8,5.8,0,0,1,1405.9,478.5Z" transform="translate(98.5 397.4)" style="fill: #ffaf12"/>
              <circle cx="1504.5" cy="848.8" r="5.7" style="fill: #ffaf12"/>
              <circle cx="1504.5" cy="816" r="5.7" style="fill: #ffaf12"/>
              <circle cx="1504.5" cy="783.1" r="5.7" style="fill: #ffaf12"/>
            </g>
          </g>
          <g style="mix-blend-mode: screen">
            <g>
              <path d="M113.3,309a5.7,5.7,0,1,1-5.7-5.7A5.6,5.6,0,0,1,113.3,309Z" transform="translate(98.5 397.4)" style="fill: #ffaf12"/>
              <path d="M146.2,309a5.8,5.8,0,1,1-5.8-5.7A5.7,5.7,0,0,1,146.2,309Z" transform="translate(98.5 397.4)" style="fill: #ffaf12"/>
              <path d="M179,309a5.8,5.8,0,1,1-5.7-5.7A5.7,5.7,0,0,1,179,309Z" transform="translate(98.5 397.4)" style="fill: #ffaf12"/>
              <path d="M211.9,309a5.8,5.8,0,1,1-5.8-5.7A5.7,5.7,0,0,1,211.9,309Z" transform="translate(98.5 397.4)" style="fill: #ffaf12"/>
              <path d="M244.7,309a5.8,5.8,0,1,1-5.7-5.7A5.7,5.7,0,0,1,244.7,309Z" transform="translate(98.5 397.4)" style="fill: #ffaf12"/>
              <path d="M277.5,309a5.7,5.7,0,1,1-5.7-5.7A5.6,5.6,0,0,1,277.5,309Z" transform="translate(98.5 397.4)" style="fill: #ffaf12"/>
            </g>
            <g>
              <circle cx="206.1" cy="735" r="5.7" style="fill: #ffaf12"/>
              <circle cx="239" cy="735" r="5.7" style="fill: #ffaf12"/>
              <path d="M179,337.6a5.8,5.8,0,1,1-5.7-5.7A5.8,5.8,0,0,1,179,337.6Z" transform="translate(98.5 397.4)" style="fill: #ffaf12"/>
              <path d="M211.9,337.6a5.8,5.8,0,1,1-5.8-5.7A5.8,5.8,0,0,1,211.9,337.6Z" transform="translate(98.5 397.4)" style="fill: #ffaf12"/>
              <path d="M244.7,337.6a5.8,5.8,0,1,1-5.7-5.7A5.8,5.8,0,0,1,244.7,337.6Z" transform="translate(98.5 397.4)" style="fill: #ffaf12"/>
              <circle cx="370.3" cy="735" r="5.7" style="fill: #ffaf12"/>
            </g>
            <g>
              <circle cx="206.1" cy="763.7" r="5.7" style="fill: #ffaf12"/>
              <circle cx="239" cy="763.7" r="5.7" style="fill: #ffaf12"/>
              <path d="M179,366.3a5.8,5.8,0,1,1-5.7-5.8A5.8,5.8,0,0,1,179,366.3Z" transform="translate(98.5 397.4)" style="fill: #ffaf12"/>
              <path d="M211.9,366.3a5.8,5.8,0,1,1-5.8-5.8A5.8,5.8,0,0,1,211.9,366.3Z" transform="translate(98.5 397.4)" style="fill: #ffaf12"/>
              <path d="M244.7,366.3a5.8,5.8,0,1,1-5.7-5.8A5.8,5.8,0,0,1,244.7,366.3Z" transform="translate(98.5 397.4)" style="fill: #ffaf12"/>
              <circle cx="370.3" cy="763.7" r="5.7" style="fill: #ffaf12"/>
            </g>
          </g>
          <g style="mix-blend-mode: screen">
            <g>
              <circle cx="1897.9" cy="582.7" r="5.7" style="fill: #ffaf12"/>
              <circle cx="1897.9" cy="549.9" r="5.7" style="fill: #ffaf12"/>
              <path d="M1799.3,113.9a5.8,5.8,0,1,1,0,11.5,5.8,5.8,0,0,1,0-11.5Z" transform="translate(98.5 397.4)" style="fill: #ffaf12"/>
              <path d="M1799.3,81.1a5.7,5.7,0,1,1,0,11.4,5.7,5.7,0,0,1,0-11.4Z" transform="translate(98.5 397.4)" style="fill: #ffaf12"/>
              <path d="M1799.3,48.2a5.8,5.8,0,1,1,0,11.5,5.8,5.8,0,0,1,0-11.5Z" transform="translate(98.5 397.4)" style="fill: #ffaf12"/>
              <path d="M1799.3,15.4a5.7,5.7,0,1,1,0,11.4,5.7,5.7,0,0,1,0-11.4Z" transform="translate(98.5 397.4)" style="fill: #ffaf12"/>
            </g>
            <g>
              <path d="M1827.9,179.6a5.8,5.8,0,1,1-5.7,5.7A5.8,5.8,0,0,1,1827.9,179.6Z" transform="translate(98.5 397.4)" style="fill: #ffaf12"/>
              <path d="M1827.9,146.7a5.8,5.8,0,1,1-5.7,5.8A5.8,5.8,0,0,1,1827.9,146.7Z" transform="translate(98.5 397.4)" style="fill: #ffaf12"/>
              <path d="M1827.9,113.9a5.8,5.8,0,1,1-5.7,5.7A5.8,5.8,0,0,1,1827.9,113.9Z" transform="translate(98.5 397.4)" style="fill: #ffaf12"/>
              <path d="M1827.9,81.1a5.7,5.7,0,1,1-5.7,5.7A5.7,5.7,0,0,1,1827.9,81.1Z" transform="translate(98.5 397.4)" style="fill: #ffaf12"/>
              <path d="M1827.9,48.2a5.8,5.8,0,1,1-5.7,5.7A5.8,5.8,0,0,1,1827.9,48.2Z" transform="translate(98.5 397.4)" style="fill: #ffaf12"/>
              <path d="M1827.9,15.4a5.7,5.7,0,1,1-5.7,5.7A5.7,5.7,0,0,1,1827.9,15.4Z" transform="translate(98.5 397.4)" style="fill: #ffaf12"/>
            </g>
            <g>
              <path d="M1856.6,179.6a5.8,5.8,0,1,1-5.8,5.7A5.8,5.8,0,0,1,1856.6,179.6Z" transform="translate(98.5 397.4)" style="fill: #ffaf12"/>
              <path d="M1856.6,146.7a5.8,5.8,0,1,1-5.8,5.8A5.8,5.8,0,0,1,1856.6,146.7Z" transform="translate(98.5 397.4)" style="fill: #ffaf12"/>
              <path d="M1856.6,113.9a5.8,5.8,0,1,1-5.8,5.7A5.8,5.8,0,0,1,1856.6,113.9Z" transform="translate(98.5 397.4)" style="fill: #ffaf12"/>
              <path d="M1856.6,81.1a5.7,5.7,0,1,1-5.8,5.7A5.7,5.7,0,0,1,1856.6,81.1Z" transform="translate(98.5 397.4)" style="fill: #ffaf12"/>
              <path d="M1856.6,48.2a5.8,5.8,0,1,1-5.8,5.7A5.8,5.8,0,0,1,1856.6,48.2Z" transform="translate(98.5 397.4)" style="fill: #ffaf12"/>
              <path d="M1856.6,15.4a5.7,5.7,0,1,1-5.8,5.7A5.7,5.7,0,0,1,1856.6,15.4Z" transform="translate(98.5 397.4)" style="fill: #ffaf12"/>
            </g>
          </g>
          <circle cx="1650.6" cy="92.5" r="17.3" transform="translate(1279.8 2075.1) rotate(-76.7)" style="fill: none;stroke: #fcfcfc;stroke-miterlimit: 10;stroke-width: 5px"/>
          <circle cx="1134.8" cy="437.1" r="10.8" style="fill: none;stroke: #fcfcfc;stroke-miterlimit: 10;stroke-width: 5px"/>
          <circle cx="1235.1" cy="381.2" r="10.8" transform="translate(576.9 1826.5) rotate(-71.3)" style="fill: none;stroke: #fcfcfc;stroke-miterlimit: 10;stroke-width: 5px"/>
          <circle cx="757.7" cy="599.3" r="10.8" style="fill: none;stroke: #fcfcfc;stroke-miterlimit: 10;stroke-width: 5px"/>
          <circle cx="189.6" cy="469" r="10.8" transform="translate(-177.6 668.9) rotate(-45)" style="fill: none;stroke: #fcfcfc;stroke-miterlimit: 10;stroke-width: 5px"/>
          <path d="M1235.1,86.8a5,5,0,0,1,5-5,5,5,0,0,1,5,5,5,5,0,0,1-5,5A5.1,5.1,0,0,1,1235.1,86.8Z" transform="translate(98.5 397.4)" style="fill: #fcfcfc"/>
          <path d="M1662.9,303.3a5,5,0,1,1,5,4.9A5,5,0,0,1,1662.9,303.3Z" transform="translate(98.5 397.4)" style="fill: #fcfcfc"/>
          <path d="M830.3,86.8a5,5,0,1,1,9.9,0,5,5,0,1,1-9.9,0Z" transform="translate(98.5 397.4)" style="fill: #fcfcfc"/>
          <path d="M622.7,391.8a5,5,0,1,1,5,5A5,5,0,0,1,622.7,391.8Z" transform="translate(98.5 397.4)" style="fill: #fcfcfc"/>
          <g>
            <path d="M-23.7,313.5a124.9,124.9,0,0,1-46.5-12.9l-25.7-13,43.5-533.7,686.6,28.7,1.4,39.6c1.7,46.1,3.7,98.3-9.3,149.1C610.4,33.4,573.4,82.7,524.8,106.7c-43.6,21.5-90.4,20.8-131.7,20.1-14-.3-27.3-.5-40,.1a281.3,281.3,0,0,0-170.5,67.8c-10.9,9.4-21.4,19.9-32.4,31-18.7,18.6-37.9,37.9-61.5,54.2C53.2,304.6,13.2,316.5-23.7,313.5Z" transform="translate(98.5 397.4)" style="fill: none;stroke: #fcfcfc;stroke-miterlimit: 10;stroke-width: 5px"/>
            <path d="M608.4-161.4c1.7,46.5,3.3,93.8-8.2,138.9S561.8,66.1,520.1,86.7c-47.7,23.5-104.1,13.6-157.2,16a331.4,331.4,0,0,0-199.6,79.4c-31.4,27.1-57.7,60.1-91.8,83.7s-80,36.6-116.9,17.9l38.3-471Z" transform="translate(98.5 397.4)" style="fill: #ef4136"/>
          </g>
        </g>
      </g>
    </g>
    <g id="a385407c-9b0b-406d-aa52-04093eed522a" data-name="TEXTS">
      <g>
        <path d="M273.4,272.4a43.7,43.7,0,0,1-16.8-3.1,36.9,36.9,0,0,1-13.1-8.6,39.9,39.9,0,0,1-8.5-13.3,48.5,48.5,0,0,1,0-33.6,39.5,39.5,0,0,1,8.5-13.2,36.9,36.9,0,0,1,13.1-8.6,43.7,43.7,0,0,1,16.8-3.1,42.8,42.8,0,0,1,16.7,3.1,38.7,38.7,0,0,1,13.1,8.6,38,38,0,0,1,8.5,13.2,47.1,47.1,0,0,1,0,33.6,37.6,37.6,0,0,1-21.6,21.9A42.8,42.8,0,0,1,273.4,272.4Zm0-9.8a29.9,29.9,0,0,0,12.4-2.5,29.4,29.4,0,0,0,9.9-6.7,29.9,29.9,0,0,0,6.4-10.2,37.2,37.2,0,0,0,0-25.2,29.9,29.9,0,0,0-6.4-10.2,29.4,29.4,0,0,0-9.9-6.7,31.5,31.5,0,0,0-12.4-2.4,32,32,0,0,0-12.5,2.4,29,29,0,0,0-9.8,6.7,31.5,31.5,0,0,0-6.4,10.2,35.7,35.7,0,0,0,0,25.2,31.5,31.5,0,0,0,6.4,10.2,29,29,0,0,0,9.8,6.7A30.3,30.3,0,0,0,273.4,262.6Z" transform="translate(98.5 397.4)" style="stroke: #000;stroke-miterlimit: 10;stroke-width: 3px"/>
        <path d="M335.9,271.4a5.6,5.6,0,0,1-3.8-1.3,5.4,5.4,0,0,1-1.4-4V219.5a4.8,4.8,0,0,1,5.2-5.2,5.4,5.4,0,0,1,3.9,1.3,5.3,5.3,0,0,1,1.3,3.9v46.6a5.3,5.3,0,0,1-1.3,3.9A5,5,0,0,1,335.9,271.4Zm-.1-35.7a20.3,20.3,0,0,1,3.1-11.2,22.5,22.5,0,0,1,8.3-7.9,23.7,23.7,0,0,1,11.5-2.9c4.1,0,7.2.7,9.3,2s2.8,3,2.3,4.9a3.6,3.6,0,0,1-1.2,2.2,3.8,3.8,0,0,1-2,1,5.3,5.3,0,0,1-2.5-.1,28.7,28.7,0,0,0-12-.2,16.8,16.8,0,0,0-8.4,4.3,11,11,0,0,0-3.1,7.9Z" transform="translate(98.5 397.4)" style="stroke: #000;stroke-miterlimit: 10;stroke-width: 3px"/>
        <path d="M401,271.8a25.7,25.7,0,0,1-13.7-3.8,27.2,27.2,0,0,1-9.5-10.4,30.7,30.7,0,0,1-3.5-14.7,29.4,29.4,0,0,1,3.8-14.8,28.5,28.5,0,0,1,10.3-10.4,29,29,0,0,1,14.7-3.8,28.6,28.6,0,0,1,14.6,3.8,28.8,28.8,0,0,1,14,25.2h-4a30.7,30.7,0,0,1-3.5,14.7,27.5,27.5,0,0,1-9.6,10.4A25.1,25.1,0,0,1,401,271.8Zm2.1-9.4a18.1,18.1,0,0,0,9.5-2.6,18.3,18.3,0,0,0,6.5-7,20.2,20.2,0,0,0,2.4-9.9,20.9,20.9,0,0,0-2.4-10.1,19.9,19.9,0,0,0-6.5-7,19.3,19.3,0,0,0-19,0,19.3,19.3,0,0,0-6.6,7,19.9,19.9,0,0,0-2.5,10.1,19.2,19.2,0,0,0,2.5,9.9,17.8,17.8,0,0,0,6.6,7A18.1,18.1,0,0,0,403.1,262.4Zm23.3,9.1a4.9,4.9,0,0,1-3.8-1.6,5,5,0,0,1-1.5-3.8V250.2l2-11.1,8.6,3.8v23.2a5,5,0,0,1-1.5,3.8A4.9,4.9,0,0,1,426.4,271.5Z" transform="translate(98.5 397.4)" style="stroke: #000;stroke-miterlimit: 10;stroke-width: 3px"/>
        <path d="M452.9,271.5a4.9,4.9,0,0,1-3.8-1.6,5,5,0,0,1-1.5-3.8V219.6a5,5,0,0,1,1.5-3.8,5.2,5.2,0,0,1,3.8-1.5,5.3,5.3,0,0,1,3.9,1.5,5.4,5.4,0,0,1,1.4,3.8v46.5a5.4,5.4,0,0,1-1.4,3.8A5,5,0,0,1,452.9,271.5Zm42.8,0a5.3,5.3,0,0,1-5.3-5.4V240.5c0-4-.7-7.2-2.2-9.7a13.6,13.6,0,0,0-5.8-5.6,19.3,19.3,0,0,0-8.5-1.8,17.4,17.4,0,0,0-8,1.8,15.2,15.2,0,0,0-5.6,4.7,11.6,11.6,0,0,0-2.1,6.8h-6.6a22.3,22.3,0,0,1,3.2-11.7,22.9,22.9,0,0,1,8.7-8.2,25.8,25.8,0,0,1,12.4-3,26.2,26.2,0,0,1,12.9,3.1,21.7,21.7,0,0,1,9,9,29.7,29.7,0,0,1,3.3,14.6v25.6a5,5,0,0,1-1.5,3.8A5.1,5.1,0,0,1,495.7,271.5Z" transform="translate(98.5 397.4)" style="stroke: #000;stroke-miterlimit: 10;stroke-width: 3px"/>
        <path d="M542.5,271.8a25.3,25.3,0,0,1-23.3-13.9,31.9,31.9,0,0,1-3.4-15,29.9,29.9,0,0,1,3.7-15.1,26.7,26.7,0,0,1,10.1-10.2,29.2,29.2,0,0,1,14.9-3.7,28.8,28.8,0,0,1,14.8,3.7,27,27,0,0,1,10.2,10.2,29.9,29.9,0,0,1,3.7,15.1h-6.1a34.4,34.4,0,0,1-3.2,15,25.6,25.6,0,0,1-8.7,10.2A22.8,22.8,0,0,1,542.5,271.8Zm1.8,23.2a33.8,33.8,0,0,1-13.8-2.9,29.4,29.4,0,0,1-11-8.5,4.7,4.7,0,0,1-1-3.7,4.6,4.6,0,0,1,2.1-3,5,5,0,0,1,3.9-.9,5.9,5.9,0,0,1,3.3,2.1,19.3,19.3,0,0,0,7,5.6,23.3,23.3,0,0,0,9.7,1.9,18.4,18.4,0,0,0,9.3-2.4,17.4,17.4,0,0,0,6.7-7,24.1,24.1,0,0,0,2.5-11.5V249.9l3.4-9.2,6.8,2.2v22.5a31.4,31.4,0,0,1-3.6,15,29.1,29.1,0,0,1-10.2,10.7A28.8,28.8,0,0,1,544.3,295Zm.2-32.6a17.6,17.6,0,0,0,9.6-2.5,17.3,17.3,0,0,0,6.5-6.9,20.7,20.7,0,0,0,2.4-10.1,21.3,21.3,0,0,0-2.4-10.2,17.3,17.3,0,0,0-6.5-6.9,17.6,17.6,0,0,0-9.6-2.5,18.1,18.1,0,0,0-9.6,2.5,18.8,18.8,0,0,0-6.5,6.9,21.3,21.3,0,0,0-2.4,10.2,20.7,20.7,0,0,0,2.4,10.1,18.8,18.8,0,0,0,6.5,6.9A18.1,18.1,0,0,0,544.5,262.4Z" transform="translate(98.5 397.4)" style="stroke: #000;stroke-miterlimit: 10;stroke-width: 3px"/>
        <path d="M639.9,272.4a26,26,0,0,1-12.9-3.2,22.8,22.8,0,0,1-8.9-8.8,26.6,26.6,0,0,1-3.2-13,5,5,0,0,1,1.6-3.9,5.2,5.2,0,0,1,3.8-1.5,5.3,5.3,0,0,1,3.9,1.5,5,5,0,0,1,1.6,3.9,16.7,16.7,0,0,0,1.8,7.9,14.4,14.4,0,0,0,19.7,5.4,13.3,13.3,0,0,0,5.1-5.4,16.7,16.7,0,0,0,1.8-7.9v-52a5.7,5.7,0,0,1,1.5-4,5.2,5.2,0,0,1,3.8-1.5,5.5,5.5,0,0,1,4,1.5,5.8,5.8,0,0,1,1.6,4v52a25.6,25.6,0,0,1-3.3,13,23.2,23.2,0,0,1-8.8,8.8A26.5,26.5,0,0,1,639.9,272.4Z" transform="translate(98.5 397.4)" style="stroke: #000;stroke-miterlimit: 10;stroke-width: 3px"/>
        <path d="M708.6,271.8A25.3,25.3,0,0,1,695,268a28.3,28.3,0,0,1-9.6-10.4,30.7,30.7,0,0,1-3.4-14.7,28.4,28.4,0,0,1,3.8-14.8,27.8,27.8,0,0,1,10.3-10.4,28.7,28.7,0,0,1,39.5,10.4,29.4,29.4,0,0,1,3.8,14.8h-4.1a29.6,29.6,0,0,1-3.5,14.7,27.2,27.2,0,0,1-9.5,10.4A25.4,25.4,0,0,1,708.6,271.8Zm2.1-9.4a18,18,0,0,0,16.1-9.6,20.2,20.2,0,0,0,2.4-9.9,20.9,20.9,0,0,0-2.4-10.1,19.3,19.3,0,0,0-6.6-7,19.1,19.1,0,0,0-18.9,0,19.5,19.5,0,0,0-6.7,7,20.9,20.9,0,0,0-2.4,10.1,20.2,20.2,0,0,0,2.4,9.9,18.1,18.1,0,0,0,6.7,7A17.7,17.7,0,0,0,710.7,262.4Zm23.4,9.1a4.8,4.8,0,0,1-3.8-1.6,5,5,0,0,1-1.5-3.8V250.2l1.9-11.1,8.7,3.8v23.2a5,5,0,0,1-1.5,3.8A4.9,4.9,0,0,1,734.1,271.5Z" transform="translate(98.5 397.4)" style="stroke: #000;stroke-miterlimit: 10;stroke-width: 3px"/>
        <path d="M768.8,271.4a13.9,13.9,0,0,1-8.1-2.5,17.5,17.5,0,0,1-5.6-6.9,24,24,0,0,1-1.9-9.9v-57a4.9,4.9,0,0,1,1.4-3.7,5,5,0,0,1,3.8-1.5,5.1,5.1,0,0,1,5.2,5.2v57a13.1,13.1,0,0,0,1.4,6.3,4.4,4.4,0,0,0,3.8,2.5h2.6a4.3,4.3,0,0,1,3.4,1.5,5.2,5.2,0,0,1,1.3,3.7,4.6,4.6,0,0,1-2,3.8,8.1,8.1,0,0,1-5.1,1.5Z" transform="translate(98.5 397.4)" style="stroke: #000;stroke-miterlimit: 10;stroke-width: 3px"/>
        <path d="M807.2,271.8a25.4,25.4,0,0,1-13.7-3.8,27.2,27.2,0,0,1-9.5-10.4,29.6,29.6,0,0,1-3.5-14.7,29,29,0,0,1,43.3-25.2,27.8,27.8,0,0,1,10.3,10.4,29.4,29.4,0,0,1,3.8,14.8h-4a30.7,30.7,0,0,1-3.5,14.7,28.3,28.3,0,0,1-9.6,10.4A25.3,25.3,0,0,1,807.2,271.8Zm2-9.4a17.6,17.6,0,0,0,9.5-2.6,17.8,17.8,0,0,0,6.6-7,20.2,20.2,0,0,0,2.4-9.9,20.9,20.9,0,0,0-2.4-10.1,19.3,19.3,0,0,0-6.6-7,17.5,17.5,0,0,0-9.5-2.5,17.9,17.9,0,0,0-9.4,2.5,20.4,20.4,0,0,0-6.7,7,20.9,20.9,0,0,0-2.4,10.1,20.2,20.2,0,0,0,2.4,9.9,18.8,18.8,0,0,0,6.7,7A18,18,0,0,0,809.2,262.4Zm23.4,9.1a4.9,4.9,0,0,1-3.8-1.6,5,5,0,0,1-1.5-3.8V250.2l2-11.1,8.6,3.8v23.2a5,5,0,0,1-1.5,3.8A4.9,4.9,0,0,1,832.6,271.5Z" transform="translate(98.5 397.4)" style="stroke: #000;stroke-miterlimit: 10;stroke-width: 3px"/>
        <path d="M859.1,271.5a4.9,4.9,0,0,1-3.8-1.6,5,5,0,0,1-1.5-3.8V219.6a5,5,0,0,1,1.5-3.8,5.2,5.2,0,0,1,3.8-1.5,4.9,4.9,0,0,1,3.8,1.5,5,5,0,0,1,1.5,3.8v46.5a5,5,0,0,1-1.5,3.8A4.6,4.6,0,0,1,859.1,271.5Zm42.8,0a4.9,4.9,0,0,1-3.8-1.6,5,5,0,0,1-1.5-3.8V240.5c0-4-.7-7.2-2.2-9.7a13.3,13.3,0,0,0-5.9-5.6,19,19,0,0,0-8.5-1.8,17.3,17.3,0,0,0-7.9,1.8,14.4,14.4,0,0,0-5.6,4.7,11.6,11.6,0,0,0-2.1,6.8h-6.6A22.3,22.3,0,0,1,861,225a22.9,22.9,0,0,1,8.7-8.2,25.6,25.6,0,0,1,12.4-3,26.2,26.2,0,0,1,12.9,3.1,21.7,21.7,0,0,1,9,9c2.2,4,3.2,8.8,3.2,14.6v25.6a5,5,0,0,1-1.5,3.8A4.8,4.8,0,0,1,901.9,271.5Z" transform="translate(98.5 397.4)" style="stroke: #000;stroke-miterlimit: 10;stroke-width: 3px"/>
        <path d="M948.6,271.8A25.3,25.3,0,0,1,935,268a27.5,27.5,0,0,1-9.6-10.4,30.7,30.7,0,0,1-3.5-14.7,28.5,28.5,0,0,1,3.9-14.8,27.8,27.8,0,0,1,10.3-10.4,29.9,29.9,0,0,1,29.2,0,28.6,28.6,0,0,1,14.1,25.2h-4.1a29.6,29.6,0,0,1-3.5,14.7,27.2,27.2,0,0,1-9.5,10.4A25.4,25.4,0,0,1,948.6,271.8Zm2.1-9.4a18,18,0,0,0,16.1-9.6,20.2,20.2,0,0,0,2.4-9.9,20.9,20.9,0,0,0-2.4-10.1,19.3,19.3,0,0,0-6.6-7,19.1,19.1,0,0,0-18.9,0,19.5,19.5,0,0,0-6.7,7,20.9,20.9,0,0,0-2.4,10.1,20.2,20.2,0,0,0,2.4,9.9,18.1,18.1,0,0,0,6.7,7A17.7,17.7,0,0,0,950.7,262.4Zm23.4,9.1a4.8,4.8,0,0,1-3.8-1.6,5,5,0,0,1-1.5-3.8V250.2l1.9-11.1,8.7,3.8v23.2a5,5,0,0,1-1.5,3.8A4.9,4.9,0,0,1,974.1,271.5Z" transform="translate(98.5 397.4)" style="stroke: #000;stroke-miterlimit: 10;stroke-width: 3px"/>
        <path d="M1000.6,271.5a5.5,5.5,0,0,1-5.4-5.4V219.6a4.8,4.8,0,0,1,1.6-3.8,5.3,5.3,0,0,1,9.1,3.8v46.5a5,5,0,0,1-1.5,3.8A4.8,4.8,0,0,1,1000.6,271.5Zm42.8,0a4.9,4.9,0,0,1-3.8-1.6,5,5,0,0,1-1.5-3.8V240.5c0-4-.7-7.2-2.2-9.7a13.8,13.8,0,0,0-5.9-5.6,19.3,19.3,0,0,0-8.5-1.8,17.3,17.3,0,0,0-7.9,1.8,13.7,13.7,0,0,0-5.6,4.7,11.6,11.6,0,0,0-2.1,6.8h-6.6a22.3,22.3,0,0,1,3.2-11.7,22.9,22.9,0,0,1,8.7-8.2,25.6,25.6,0,0,1,12.4-3,26.2,26.2,0,0,1,12.9,3.1,21.5,21.5,0,0,1,8.9,9,29.7,29.7,0,0,1,3.3,14.6v25.6a5,5,0,0,1-1.5,3.8A4.9,4.9,0,0,1,1043.4,271.5Z" transform="translate(98.5 397.4)" style="stroke: #000;stroke-miterlimit: 10;stroke-width: 3px"/>
        <path d="M1096.7,279.1a5.1,5.1,0,0,1-4.5-2.4,5.1,5.1,0,0,1-.3-5.1l31.4-78.5a4.3,4.3,0,0,1,1.9-2.3,5.3,5.3,0,0,1,3-.9,5.1,5.1,0,0,1,4.3,2.3,5.3,5.3,0,0,1,.5,5.2l-31.4,78.5a3.6,3.6,0,0,1-2.1,2.4A5.7,5.7,0,0,1,1096.7,279.1Z" transform="translate(98.5 397.4)" style="stroke: #000;stroke-miterlimit: 10;stroke-width: 3px"/>
        <path d="M1182.8,271.4a5.7,5.7,0,0,1-3.9-1.6,5.4,5.4,0,0,1-1.5-3.9V195.4a5.7,5.7,0,0,1,1.5-4,5.6,5.6,0,0,1,3.9-1.5h20.8a27.3,27.3,0,0,1,13.9,3.5,23.9,23.9,0,0,1,9.4,9.5,28.2,28.2,0,0,1,3.4,14,26.7,26.7,0,0,1-3.4,13.6,24.7,24.7,0,0,1-9.4,9.3,28.3,28.3,0,0,1-13.9,3.3h-15.4v22.8a5.4,5.4,0,0,1-1.5,3.9A5.3,5.3,0,0,1,1182.8,271.4Zm5.4-38.3h15.4a16.7,16.7,0,0,0,8.5-2.1,15.6,15.6,0,0,0,5.7-5.7,16.6,16.6,0,0,0,2.1-8.4,18.2,18.2,0,0,0-2.1-8.8,16.4,16.4,0,0,0-5.7-6,16.8,16.8,0,0,0-8.5-2.2h-15.4Z" transform="translate(98.5 397.4)" style="stroke: #000;stroke-miterlimit: 10;stroke-width: 3px"/>
        <path d="M1247.6,205a6.5,6.5,0,0,1-4.8-2,6.3,6.3,0,0,1-2-4.8,6.6,6.6,0,0,1,2-4.9,6.9,6.9,0,0,1,11.7,4.9,6.7,6.7,0,0,1-2,4.8A6.6,6.6,0,0,1,1247.6,205Zm0,66.4a4.9,4.9,0,0,1-3.8-1.6,5,5,0,0,1-1.5-3.8V219.6a5,5,0,0,1,1.5-3.8,5.2,5.2,0,0,1,3.8-1.5,5.3,5.3,0,0,1,3.9,1.5,5,5,0,0,1,1.5,3.8V266a5,5,0,0,1-1.5,3.8A5,5,0,0,1,1247.6,271.4Z" transform="translate(98.5 397.4)" style="stroke: #000;stroke-miterlimit: 10;stroke-width: 3px"/>
        <path d="M1278.1,271.5a4.9,4.9,0,0,1-3.8-1.6,5,5,0,0,1-1.5-3.8V219.6a5,5,0,0,1,1.5-3.8,5.2,5.2,0,0,1,3.8-1.5,4.9,4.9,0,0,1,3.8,1.5,5,5,0,0,1,1.5,3.8v46.5a5,5,0,0,1-1.5,3.8A4.6,4.6,0,0,1,1278.1,271.5Zm42.8,0a4.9,4.9,0,0,1-3.8-1.6,5,5,0,0,1-1.5-3.8V240.5c0-4-.7-7.2-2.2-9.7a13.3,13.3,0,0,0-5.9-5.6,19,19,0,0,0-8.5-1.8,17.3,17.3,0,0,0-7.9,1.8,15.2,15.2,0,0,0-5.6,4.7,11.6,11.6,0,0,0-2.1,6.8h-6.6A22.3,22.3,0,0,1,1280,225a22.9,22.9,0,0,1,8.7-8.2,25.6,25.6,0,0,1,12.4-3,26.2,26.2,0,0,1,12.9,3.1,21.7,21.7,0,0,1,9,9,29.7,29.7,0,0,1,3.3,14.6v25.6a5.1,5.1,0,0,1-1.6,3.8A4.8,4.8,0,0,1,1320.9,271.5Z" transform="translate(98.5 397.4)" style="stroke: #000;stroke-miterlimit: 10;stroke-width: 3px"/>
        <path d="M1367.6,271.8a25.3,25.3,0,0,1-23.2-13.9,31.9,31.9,0,0,1-3.4-15,29.9,29.9,0,0,1,3.7-15.1,26.7,26.7,0,0,1,10.1-10.2,29.2,29.2,0,0,1,14.9-3.7,28.8,28.8,0,0,1,14.8,3.7,27.7,27.7,0,0,1,10.2,10.2,29.9,29.9,0,0,1,3.7,15.1h-6.2a34.4,34.4,0,0,1-3.1,15,27.2,27.2,0,0,1-8.7,10.2A23.1,23.1,0,0,1,1367.6,271.8Zm1.9,23.2a33.8,33.8,0,0,1-13.8-2.9,28.7,28.7,0,0,1-11-8.5,4.7,4.7,0,0,1-1-3.7,4.8,4.8,0,0,1,2-3,5.1,5.1,0,0,1,7.2,1.2,20.6,20.6,0,0,0,7.1,5.6,23.3,23.3,0,0,0,9.7,1.9,18.7,18.7,0,0,0,9.3-2.4,17.4,17.4,0,0,0,6.7-7,25.4,25.4,0,0,0,2.5-11.5V249.9l3.4-9.2,6.8,2.2v22.5a30.3,30.3,0,0,1-3.7,15,28.1,28.1,0,0,1-10.1,10.7A29,29,0,0,1,1369.5,295Zm.2-32.6a18.1,18.1,0,0,0,9.6-2.5,17.3,17.3,0,0,0,6.5-6.9,20.7,20.7,0,0,0,2.4-10.1,21.3,21.3,0,0,0-2.4-10.2,17.3,17.3,0,0,0-6.5-6.9,19.7,19.7,0,0,0-19.2,0,18.8,18.8,0,0,0-6.5,6.9,21.3,21.3,0,0,0-2.4,10.2,20.7,20.7,0,0,0,2.4,10.1,18.8,18.8,0,0,0,6.5,6.9A18.1,18.1,0,0,0,1369.7,262.4Z" transform="translate(98.5 397.4)" style="stroke: #000;stroke-miterlimit: 10;stroke-width: 3px"/>
        <path d="M1438,271.8a25.3,25.3,0,0,1-23.2-13.9,31.9,31.9,0,0,1-3.5-15,31,31,0,0,1,3.7-15.1,27.7,27.7,0,0,1,10.2-10.2,29.2,29.2,0,0,1,14.9-3.7,28.8,28.8,0,0,1,14.8,3.7,27.7,27.7,0,0,1,10.2,10.2,31,31,0,0,1,3.7,15.1h-6.2a33.1,33.1,0,0,1-3.2,15,25.6,25.6,0,0,1-8.7,10.2A22.8,22.8,0,0,1,1438,271.8Zm1.9,23.2a34.3,34.3,0,0,1-13.9-2.9,29.1,29.1,0,0,1-10.9-8.5,4.3,4.3,0,0,1-1-3.7,4.4,4.4,0,0,1,2-3,5.2,5.2,0,0,1,3.9-.9,5.3,5.3,0,0,1,3.3,2.1,20.6,20.6,0,0,0,7.1,5.6,23.3,23.3,0,0,0,9.7,1.9,18.3,18.3,0,0,0,9.2-2.4,17.6,17.6,0,0,0,6.8-7,25.4,25.4,0,0,0,2.5-11.5V249.9l3.4-9.2,6.8,2.2v22.5a30.3,30.3,0,0,1-3.7,15,28.1,28.1,0,0,1-10.1,10.7A29,29,0,0,1,1439.9,295Zm.2-32.6a17.5,17.5,0,0,0,16.1-9.4,20.7,20.7,0,0,0,2.4-10.1,21.3,21.3,0,0,0-2.4-10.2,18.9,18.9,0,0,0-25.7-6.9,18.2,18.2,0,0,0-6.6,6.9,21.3,21.3,0,0,0-2.4,10.2,20.7,20.7,0,0,0,2.4,10.1,17.8,17.8,0,0,0,16.2,9.4Z" transform="translate(98.5 397.4)" style="stroke: #000;stroke-miterlimit: 10;stroke-width: 3px"/>
        <path d="M1491,205a6.6,6.6,0,0,1-4.9-2,6.7,6.7,0,0,1-2-4.8,6.8,6.8,0,0,1,6.9-6.9,6.6,6.6,0,0,1,4.8,2,6.7,6.7,0,0,1,2.1,4.9,6.4,6.4,0,0,1-2.1,4.8A6.2,6.2,0,0,1,1491,205Zm0,66.4a4.8,4.8,0,0,1-3.8-1.6,5,5,0,0,1-1.5-3.8V219.6a5.1,5.1,0,0,1,5.3-5.3,4.9,4.9,0,0,1,3.8,1.5,5,5,0,0,1,1.5,3.8V266a5,5,0,0,1-1.5,3.8A4.6,4.6,0,0,1,1491,271.4Z" transform="translate(98.5 397.4)" style="stroke: #000;stroke-miterlimit: 10;stroke-width: 3px"/>
        <path d="M1521.3,271.4a4.7,4.7,0,0,1-5.2-5.3V219.5a5.2,5.2,0,0,1,1.4-3.8,5.1,5.1,0,0,1,3.8-1.4,5.5,5.5,0,0,1,3.9,1.3,5.3,5.3,0,0,1,1.3,3.9v46.6a5.3,5.3,0,0,1-1.3,3.9A5.1,5.1,0,0,1,1521.3,271.4Zm-.1-35.7a20.3,20.3,0,0,1,3.1-11.2,22.5,22.5,0,0,1,8.3-7.9,23.3,23.3,0,0,1,11.4-2.9c4.2,0,7.3.7,9.4,2s2.8,3,2.3,4.9a3.6,3.6,0,0,1-1.2,2.2,4.2,4.2,0,0,1-2,1,5.3,5.3,0,0,1-2.5-.1,28.7,28.7,0,0,0-12-.2,16.4,16.4,0,0,0-8.4,4.3,11,11,0,0,0-3.1,7.9Z" transform="translate(98.5 397.4)" style="stroke: #000;stroke-miterlimit: 10;stroke-width: 3px"/>
        <path d="M1586.4,271.8a25.4,25.4,0,0,1-13.7-3.8,27.2,27.2,0,0,1-9.5-10.4,29.6,29.6,0,0,1-3.5-14.7,28.6,28.6,0,0,1,14.1-25.2,30.1,30.1,0,0,1,29.3,0,28.8,28.8,0,0,1,14,25.2h-4a30.7,30.7,0,0,1-3.5,14.7A27.5,27.5,0,0,1,1600,268,25.3,25.3,0,0,1,1586.4,271.8Zm2.1-9.4a17.5,17.5,0,0,0,9.4-2.6,17.8,17.8,0,0,0,6.6-7,20.2,20.2,0,0,0,2.4-9.9,20.9,20.9,0,0,0-2.4-10.1,19.3,19.3,0,0,0-6.6-7,17.4,17.4,0,0,0-9.4-2.5,18,18,0,0,0-9.5,2.5,20.4,20.4,0,0,0-6.7,7,20.9,20.9,0,0,0-2.4,10.1,20.2,20.2,0,0,0,2.4,9.9,18.8,18.8,0,0,0,6.7,7A18.1,18.1,0,0,0,1588.5,262.4Zm23.3,9.1a4.9,4.9,0,0,1-3.8-1.6,5,5,0,0,1-1.5-3.8V250.2l2-11.1,8.6,3.8v23.2a5,5,0,0,1-1.5,3.8A4.9,4.9,0,0,1,1611.8,271.5Z" transform="translate(98.5 397.4)" style="stroke: #000;stroke-miterlimit: 10;stroke-width: 3px"/>
        <path d="M1638.3,271.5a4.9,4.9,0,0,1-3.8-1.6,5,5,0,0,1-1.5-3.8V219.6a5,5,0,0,1,1.5-3.8,5.2,5.2,0,0,1,3.8-1.5,4.9,4.9,0,0,1,3.8,1.5,5,5,0,0,1,1.5,3.8v46.5a5,5,0,0,1-1.5,3.8A4.6,4.6,0,0,1,1638.3,271.5Zm42.8,0a4.9,4.9,0,0,1-3.8-1.6,5,5,0,0,1-1.5-3.8V240.5c0-4-.7-7.2-2.2-9.7a13.3,13.3,0,0,0-5.9-5.6,19,19,0,0,0-8.5-1.8,17.3,17.3,0,0,0-7.9,1.8,15.2,15.2,0,0,0-5.6,4.7,11.6,11.6,0,0,0-2.1,6.8H1637a22.3,22.3,0,0,1,3.2-11.7,22.9,22.9,0,0,1,8.7-8.2,25.6,25.6,0,0,1,12.4-3,26.2,26.2,0,0,1,12.9,3.1,21.7,21.7,0,0,1,9,9,29.7,29.7,0,0,1,3.3,14.6v25.6a5.5,5.5,0,0,1-5.4,5.4Z" transform="translate(98.5 397.4)" style="stroke: #000;stroke-miterlimit: 10;stroke-width: 3px"/>
      </g>
    </g>
  </g>
</svg>
