<svg xmlns="http://www.w3.org/2000/svg" xmlns:xlink="http://www.w3.org/1999/xlink" viewBox="0 0 2190.9 1077.8">
  <defs>
    <clipPath id="b43bfbf9-58b1-4f4d-a483-25d5c8a0b42a" transform="translate(172.4 397.4)">
      <rect width="1920" height="480" style="fill: none"/>
    </clipPath>
    <linearGradient id="ae76f414-1109-4911-aa64-bc4afd611f15" data-name="Degradado sin nombre 2" x1="1355.25" y1="88.21" x2="1920" y2="88.21" gradientTransform="matrix(1, 0, 0, -1, 0, 480)" gradientUnits="userSpaceOnUse">
      <stop offset="0" stop-color="#f59b26"/>
      <stop offset="1" stop-color="#f4c236"/>
    </linearGradient>
    <linearGradient id="bd53c515-d417-4164-9de1-a5c98950d286" x1="305.39" y1="390.06" x2="870.14" y2="390.06" gradientTransform="matrix(-1.27, -0.59, -0.45, 0.97, 1131.94, -64.63)" xlink:href="#ae76f414-1109-4911-aa64-bc4afd611f15"/>
    <linearGradient id="effd1787-8eb1-479f-a7c5-2e01fea67292" x1="462.85" y1="55.69" x2="1089.31" y2="55.69" xlink:href="#ae76f414-1109-4911-aa64-bc4afd611f15"/>
  </defs>
  <g style="isolation: isolate">
    <g id="f88a62b5-4571-4ed8-b214-f4b53a254044" data-name="BACKGROUND">
      <rect x="172.4" y="397.4" width="1920" height="480" style="fill: #f7931e"/>
    </g>
    <g id="a3c030f1-9f52-4108-9ba8-b0360298652e" data-name="OBJECTS">
      <g style="clip-path: url(#b43bfbf9-58b1-4f4d-a483-25d5c8a0b42a)">
        <g>
          <path d="M1503.9,680.4c-45.6-4.8-86.6-33.8-111.9-72-19.9-30.1-29.9-67.1-35.3-102.5-17.2-111.8,125.7-116.3,162.5-203.5,12-28.2,17.4-58.7,25.5-88.3,20.2-74.6,78.3-122.8,158.8-108.3,69.4,12.5,134.3,63.9,169.2,124.1,42.9,74.2,52.5,163.7,45,249.1-5.1,59-21.4,122.9-69.6,157.4-30,21.4-67.9,28-104.5,32.7-41.4,5.3-83.8,9-124.4-.6-23.7-5.5-46.3-15.4-70.2-19.5a149.5,149.5,0,0,0-99.1,17.7" transform="translate(172.4 397.4)" style="fill: url(#ae76f414-1109-4911-aa64-bc4afd611f15)"/>
          <path d="M508.3-235.4c55.7,31.7,94.8,84.2,109.6,136.3C629.5-58,625.5-16,616.4,21.6c-29,119-212.8,38.5-299.3,101.5-27.9,20.4-48.7,46.8-72.4,70.8C185,254.5,89.2,266.9-6.5,205-89.1,151.6-148.4,63-165.4-16.2c-20.9-97.7,7.6-190.4,55.8-269.1,33.3-54.3,83-106.8,160-111.7,47.9-3.1,99.1,13,147.8,30.2,55,19.4,110.7,41,158,74.4,27.6,19.4,51.8,42.5,80.5,60.7,40.3,25.6,88.6,40.6,134,41.6" transform="translate(172.4 397.4)" style="fill: url(#bd53c515-d417-4164-9de1-a5c98950d286)"/>
          <path d="M1069.5,530.5c23.5-45.7,31.6-99-6.9-139-26.2-27.2-68.3-39.3-105.2-32.1-39.4,7.8-69.4,41.9-110.3,44.4-35.2,2.2-55.3-21.4-77.9-44a365.4,365.4,0,0,0-54.6-44.6c-51.4-34.2-136.2-75.6-197.4-43.5-26.9,14.1-43.5,43.1-49.7,72.9-10.9,52-2,115.1,20.8,162.9,39.2,82.3,179.8,49.1,251.3,56.8,53.6,5.8,107.6,5.5,161.3,8.6,26.6,1.6,53.3,3.6,79.5,8.2,14.1,2.4,33,11.1,47.2,5.5C1046.7,579,1060.7,547.6,1069.5,530.5Z" transform="translate(172.4 397.4)" style="fill: url(#effd1787-8eb1-479f-a7c5-2e01fea67292)"/>
          <g>
            <path d="M-1.5,266.2a79.8,79.8,0,0,0-29.8,8.3l-16.5,8.3,27.9,342,440.2-18.4,1-25.4c1-29.5,2.3-63-6.1-95.6-10.1-39.7-33.8-71.3-65-86.7-27.9-13.8-58-13.3-84.4-12.8-9,.1-17.5.3-25.7-.1a180.6,180.6,0,0,1-109.3-43.5c-7-6-13.7-12.7-20.8-19.8-11.9-12-24.3-24.3-39.4-34.8C47.8,271.9,22.2,264.3-1.5,266.2Z" transform="translate(172.4 397.4)" style="fill: none;stroke: #fcfcfc;stroke-miterlimit: 10;stroke-width: 5px"/>
            <path d="M396.8,566.1c1-29.4,2.1-59.3-5.2-87.8s-24.2-55.9-50.6-68.9c-30.1-14.8-65.7-8.6-99.2-10.1a209.1,209.1,0,0,1-126-50.1C96,332.1,79.4,311.3,57.9,296.4S7.4,273.3-15.9,285.1L8.3,582.4Z" transform="translate(172.4 397.4)" style="fill: #ef4136"/>
          </g>
          <polygon points="1637.7 628 1594.4 615.6 1605.3 659.2 1637.7 628" style="fill: none;stroke: #fcfcfc;stroke-miterlimit: 10;stroke-width: 5px"/>
          <g style="mix-blend-mode: screen">
            <g>
              <path d="M571.3,544.2a5.8,5.8,0,1,0,5.8,5.7A5.8,5.8,0,0,0,571.3,544.2Z" transform="translate(172.4 397.4)" style="fill: #ffaf12"/>
              <path d="M571.3,511.4a5.7,5.7,0,1,0,5.8,5.7A5.7,5.7,0,0,0,571.3,511.4Z" transform="translate(172.4 397.4)" style="fill: #ffaf12"/>
              <path d="M571.3,478.5a5.8,5.8,0,1,0,5.8,5.8A5.8,5.8,0,0,0,571.3,478.5Z" transform="translate(172.4 397.4)" style="fill: #ffaf12"/>
              <circle cx="743.7" cy="848.8" r="5.7" style="fill: #ffaf12"/>
              <circle cx="743.7" cy="816" r="5.7" style="fill: #ffaf12"/>
              <circle cx="743.7" cy="783.1" r="5.7" style="fill: #ffaf12"/>
            </g>
            <g>
              <path d="M542.7,544.2a5.8,5.8,0,1,0,5.7,5.7A5.7,5.7,0,0,0,542.7,544.2Z" transform="translate(172.4 397.4)" style="fill: #ffaf12"/>
              <path d="M542.7,511.4a5.7,5.7,0,1,0,5.7,5.7A5.6,5.6,0,0,0,542.7,511.4Z" transform="translate(172.4 397.4)" style="fill: #ffaf12"/>
              <path d="M542.7,478.5a5.8,5.8,0,1,0,5.7,5.8A5.7,5.7,0,0,0,542.7,478.5Z" transform="translate(172.4 397.4)" style="fill: #ffaf12"/>
              <circle cx="715" cy="848.8" r="5.7" style="fill: #ffaf12"/>
              <circle cx="715" cy="816" r="5.7" style="fill: #ffaf12"/>
              <circle cx="715" cy="783.1" r="5.7" style="fill: #ffaf12"/>
            </g>
            <g>
              <path d="M514.1,544.2a5.8,5.8,0,1,0,5.7,5.7A5.8,5.8,0,0,0,514.1,544.2Z" transform="translate(172.4 397.4)" style="fill: #ffaf12"/>
              <path d="M514.1,511.4a5.7,5.7,0,1,0,5.7,5.7A5.7,5.7,0,0,0,514.1,511.4Z" transform="translate(172.4 397.4)" style="fill: #ffaf12"/>
              <path d="M514.1,478.5a5.8,5.8,0,1,0,5.7,5.8A5.8,5.8,0,0,0,514.1,478.5Z" transform="translate(172.4 397.4)" style="fill: #ffaf12"/>
              <circle cx="686.4" cy="848.8" r="5.7" style="fill: #ffaf12"/>
              <circle cx="686.4" cy="816" r="5.7" style="fill: #ffaf12"/>
              <circle cx="686.4" cy="783.1" r="5.7" style="fill: #ffaf12"/>
            </g>
          </g>
          <g style="mix-blend-mode: screen">
            <g>
              <path d="M1806.7,309a5.7,5.7,0,1,0,5.7-5.7A5.6,5.6,0,0,0,1806.7,309Z" transform="translate(172.4 397.4)" style="fill: #ffaf12"/>
              <path d="M1773.8,309a5.8,5.8,0,1,0,5.8-5.7A5.7,5.7,0,0,0,1773.8,309Z" transform="translate(172.4 397.4)" style="fill: #ffaf12"/>
              <path d="M1741,309a5.8,5.8,0,1,0,5.7-5.7A5.7,5.7,0,0,0,1741,309Z" transform="translate(172.4 397.4)" style="fill: #ffaf12"/>
              <path d="M1708.1,309a5.8,5.8,0,1,0,5.8-5.7A5.7,5.7,0,0,0,1708.1,309Z" transform="translate(172.4 397.4)" style="fill: #ffaf12"/>
              <path d="M1675.3,309a5.8,5.8,0,1,0,5.7-5.7A5.7,5.7,0,0,0,1675.3,309Z" transform="translate(172.4 397.4)" style="fill: #ffaf12"/>
              <path d="M1642.5,309a5.7,5.7,0,1,0,5.7-5.7A5.6,5.6,0,0,0,1642.5,309Z" transform="translate(172.4 397.4)" style="fill: #ffaf12"/>
            </g>
            <g>
              <circle cx="1984.8" cy="735" r="5.7" style="fill: #ffaf12"/>
              <circle cx="1951.9" cy="735" r="5.7" style="fill: #ffaf12"/>
              <path d="M1741,337.6a5.8,5.8,0,1,0,5.7-5.7A5.8,5.8,0,0,0,1741,337.6Z" transform="translate(172.4 397.4)" style="fill: #ffaf12"/>
              <path d="M1708.1,337.6a5.8,5.8,0,1,0,5.8-5.7A5.8,5.8,0,0,0,1708.1,337.6Z" transform="translate(172.4 397.4)" style="fill: #ffaf12"/>
              <path d="M1675.3,337.6a5.8,5.8,0,1,0,5.7-5.7A5.8,5.8,0,0,0,1675.3,337.6Z" transform="translate(172.4 397.4)" style="fill: #ffaf12"/>
              <circle cx="1820.5" cy="735" r="5.7" style="fill: #ffaf12"/>
            </g>
            <g>
              <circle cx="1984.8" cy="763.7" r="5.7" style="fill: #ffaf12"/>
              <circle cx="1951.9" cy="763.7" r="5.7" style="fill: #ffaf12"/>
              <path d="M1741,366.3a5.8,5.8,0,1,0,5.7-5.8A5.8,5.8,0,0,0,1741,366.3Z" transform="translate(172.4 397.4)" style="fill: #ffaf12"/>
              <path d="M1708.1,366.3a5.8,5.8,0,1,0,5.8-5.8A5.8,5.8,0,0,0,1708.1,366.3Z" transform="translate(172.4 397.4)" style="fill: #ffaf12"/>
              <path d="M1675.3,366.3a5.8,5.8,0,1,0,5.7-5.8A5.8,5.8,0,0,0,1675.3,366.3Z" transform="translate(172.4 397.4)" style="fill: #ffaf12"/>
              <circle cx="1820.5" cy="763.7" r="5.7" style="fill: #ffaf12"/>
            </g>
          </g>
          <g style="mix-blend-mode: screen">
            <g>
              <circle cx="293" cy="582.7" r="5.7" style="fill: #ffaf12"/>
              <circle cx="293" cy="549.9" r="5.7" style="fill: #ffaf12"/>
              <path d="M120.7,113.9a5.8,5.8,0,1,0,0,11.5,5.8,5.8,0,0,0,0-11.5Z" transform="translate(172.4 397.4)" style="fill: #ffaf12"/>
              <path d="M120.7,81.1a5.7,5.7,0,1,0,0,11.4,5.7,5.7,0,0,0,0-11.4Z" transform="translate(172.4 397.4)" style="fill: #ffaf12"/>
              <path d="M120.7,48.2a5.8,5.8,0,1,0,0,11.5,5.8,5.8,0,0,0,0-11.5Z" transform="translate(172.4 397.4)" style="fill: #ffaf12"/>
              <path d="M120.7,15.4a5.7,5.7,0,1,0,0,11.4,5.7,5.7,0,1,0,0-11.4Z" transform="translate(172.4 397.4)" style="fill: #ffaf12"/>
            </g>
            <g>
              <path d="M92.1,179.6a5.8,5.8,0,1,0,5.7,5.7A5.8,5.8,0,0,0,92.1,179.6Z" transform="translate(172.4 397.4)" style="fill: #ffaf12"/>
              <path d="M92.1,146.7a5.8,5.8,0,1,0,5.7,5.8A5.8,5.8,0,0,0,92.1,146.7Z" transform="translate(172.4 397.4)" style="fill: #ffaf12"/>
              <path d="M92.1,113.9a5.8,5.8,0,1,0,5.7,5.7A5.8,5.8,0,0,0,92.1,113.9Z" transform="translate(172.4 397.4)" style="fill: #ffaf12"/>
              <path d="M92.1,81.1a5.7,5.7,0,1,0,5.7,5.7A5.7,5.7,0,0,0,92.1,81.1Z" transform="translate(172.4 397.4)" style="fill: #ffaf12"/>
              <path d="M92.1,48.2a5.8,5.8,0,1,0,5.7,5.7A5.8,5.8,0,0,0,92.1,48.2Z" transform="translate(172.4 397.4)" style="fill: #ffaf12"/>
              <path d="M92.1,15.4a5.7,5.7,0,1,0,5.7,5.7A5.7,5.7,0,0,0,92.1,15.4Z" transform="translate(172.4 397.4)" style="fill: #ffaf12"/>
            </g>
            <g>
              <path d="M63.4,179.6a5.8,5.8,0,1,0,5.8,5.7A5.8,5.8,0,0,0,63.4,179.6Z" transform="translate(172.4 397.4)" style="fill: #ffaf12"/>
              <path d="M63.4,146.7a5.8,5.8,0,1,0,5.8,5.8A5.8,5.8,0,0,0,63.4,146.7Z" transform="translate(172.4 397.4)" style="fill: #ffaf12"/>
              <path d="M63.4,113.9a5.8,5.8,0,1,0,5.8,5.7A5.8,5.8,0,0,0,63.4,113.9Z" transform="translate(172.4 397.4)" style="fill: #ffaf12"/>
              <path d="M63.4,81.1a5.7,5.7,0,1,0,5.8,5.7A5.7,5.7,0,0,0,63.4,81.1Z" transform="translate(172.4 397.4)" style="fill: #ffaf12"/>
              <path d="M63.4,48.2a5.8,5.8,0,1,0,5.8,5.7A5.8,5.8,0,0,0,63.4,48.2Z" transform="translate(172.4 397.4)" style="fill: #ffaf12"/>
              <path d="M63.4,15.4a5.7,5.7,0,1,0,5.8,5.7A5.7,5.7,0,0,0,63.4,15.4Z" transform="translate(172.4 397.4)" style="fill: #ffaf12"/>
            </g>
          </g>
          <circle cx="269.4" cy="92.5" r="17.3" transform="translate(158.3 461.8) rotate(-13.3)" style="fill: none;stroke: #fcfcfc;stroke-miterlimit: 10;stroke-width: 5px"/>
          <circle cx="1056.1" cy="437.1" r="10.8" style="fill: none;stroke: #fcfcfc;stroke-miterlimit: 10;stroke-width: 5px"/>
          <circle cx="684.9" cy="381.2" r="10.8" transform="translate(108.7 546.1) rotate(-11.8)" style="fill: none;stroke: #fcfcfc;stroke-miterlimit: 10;stroke-width: 5px"/>
          <circle cx="1433.2" cy="599.3" r="10.8" style="fill: none;stroke: #fcfcfc;stroke-miterlimit: 10;stroke-width: 5px"/>
          <circle cx="1730.4" cy="469" r="10.8" transform="translate(347.5 1758.3) rotate(-45)" style="fill: none;stroke: #fcfcfc;stroke-miterlimit: 10;stroke-width: 5px"/>
          <path d="M684.9,86.8a5,5,0,0,0-5-5,5,5,0,0,0-5,5,5,5,0,0,0,5,5A5.1,5.1,0,0,0,684.9,86.8Z" transform="translate(172.4 397.4)" style="fill: #fcfcfc"/>
          <path d="M257.1,303.3a5,5,0,1,0-5,4.9A5,5,0,0,0,257.1,303.3Z" transform="translate(172.4 397.4)" style="fill: #fcfcfc"/>
          <path d="M1089.7,86.8a5,5,0,1,0-9.9,0,5,5,0,1,0,9.9,0Z" transform="translate(172.4 397.4)" style="fill: #fcfcfc"/>
          <path d="M1297.3,391.8a5,5,0,1,0-5,5A5,5,0,0,0,1297.3,391.8Z" transform="translate(172.4 397.4)" style="fill: #fcfcfc"/>
          <g>
            <path d="M1943.7,313.5a124.9,124.9,0,0,0,46.5-12.9l25.7-13-43.5-533.7-686.6,28.7-1.4,39.6c-1.7,46.1-3.7,98.3,9.3,149.1,15.9,62.1,52.9,111.4,101.5,135.4,43.6,21.5,90.4,20.8,131.7,20.1,14-.3,27.3-.5,40,.1a281.3,281.3,0,0,1,170.5,67.8c10.9,9.4,21.4,19.9,32.4,31,18.7,18.6,37.9,37.9,61.5,54.2C1866.8,304.6,1906.8,316.5,1943.7,313.5Z" transform="translate(172.4 397.4)" style="fill: none;stroke: #fcfcfc;stroke-miterlimit: 10;stroke-width: 5px"/>
            <path d="M1311.6-161.4c-1.7,46.5-3.3,93.8,8.2,138.9s38.4,88.6,80.1,109.2c47.7,23.5,104.1,13.6,157.2,16a331.4,331.4,0,0,1,199.6,79.4c31.4,27.1,57.7,60.1,91.8,83.7s80,36.6,116.9,17.9l-38.3-471Z" transform="translate(172.4 397.4)" style="fill: #ef4136"/>
          </g>
        </g>
      </g>
    </g>
    <g id="bf822b26-4bf2-4856-8cb3-8dfa0f62af8a" data-name="TEXTS">
      <g>
        <path d="M432.8,271.4a5.5,5.5,0,0,1-3.9-1.6,5.4,5.4,0,0,1-1.5-3.9V195.4a5.7,5.7,0,0,1,1.5-4,5.4,5.4,0,0,1,3.9-1.5h20.8a27.6,27.6,0,0,1,13.9,3.5,23.9,23.9,0,0,1,9.4,9.5,28.2,28.2,0,0,1,3.4,14,26.7,26.7,0,0,1-3.4,13.6,24.7,24.7,0,0,1-9.4,9.3,28.6,28.6,0,0,1-13.9,3.3H438.2v22.8a5.4,5.4,0,0,1-1.5,3.9A5.3,5.3,0,0,1,432.8,271.4Zm5.4-38.3h15.4a17,17,0,0,0,8.5-2.1,15.6,15.6,0,0,0,5.7-5.7,16.6,16.6,0,0,0,2.1-8.4,18.2,18.2,0,0,0-2.1-8.8,16.4,16.4,0,0,0-5.7-6,17.1,17.1,0,0,0-8.5-2.2H438.2Z" transform="translate(172.4 397.4)" style="stroke: #000;stroke-miterlimit: 10;stroke-width: 3px"/>
        <path d="M516,271.8a32.2,32.2,0,0,1-15.4-3.7,27.1,27.1,0,0,1-10.5-10.2,28.9,28.9,0,0,1-3.8-15,30.9,30.9,0,0,1,3.6-15.1,26.9,26.9,0,0,1,9.9-10.2,28.3,28.3,0,0,1,14.6-3.7,26.3,26.3,0,0,1,14,3.6,23.7,23.7,0,0,1,8.9,9.9,33.7,33.7,0,0,1,3.1,14.6,4.2,4.2,0,0,1-1.4,3.2,4.5,4.5,0,0,1-3.4,1.3h-42v-8.3h41.7l-4.3,2.9a22.7,22.7,0,0,0-2.1-9.3,15.5,15.5,0,0,0-5.6-6.5,16,16,0,0,0-8.9-2.4,18.7,18.7,0,0,0-10.2,2.6,16.9,16.9,0,0,0-6.4,7.1,24.3,24.3,0,0,0-2.2,10.3,20.4,20.4,0,0,0,2.6,10.2,19.6,19.6,0,0,0,7.2,7.1,21.6,21.6,0,0,0,10.6,2.6,20.1,20.1,0,0,0,6.6-1.2,18.8,18.8,0,0,0,5.5-2.8,6.6,6.6,0,0,1,3.4-1.2,4.9,4.9,0,0,1,3.1,1.1,5.2,5.2,0,0,1,1.9,3.5,3.6,3.6,0,0,1-1.7,3.2A28.1,28.1,0,0,1,526,270,30.7,30.7,0,0,1,516,271.8Z" transform="translate(172.4 397.4)" style="stroke: #000;stroke-miterlimit: 10;stroke-width: 3px"/>
        <path d="M567.5,271.4a14.4,14.4,0,0,1-8.2-2.5,17.2,17.2,0,0,1-5.5-6.9,24,24,0,0,1-2-9.9v-57a5.1,5.1,0,0,1,5.2-5.2,5,5,0,0,1,3.8,1.5,5,5,0,0,1,1.5,3.7v57a12,12,0,0,0,1.4,6.3c1,1.7,2.2,2.5,3.8,2.5h2.6a4.3,4.3,0,0,1,3.4,1.5,5.7,5.7,0,0,1,1.3,3.7,4.6,4.6,0,0,1-2,3.8,8.1,8.1,0,0,1-5.1,1.5Z" transform="translate(172.4 397.4)" style="stroke: #000;stroke-miterlimit: 10;stroke-width: 3px"/>
        <path d="M605.8,271.8a25.3,25.3,0,0,1-13.6-3.8,28.3,28.3,0,0,1-9.6-10.4,30.7,30.7,0,0,1-3.4-14.7,28.4,28.4,0,0,1,3.8-14.8,27.8,27.8,0,0,1,10.3-10.4,28.7,28.7,0,0,1,39.5,10.4,29.4,29.4,0,0,1,3.8,14.8h-4.1a29.6,29.6,0,0,1-3.5,14.7,27.2,27.2,0,0,1-9.5,10.4A25.4,25.4,0,0,1,605.8,271.8Zm2.1-9.4a18,18,0,0,0,16.1-9.6,20.2,20.2,0,0,0,2.4-9.9,20.9,20.9,0,0,0-2.4-10.1,19.3,19.3,0,0,0-6.6-7,19.1,19.1,0,0,0-18.9,0,20.4,20.4,0,0,0-6.7,7,20.9,20.9,0,0,0-2.4,10.1,20.2,20.2,0,0,0,2.4,9.9,18.8,18.8,0,0,0,6.7,7A17.7,17.7,0,0,0,607.9,262.4Zm23.4,9.1a4.8,4.8,0,0,1-3.8-1.6,5,5,0,0,1-1.5-3.8V250.2l1.9-11.1,8.7,3.8v23.2a5,5,0,0,1-1.5,3.8A4.9,4.9,0,0,1,631.3,271.5Z" transform="translate(172.4 397.4)" style="stroke: #000;stroke-miterlimit: 10;stroke-width: 3px"/>
        <path d="M637.8,295.8a5.3,5.3,0,0,1-5.2-5.4,4.9,4.9,0,0,1,1.5-3.8,5,5,0,0,1,3.7-1.5,14.1,14.1,0,0,0,7.3-1.8,13.3,13.3,0,0,0,5-5,13.7,13.7,0,0,0,1.8-7.2V219.6a5,5,0,0,1,1.5-3.8,5.2,5.2,0,0,1,3.8-1.5,5.3,5.3,0,0,1,3.9,1.5,5,5,0,0,1,1.5,3.8v51.5a25.6,25.6,0,0,1-3.2,12.8,23.4,23.4,0,0,1-8.7,8.7A25.7,25.7,0,0,1,637.8,295.8ZM657.2,205a6.8,6.8,0,0,1-6.8-6.8,6.6,6.6,0,0,1,2-4.9,6.7,6.7,0,0,1,4.8-2,6.8,6.8,0,0,1,6.9,6.9,6.7,6.7,0,0,1-2,4.8A6.6,6.6,0,0,1,657.2,205Z" transform="translate(172.4 397.4)" style="stroke: #000;stroke-miterlimit: 10;stroke-width: 3px"/>
        <path d="M702,271.8a25.4,25.4,0,0,1-13.7-3.8,27.2,27.2,0,0,1-9.5-10.4,29.6,29.6,0,0,1-3.5-14.7,29,29,0,0,1,43.3-25.2,27.8,27.8,0,0,1,10.3,10.4,28.4,28.4,0,0,1,3.8,14.8h-4a30.7,30.7,0,0,1-3.5,14.7,27.5,27.5,0,0,1-9.6,10.4A25.3,25.3,0,0,1,702,271.8Zm2-9.4a17.6,17.6,0,0,0,9.5-2.6,17.8,17.8,0,0,0,6.6-7,20.2,20.2,0,0,0,2.4-9.9,20.9,20.9,0,0,0-2.4-10.1,19.3,19.3,0,0,0-6.6-7,17.5,17.5,0,0,0-9.5-2.5,17.9,17.9,0,0,0-9.4,2.5,20.4,20.4,0,0,0-6.7,7,20.9,20.9,0,0,0-2.4,10.1,20.2,20.2,0,0,0,2.4,9.9,18.8,18.8,0,0,0,6.7,7A18,18,0,0,0,704,262.4Zm23.4,9.1a4.9,4.9,0,0,1-3.8-1.6,5,5,0,0,1-1.5-3.8V250.2l2-11.1,8.6,3.8v23.2a5,5,0,0,1-1.5,3.8A4.9,4.9,0,0,1,727.4,271.5Z" transform="translate(172.4 397.4)" style="stroke: #000;stroke-miterlimit: 10;stroke-width: 3px"/>
        <path d="M753.8,271.4a5.7,5.7,0,0,1-3.9-1.3,5.4,5.4,0,0,1-1.3-4V219.5a5.2,5.2,0,0,1,1.3-3.8,5.3,5.3,0,0,1,3.9-1.4,5.7,5.7,0,0,1,3.9,1.3,5.3,5.3,0,0,1,1.3,3.9v46.6a4.7,4.7,0,0,1-5.2,5.3Zm-.1-35.7a20.3,20.3,0,0,1,3.1-11.2,23,23,0,0,1,8.2-7.9,23.7,23.7,0,0,1,11.5-2.9c4.2,0,7.3.7,9.3,2s2.9,3,2.4,4.9a3.6,3.6,0,0,1-1.2,2.2,4.2,4.2,0,0,1-2,1,5.3,5.3,0,0,1-2.5-.1,28.7,28.7,0,0,0-12-.2,16,16,0,0,0-8.4,4.3,10.6,10.6,0,0,0-3.1,7.9Z" transform="translate(172.4 397.4)" style="stroke: #000;stroke-miterlimit: 10;stroke-width: 3px"/>
        <path d="M829.6,279.1a5,5,0,0,1-4.5-2.4,5.1,5.1,0,0,1-.3-5.1l31.4-78.5a4.3,4.3,0,0,1,1.9-2.3,5.3,5.3,0,0,1,3-.9,5.1,5.1,0,0,1,4.3,2.3,5.3,5.3,0,0,1,.5,5.2l-31.4,78.5a3.6,3.6,0,0,1-2.1,2.4A6,6,0,0,1,829.6,279.1Z" transform="translate(172.4 397.4)" style="stroke: #000;stroke-miterlimit: 10;stroke-width: 3px"/>
        <path d="M915.7,271.4a5.7,5.7,0,0,1-3.9-1.6,5.4,5.4,0,0,1-1.5-3.9V195.4a5.7,5.7,0,0,1,1.5-4,5.6,5.6,0,0,1,3.9-1.5,5.3,5.3,0,0,1,4.8,2.9l32.6,65.4h-3.3l31.8-65.4a5.3,5.3,0,0,1,4.8-2.9,5.2,5.2,0,0,1,3.8,1.5,5.4,5.4,0,0,1,1.6,4v70.5a5.1,5.1,0,0,1-1.6,3.9,5.7,5.7,0,0,1-3.8,1.6,5.5,5.5,0,0,1-3.9-1.6,5.4,5.4,0,0,1-1.5-3.9V210.4l2-.6-27.3,55.7a5.4,5.4,0,0,1-4.7,2.7,5.2,5.2,0,0,1-5-3.2l-27-54.1,2.1-.5v55.5a5.1,5.1,0,0,1-1.6,3.9A5.3,5.3,0,0,1,915.7,271.4Z" transform="translate(172.4 397.4)" style="stroke: #000;stroke-miterlimit: 10;stroke-width: 3px"/>
        <path d="M1035.4,271.8a25.4,25.4,0,0,1-13.7-3.8,27.2,27.2,0,0,1-9.5-10.4,31.6,31.6,0,0,1,.3-29.5,28.5,28.5,0,0,1,10.3-10.4,30.1,30.1,0,0,1,29.3,0,28.8,28.8,0,0,1,14,25.2h-4a30.7,30.7,0,0,1-3.5,14.7A27.5,27.5,0,0,1,1049,268,25.3,25.3,0,0,1,1035.4,271.8Zm2.1-9.4a17.5,17.5,0,0,0,9.4-2.6,17.8,17.8,0,0,0,6.6-7,20.2,20.2,0,0,0,2.4-9.9,20.9,20.9,0,0,0-2.4-10.1,19.3,19.3,0,0,0-6.6-7,17.4,17.4,0,0,0-9.4-2.5,18,18,0,0,0-9.5,2.5,19.3,19.3,0,0,0-6.6,7,19.9,19.9,0,0,0-2.5,10.1,19.2,19.2,0,0,0,2.5,9.9,17.8,17.8,0,0,0,6.6,7A18.1,18.1,0,0,0,1037.5,262.4Zm23.3,9.1a4.9,4.9,0,0,1-3.8-1.6,5,5,0,0,1-1.5-3.8V250.2l2-11.1,8.6,3.8v23.2a5,5,0,0,1-1.5,3.8A4.9,4.9,0,0,1,1060.8,271.5Z" transform="translate(172.4 397.4)" style="stroke: #000;stroke-miterlimit: 10;stroke-width: 3px"/>
        <path d="M1087.3,250.6a5.1,5.1,0,0,1-5.3-5.3V195.2a5,5,0,0,1,1.5-3.8,5.2,5.2,0,0,1,3.8-1.5,5.3,5.3,0,0,1,3.9,1.5,5.4,5.4,0,0,1,1.4,3.8v50.1a5.6,5.6,0,0,1-1.4,3.8A5.3,5.3,0,0,1,1087.3,250.6Zm0,20.9a4.9,4.9,0,0,1-3.8-1.6,5,5,0,0,1-1.5-3.8V219.6a5,5,0,0,1,1.5-3.8,5.2,5.2,0,0,1,3.8-1.5,5.3,5.3,0,0,1,3.9,1.5,5.4,5.4,0,0,1,1.4,3.8v46.5a5.4,5.4,0,0,1-1.4,3.8A5,5,0,0,1,1087.3,271.5Zm42.8,0a4.9,4.9,0,0,1-3.8-1.6,5,5,0,0,1-1.5-3.8V240.5c0-4-.7-7.2-2.2-9.7a13.3,13.3,0,0,0-5.9-5.6,18.9,18.9,0,0,0-8.4-1.8,17.4,17.4,0,0,0-8,1.8,15.2,15.2,0,0,0-5.6,4.7,11.6,11.6,0,0,0-2.1,6.8H1086a22.3,22.3,0,0,1,3.2-11.7,22.9,22.9,0,0,1,8.7-8.2,25.8,25.8,0,0,1,12.4-3,26.2,26.2,0,0,1,12.9,3.1,21.7,21.7,0,0,1,9,9,29.7,29.7,0,0,1,3.3,14.6v25.6a5,5,0,0,1-1.5,3.8A5.1,5.1,0,0,1,1130.1,271.5Z" transform="translate(172.4 397.4)" style="stroke: #000;stroke-miterlimit: 10;stroke-width: 3px"/>
        <path d="M1177,271.8a25.4,25.4,0,0,1-13.7-3.8,27.2,27.2,0,0,1-9.5-10.4,29.6,29.6,0,0,1-3.5-14.7,28.4,28.4,0,0,1,3.8-14.8,27.8,27.8,0,0,1,10.3-10.4,28.7,28.7,0,0,1,39.5,10.4,29.4,29.4,0,0,1,3.8,14.8h-4.1a30.7,30.7,0,0,1-3.4,14.7,28.3,28.3,0,0,1-9.6,10.4A25.3,25.3,0,0,1,1177,271.8Zm2-9.4a18,18,0,0,0,16.1-9.6,20.2,20.2,0,0,0,2.4-9.9,20.9,20.9,0,0,0-2.4-10.1,19.3,19.3,0,0,0-6.6-7,19.1,19.1,0,0,0-18.9,0,20.4,20.4,0,0,0-6.7,7,20.9,20.9,0,0,0-2.4,10.1,20.2,20.2,0,0,0,2.4,9.9,18.8,18.8,0,0,0,6.7,7A18,18,0,0,0,1179,262.4Zm23.4,9.1a4.9,4.9,0,0,1-3.8-1.6,5,5,0,0,1-1.5-3.8V250.2l2-11.1,8.6,3.8v23.2a5,5,0,0,1-1.5,3.8A4.9,4.9,0,0,1,1202.4,271.5Z" transform="translate(172.4 397.4)" style="stroke: #000;stroke-miterlimit: 10;stroke-width: 3px"/>
        <path d="M1244.3,271.8a39,39,0,0,1-13.5-2.3,26,26,0,0,1-9.6-5.7,4.2,4.2,0,0,1-1.3-3.8,4.5,4.5,0,0,1,2-3.4,5.1,5.1,0,0,1,7.6.4,18.1,18.1,0,0,0,5.7,3.7,22.1,22.1,0,0,0,8.7,1.7c4,0,7.1-.7,9.2-2a6.2,6.2,0,0,0,3.3-5.1q.1-3.2-3-5.4c-2-1.5-5.8-2.8-11.2-3.8-7-1.4-12.1-3.4-15.3-6.2a13.3,13.3,0,0,1-4.7-10.2,12.9,12.9,0,0,1,3.1-8.9,19.9,19.9,0,0,1,8.1-5.2,33.3,33.3,0,0,1,22.4.5,22.1,22.1,0,0,1,8.4,6,5.2,5.2,0,0,1,1.4,3.5,4,4,0,0,1-1.8,3.1,4.9,4.9,0,0,1-4,.7,7.1,7.1,0,0,1-3.8-1.8,15.4,15.4,0,0,0-5.6-3.5,25.3,25.3,0,0,0-7-.9,16.7,16.7,0,0,0-7.8,1.6c-2.1,1-3.2,2.5-3.2,4.5a6.5,6.5,0,0,0,1,3.4,8.8,8.8,0,0,0,3.9,2.7,53.9,53.9,0,0,0,8.6,2.4,44.6,44.6,0,0,1,12.3,3.9,16.7,16.7,0,0,1,6.5,5.6,13,13,0,0,1,2,7.4,15,15,0,0,1-2.5,8.6,17.2,17.2,0,0,1-7.5,6.2A30.2,30.2,0,0,1,1244.3,271.8Z" transform="translate(172.4 397.4)" style="stroke: #000;stroke-miterlimit: 10;stroke-width: 3px"/>
        <path d="M1286.5,205a6.3,6.3,0,0,1-4.8-2,6.4,6.4,0,0,1-2.1-4.8,6.7,6.7,0,0,1,2.1-4.9,6.7,6.7,0,0,1,4.8-2,6.8,6.8,0,0,1,6.9,6.9,6.7,6.7,0,0,1-2,4.8A6.6,6.6,0,0,1,1286.5,205Zm0,66.4a4.9,4.9,0,0,1-3.8-1.6,5,5,0,0,1-1.5-3.8V219.6a5,5,0,0,1,1.5-3.8,5.2,5.2,0,0,1,3.8-1.5,5.3,5.3,0,0,1,3.9,1.5,5,5,0,0,1,1.4,3.8V266a5.1,5.1,0,0,1-5.3,5.4Z" transform="translate(172.4 397.4)" style="stroke: #000;stroke-miterlimit: 10;stroke-width: 3px"/>
        <path d="M1332.4,271.8a39,39,0,0,1-13.5-2.3,26,26,0,0,1-9.6-5.7,4.2,4.2,0,0,1-1.3-3.8,4.5,4.5,0,0,1,2-3.4,5.1,5.1,0,0,1,7.6.4,18.1,18.1,0,0,0,5.7,3.7,22.1,22.1,0,0,0,8.7,1.7c4,0,7.1-.7,9.2-2a6.2,6.2,0,0,0,3.3-5.1q.1-3.2-3-5.4c-2-1.5-5.8-2.8-11.2-3.8-7-1.4-12.1-3.4-15.3-6.2a13.3,13.3,0,0,1-4.7-10.2,12.9,12.9,0,0,1,3.1-8.9,19.9,19.9,0,0,1,8.1-5.2,33.3,33.3,0,0,1,22.4.5,22.1,22.1,0,0,1,8.4,6,5.2,5.2,0,0,1,1.4,3.5,4,4,0,0,1-1.8,3.1,4.9,4.9,0,0,1-4,.7,7.1,7.1,0,0,1-3.8-1.8,15.4,15.4,0,0,0-5.6-3.5,25.3,25.3,0,0,0-7-.9,16.7,16.7,0,0,0-7.8,1.6c-2.1,1-3.2,2.5-3.2,4.5a5.7,5.7,0,0,0,1,3.4,8.8,8.8,0,0,0,3.9,2.7,53.9,53.9,0,0,0,8.6,2.4,44.6,44.6,0,0,1,12.3,3.9,16.7,16.7,0,0,1,6.5,5.6,13,13,0,0,1,2,7.4,15,15,0,0,1-2.5,8.6,17.2,17.2,0,0,1-7.5,6.2A30.2,30.2,0,0,1,1332.4,271.8Z" transform="translate(172.4 397.4)" style="stroke: #000;stroke-miterlimit: 10;stroke-width: 3px"/>
        <path d="M1381.4,271.4a6,6,0,0,1-3.1-1,5.1,5.1,0,0,1-1.9-2.5L1361,221.6a7.6,7.6,0,0,1,0-5.2q.9-2.1,3.9-2.1a5.2,5.2,0,0,1,3.3,1.1,8.6,8.6,0,0,1,2.2,3.7l13.1,41.1h-3.7l12.4-41.9a7.1,7.1,0,0,1,1.8-2.9,5.4,5.4,0,0,1,3.5-1.1,5,5,0,0,1,3.3,1.1,5.5,5.5,0,0,1,1.8,2.9l10.1,39.4h-1.6l12.3-38.6q1.5-4.8,5.4-4.8c2,0,3.3.7,4,2.1s.7,3.1-.1,5.2l-15.4,46.3a4.9,4.9,0,0,1-1.8,2.5,5.7,5.7,0,0,1-3.1,1,6.3,6.3,0,0,1-3.2-1,4.4,4.4,0,0,1-1.8-2.5l-10.8-39.7h1.1l-11.3,39.7a4.9,4.9,0,0,1-1.8,2.5A6,6,0,0,1,1381.4,271.4Z" transform="translate(172.4 397.4)" style="stroke: #000;stroke-miterlimit: 10;stroke-width: 3px"/>
        <path d="M1465.9,271.8a25.4,25.4,0,0,1-13.7-3.8,27.2,27.2,0,0,1-9.5-10.4,29.6,29.6,0,0,1-3.5-14.7,28.4,28.4,0,0,1,3.8-14.8,27.8,27.8,0,0,1,10.3-10.4,28.7,28.7,0,0,1,39.5,10.4,29.4,29.4,0,0,1,3.8,14.8h-4.1a30.7,30.7,0,0,1-3.4,14.7,28.3,28.3,0,0,1-9.6,10.4A25.3,25.3,0,0,1,1465.9,271.8Zm2-9.4a18,18,0,0,0,16.1-9.6,20.2,20.2,0,0,0,2.4-9.9,20.9,20.9,0,0,0-2.4-10.1,19.3,19.3,0,0,0-6.6-7,19.1,19.1,0,0,0-18.9,0,20.4,20.4,0,0,0-6.7,7,20.9,20.9,0,0,0-2.4,10.1,20.2,20.2,0,0,0,2.4,9.9,18.8,18.8,0,0,0,6.7,7A18,18,0,0,0,1467.9,262.4Zm23.4,9.1a4.9,4.9,0,0,1-3.8-1.6,5,5,0,0,1-1.5-3.8V250.2l2-11.1,8.6,3.8v23.2a5,5,0,0,1-1.5,3.8A4.9,4.9,0,0,1,1491.3,271.5Z" transform="translate(172.4 397.4)" style="stroke: #000;stroke-miterlimit: 10;stroke-width: 3px"/>
      </g>
    </g>
  </g>
</svg>
