<svg xmlns="http://www.w3.org/2000/svg" xmlns:xlink="http://www.w3.org/1999/xlink" viewBox="0 0 2190.9 1077.8">
  <defs>
    <clipPath id="a63ba065-4e7f-4fe6-a0ae-63dadf01e8f8" transform="translate(172.4 200.4)">
      <rect width="1920" height="480" style="fill: none"/>
    </clipPath>
    <linearGradient id="ef77fa22-09ff-4333-8fe1-dfb9d5534e0a" data-name="Degradado sin nombre 2" x1="1355.25" y1="88.21" x2="1920" y2="88.21" gradientUnits="userSpaceOnUse">
      <stop offset="0" stop-color="#f59b26"/>
      <stop offset="1" stop-color="#f4c236"/>
    </linearGradient>
    <linearGradient id="faa81d51-7d6a-448a-a736-747836d79ff9" x1="305.39" y1="390.06" x2="870.14" y2="390.06" gradientTransform="matrix(-1.27, 0.59, -0.45, -0.97, 1131.94, 544.63)" xlink:href="#ef77fa22-09ff-4333-8fe1-dfb9d5534e0a"/>
    <linearGradient id="ee4fd366-aea9-4827-aaaf-b09960a080ea" x1="462.85" y1="55.69" x2="1089.31" y2="55.69" xlink:href="#ef77fa22-09ff-4333-8fe1-dfb9d5534e0a"/>
  </defs>
  <g style="isolation: isolate">
    <g id="a3fa2fcd-5af5-4520-92fb-e609a4faccec" data-name="BACKGROUND">
      <rect x="172.4" y="200.4" width="1920" height="480" style="fill: #f7931e"/>
    </g>
    <g id="a14ca32a-0882-45c5-b432-f28ad8cfeaa3" data-name="OBJECTS">
      <g style="clip-path: url(#a63ba065-4e7f-4fe6-a0ae-63dadf01e8f8)">
        <g>
          <path d="M1503.9-200.4c-45.6,4.8-86.6,33.8-111.9,72-19.9,30.1-29.9,67.1-35.3,102.5-17.2,111.8,125.7,116.3,162.5,203.5,12,28.2,17.4,58.7,25.5,88.3,20.2,74.6,78.3,122.8,158.8,108.3,69.4-12.5,134.3-63.9,169.2-124.1,42.9-74.2,52.5-163.7,45-249.1-5.1-59-21.4-122.9-69.6-157.4-30-21.4-67.9-28-104.5-32.7-41.4-5.3-83.8-9-124.4.6-23.7,5.5-46.3,15.4-70.2,19.5a149.5,149.5,0,0,1-99.1-17.7" transform="translate(172.4 200.4)" style="fill: url(#ef77fa22-09ff-4333-8fe1-dfb9d5534e0a)"/>
          <path d="M508.3,715.4c55.7-31.7,94.8-84.2,109.6-136.3,11.6-41.1,7.6-83.1-1.5-120.7-29-119-212.8-38.5-299.3-101.5-27.9-20.4-48.7-46.8-72.4-70.8C185,225.5,89.2,213.1-6.5,275c-82.6,53.4-141.9,142-158.9,221.2-20.9,97.7,7.6,190.4,55.8,269.1,33.3,54.3,83,106.8,160,111.7,47.9,3.1,99.1-13,147.8-30.2,55-19.4,110.7-41,158-74.4,27.6-19.4,51.8-42.5,80.5-60.7,40.3-25.6,88.6-40.6,134-41.6" transform="translate(172.4 200.4)" style="fill: url(#faa81d51-7d6a-448a-a736-747836d79ff9)"/>
          <path d="M1069.5-50.5c23.5,45.7,31.6,99-6.9,139-26.2,27.2-68.3,39.3-105.2,32.1C918,112.8,888,78.7,847.1,76.2c-35.2-2.2-55.3,21.4-77.9,44a365.4,365.4,0,0,1-54.6,44.6c-51.4,34.2-136.2,75.6-197.4,43.5-26.9-14.1-43.5-43.1-49.7-72.9-10.9-52-2-115.1,20.8-162.9,39.2-82.3,179.8-49.1,251.3-56.8,53.6-5.8,107.6-5.5,161.3-8.6,26.6-1.6,53.3-3.6,79.5-8.2,14.1-2.4,33-11.1,47.2-5.5C1046.7-99,1060.7-67.6,1069.5-50.5Z" transform="translate(172.4 200.4)" style="fill: url(#ee4fd366-aea9-4827-aaaf-b09960a080ea)"/>
          <g>
            <path d="M-1.5,213.8a79.8,79.8,0,0,1-29.8-8.3l-16.5-8.3,27.9-342,440.2,18.4,1,25.4c1,29.5,2.3,63-6.1,95.6-10.1,39.7-33.8,71.3-65,86.7-27.9,13.8-58,13.3-84.4,12.8-9-.1-17.5-.3-25.7.1a180.6,180.6,0,0,0-109.3,43.5c-7,6-13.7,12.7-20.8,19.8-11.9,12-24.3,24.3-39.4,34.8C47.8,208.1,22.2,215.7-1.5,213.8Z" transform="translate(172.4 200.4)" style="fill: none;stroke: #fcfcfc;stroke-miterlimit: 10;stroke-width: 5px"/>
            <path d="M396.8-86.1c1,29.4,2.1,59.3-5.2,87.8S367.4,57.6,341,70.6c-30.1,14.8-65.7,8.6-99.2,10.1a209.1,209.1,0,0,0-126,50.1C96,147.9,79.4,168.7,57.9,183.6S7.4,206.7-15.9,194.9L8.3-102.4Z" transform="translate(172.4 200.4)" style="fill: #ef4136"/>
          </g>
          <polygon points="1637.7 449.8 1594.4 462.2 1605.3 418.5 1637.7 449.8" style="fill: none;stroke: #fcfcfc;stroke-miterlimit: 10;stroke-width: 5px"/>
          <g style="mix-blend-mode: screen">
            <g>
              <path d="M571.3-64.2a5.8,5.8,0,0,1-5.7-5.7,5.8,5.8,0,0,1,5.7-5.8,5.8,5.8,0,0,1,5.8,5.8A5.8,5.8,0,0,1,571.3-64.2Z" transform="translate(172.4 200.4)" style="fill: #ffaf12"/>
              <path d="M571.3-31.4a5.7,5.7,0,0,1-5.7-5.7,5.7,5.7,0,0,1,5.7-5.7,5.7,5.7,0,0,1,5.8,5.7A5.7,5.7,0,0,1,571.3-31.4Z" transform="translate(172.4 200.4)" style="fill: #ffaf12"/>
              <path d="M571.3,1.5a5.8,5.8,0,0,1-5.7-5.8,5.8,5.8,0,0,1,5.7-5.7,5.8,5.8,0,0,1,5.8,5.7A5.8,5.8,0,0,1,571.3,1.5Z" transform="translate(172.4 200.4)" style="fill: #ffaf12"/>
              <circle cx="743.7" cy="228.9" r="5.7" style="fill: #ffaf12"/>
              <circle cx="743.7" cy="261.8" r="5.7" style="fill: #ffaf12"/>
              <circle cx="743.7" cy="294.6" r="5.7" style="fill: #ffaf12"/>
            </g>
            <g>
              <path d="M542.7-64.2a5.7,5.7,0,0,1-5.7-5.7,5.7,5.7,0,0,1,5.7-5.8,5.7,5.7,0,0,1,5.7,5.8A5.7,5.7,0,0,1,542.7-64.2Z" transform="translate(172.4 200.4)" style="fill: #ffaf12"/>
              <path d="M542.7-31.4a5.6,5.6,0,0,1-5.7-5.7,5.6,5.6,0,0,1,5.7-5.7,5.6,5.6,0,0,1,5.7,5.7A5.6,5.6,0,0,1,542.7-31.4Z" transform="translate(172.4 200.4)" style="fill: #ffaf12"/>
              <path d="M542.7,1.5A5.7,5.7,0,0,1,537-4.3a5.7,5.7,0,0,1,5.7-5.7,5.7,5.7,0,0,1,5.7,5.7A5.7,5.7,0,0,1,542.7,1.5Z" transform="translate(172.4 200.4)" style="fill: #ffaf12"/>
              <circle cx="715" cy="228.9" r="5.7" style="fill: #ffaf12"/>
              <circle cx="715" cy="261.8" r="5.7" style="fill: #ffaf12"/>
              <circle cx="715" cy="294.6" r="5.7" style="fill: #ffaf12"/>
            </g>
            <g>
              <path d="M514.1-64.2a5.8,5.8,0,0,1-5.8-5.7,5.8,5.8,0,0,1,5.8-5.8,5.8,5.8,0,0,1,5.7,5.8A5.8,5.8,0,0,1,514.1-64.2Z" transform="translate(172.4 200.4)" style="fill: #ffaf12"/>
              <path d="M514.1-31.4a5.7,5.7,0,0,1-5.8-5.7,5.7,5.7,0,0,1,5.8-5.7,5.7,5.7,0,0,1,5.7,5.7A5.7,5.7,0,0,1,514.1-31.4Z" transform="translate(172.4 200.4)" style="fill: #ffaf12"/>
              <path d="M514.1,1.5a5.8,5.8,0,0,1-5.8-5.8,5.8,5.8,0,0,1,5.8-5.7,5.8,5.8,0,0,1,5.7,5.7A5.8,5.8,0,0,1,514.1,1.5Z" transform="translate(172.4 200.4)" style="fill: #ffaf12"/>
              <circle cx="686.4" cy="228.9" r="5.7" style="fill: #ffaf12"/>
              <circle cx="686.4" cy="261.8" r="5.7" style="fill: #ffaf12"/>
              <circle cx="686.4" cy="294.6" r="5.7" style="fill: #ffaf12"/>
            </g>
          </g>
          <g style="mix-blend-mode: screen">
            <g>
              <path d="M1806.7,171a5.7,5.7,0,1,1,5.7,5.7A5.6,5.6,0,0,1,1806.7,171Z" transform="translate(172.4 200.4)" style="fill: #ffaf12"/>
              <path d="M1773.8,171a5.8,5.8,0,1,1,5.8,5.7A5.7,5.7,0,0,1,1773.8,171Z" transform="translate(172.4 200.4)" style="fill: #ffaf12"/>
              <path d="M1741,171a5.8,5.8,0,1,1,5.7,5.7A5.7,5.7,0,0,1,1741,171Z" transform="translate(172.4 200.4)" style="fill: #ffaf12"/>
              <path d="M1708.1,171a5.8,5.8,0,1,1,5.8,5.7A5.7,5.7,0,0,1,1708.1,171Z" transform="translate(172.4 200.4)" style="fill: #ffaf12"/>
              <path d="M1675.3,171a5.8,5.8,0,1,1,5.7,5.7A5.7,5.7,0,0,1,1675.3,171Z" transform="translate(172.4 200.4)" style="fill: #ffaf12"/>
              <path d="M1642.5,171a5.7,5.7,0,1,1,5.7,5.7A5.6,5.6,0,0,1,1642.5,171Z" transform="translate(172.4 200.4)" style="fill: #ffaf12"/>
            </g>
            <g>
              <circle cx="1984.8" cy="342.7" r="5.7" style="fill: #ffaf12"/>
              <circle cx="1951.9" cy="342.7" r="5.7" style="fill: #ffaf12"/>
              <path d="M1741,142.4a5.8,5.8,0,1,1,5.7,5.7A5.8,5.8,0,0,1,1741,142.4Z" transform="translate(172.4 200.4)" style="fill: #ffaf12"/>
              <path d="M1708.1,142.4a5.8,5.8,0,1,1,5.8,5.7A5.8,5.8,0,0,1,1708.1,142.4Z" transform="translate(172.4 200.4)" style="fill: #ffaf12"/>
              <path d="M1675.3,142.4a5.8,5.8,0,1,1,5.7,5.7A5.8,5.8,0,0,1,1675.3,142.4Z" transform="translate(172.4 200.4)" style="fill: #ffaf12"/>
              <circle cx="1820.5" cy="342.7" r="5.7" style="fill: #ffaf12"/>
            </g>
            <g>
              <circle cx="1984.8" cy="314.1" r="5.7" style="fill: #ffaf12"/>
              <circle cx="1951.9" cy="314.1" r="5.7" style="fill: #ffaf12"/>
              <path d="M1741,113.7a5.8,5.8,0,1,1,5.7,5.8A5.8,5.8,0,0,1,1741,113.7Z" transform="translate(172.4 200.4)" style="fill: #ffaf12"/>
              <path d="M1708.1,113.7a5.8,5.8,0,1,1,5.8,5.8A5.8,5.8,0,0,1,1708.1,113.7Z" transform="translate(172.4 200.4)" style="fill: #ffaf12"/>
              <path d="M1675.3,113.7a5.8,5.8,0,1,1,5.7,5.8A5.8,5.8,0,0,1,1675.3,113.7Z" transform="translate(172.4 200.4)" style="fill: #ffaf12"/>
              <circle cx="1820.5" cy="314.1" r="5.7" style="fill: #ffaf12"/>
            </g>
          </g>
          <g style="mix-blend-mode: screen">
            <g>
              <circle cx="293" cy="495" r="5.7" style="fill: #ffaf12"/>
              <circle cx="293" cy="527.9" r="5.7" style="fill: #ffaf12"/>
              <path d="M120.7,366.1a5.8,5.8,0,1,1,0-11.5,5.8,5.8,0,0,1,0,11.5Z" transform="translate(172.4 200.4)" style="fill: #ffaf12"/>
              <path d="M120.7,398.9a5.7,5.7,0,1,1,0-11.4,5.7,5.7,0,1,1,0,11.4Z" transform="translate(172.4 200.4)" style="fill: #ffaf12"/>
              <path d="M120.7,431.8a5.8,5.8,0,1,1,0-11.5,5.8,5.8,0,0,1,0,11.5Z" transform="translate(172.4 200.4)" style="fill: #ffaf12"/>
              <path d="M120.7,464.6a5.7,5.7,0,1,1,0-11.4,5.7,5.7,0,0,1,0,11.4Z" transform="translate(172.4 200.4)" style="fill: #ffaf12"/>
            </g>
            <g>
              <path d="M92.1,300.4a5.8,5.8,0,1,1,5.7-5.7A5.8,5.8,0,0,1,92.1,300.4Z" transform="translate(172.4 200.4)" style="fill: #ffaf12"/>
              <path d="M92.1,333.3a5.8,5.8,0,1,1,5.7-5.8A5.8,5.8,0,0,1,92.1,333.3Z" transform="translate(172.4 200.4)" style="fill: #ffaf12"/>
              <path d="M92.1,366.1a5.8,5.8,0,1,1,5.7-5.7A5.8,5.8,0,0,1,92.1,366.1Z" transform="translate(172.4 200.4)" style="fill: #ffaf12"/>
              <path d="M92.1,398.9a5.7,5.7,0,1,1,5.7-5.7A5.7,5.7,0,0,1,92.1,398.9Z" transform="translate(172.4 200.4)" style="fill: #ffaf12"/>
              <path d="M92.1,431.8a5.8,5.8,0,1,1,5.7-5.7A5.8,5.8,0,0,1,92.1,431.8Z" transform="translate(172.4 200.4)" style="fill: #ffaf12"/>
              <path d="M92.1,464.6a5.7,5.7,0,1,1,5.7-5.7A5.7,5.7,0,0,1,92.1,464.6Z" transform="translate(172.4 200.4)" style="fill: #ffaf12"/>
            </g>
            <g>
              <path d="M63.4,300.4a5.8,5.8,0,1,1,5.8-5.7A5.8,5.8,0,0,1,63.4,300.4Z" transform="translate(172.4 200.4)" style="fill: #ffaf12"/>
              <path d="M63.4,333.3a5.8,5.8,0,1,1,5.8-5.8A5.8,5.8,0,0,1,63.4,333.3Z" transform="translate(172.4 200.4)" style="fill: #ffaf12"/>
              <path d="M63.4,366.1a5.8,5.8,0,1,1,5.8-5.7A5.8,5.8,0,0,1,63.4,366.1Z" transform="translate(172.4 200.4)" style="fill: #ffaf12"/>
              <path d="M63.4,398.9a5.7,5.7,0,1,1,5.8-5.7A5.7,5.7,0,0,1,63.4,398.9Z" transform="translate(172.4 200.4)" style="fill: #ffaf12"/>
              <path d="M63.4,431.8a5.8,5.8,0,1,1,5.8-5.7A5.8,5.8,0,0,1,63.4,431.8Z" transform="translate(172.4 200.4)" style="fill: #ffaf12"/>
              <path d="M63.4,464.6a5.7,5.7,0,1,1,5.8-5.7A5.7,5.7,0,0,1,63.4,464.6Z" transform="translate(172.4 200.4)" style="fill: #ffaf12"/>
            </g>
          </g>
          <circle cx="269.4" cy="387.5" r="17.3" transform="translate(2.8 761) rotate(-76.7)" style="fill: none;stroke: #fcfcfc;stroke-miterlimit: 10;stroke-width: 5px"/>
          <circle cx="1056.1" cy="640.6" r="10.8" style="fill: none;stroke: #fcfcfc;stroke-miterlimit: 10;stroke-width: 5px"/>
          <circle cx="684.9" cy="98.8" r="10.8" transform="translate(619.9 949.2) rotate(-78.2)" style="fill: none;stroke: #fcfcfc;stroke-miterlimit: 10;stroke-width: 5px"/>
          <circle cx="1433.2" cy="478.4" r="10.8" style="fill: none;stroke: #fcfcfc;stroke-miterlimit: 10;stroke-width: 5px"/>
          <circle cx="1730.4" cy="11" r="10.8" transform="translate(671.4 1427.1) rotate(-45)" style="fill: none;stroke: #fcfcfc;stroke-miterlimit: 10;stroke-width: 5px"/>
          <path d="M684.9,393.2a5,5,0,0,1-5,5,5,5,0,0,1-5-5,5,5,0,0,1,5-5A5.1,5.1,0,0,1,684.9,393.2Z" transform="translate(172.4 200.4)" style="fill: #fcfcfc"/>
          <path d="M257.1,176.7a5,5,0,1,1-5-4.9A5,5,0,0,1,257.1,176.7Z" transform="translate(172.4 200.4)" style="fill: #fcfcfc"/>
          <path d="M1089.7,393.2a5,5,0,1,1-9.9,0,5,5,0,1,1,9.9,0Z" transform="translate(172.4 200.4)" style="fill: #fcfcfc"/>
          <path d="M1297.3,88.2a5,5,0,1,1-5-5A5,5,0,0,1,1297.3,88.2Z" transform="translate(172.4 200.4)" style="fill: #fcfcfc"/>
          <g>
            <path d="M1943.7,166.5a124.9,124.9,0,0,1,46.5,12.9l25.7,13-43.5,533.7-686.6-28.7-1.4-39.6c-1.7-46.1-3.7-98.3,9.3-149.1,15.9-62.1,52.9-111.4,101.5-135.4,43.6-21.5,90.4-20.8,131.7-20.1,14,.3,27.3.5,40-.1a281.3,281.3,0,0,0,170.5-67.8c10.9-9.4,21.4-19.9,32.4-31,18.7-18.6,37.9-37.9,61.5-54.2C1866.8,175.4,1906.8,163.5,1943.7,166.5Z" transform="translate(172.4 200.4)" style="fill: none;stroke: #fcfcfc;stroke-miterlimit: 10;stroke-width: 5px"/>
            <path d="M1311.6,641.4c-1.7-46.5-3.3-93.8,8.2-138.9s38.4-88.6,80.1-109.2c47.7-23.5,104.1-13.6,157.2-16a331.4,331.4,0,0,0,199.6-79.4c31.4-27.1,57.7-60.1,91.8-83.7s80-36.6,116.9-17.9l-38.3,471Z" transform="translate(172.4 200.4)" style="fill: #ef4136"/>
          </g>
        </g>
      </g>
    </g>
    <g id="f01b4110-bfae-438d-84e9-ade7d70d5f11" data-name="TEXTS">
      <g>
        <path d="M376.7,280.5a6.6,6.6,0,0,1-5-2,6.9,6.9,0,0,1-2-5V182.3a6.7,6.7,0,0,1,7-7h27a36.2,36.2,0,0,1,17.9,4.4A32,32,0,0,1,433.8,192a37.4,37.4,0,0,1,4.4,18.2,35,35,0,0,1-4.4,17.5,31.3,31.3,0,0,1-12.2,12,36.2,36.2,0,0,1-17.9,4.3h-20v29.5a6.8,6.8,0,0,1-1.9,5A6.6,6.6,0,0,1,376.7,280.5Zm7-49.4h20a21.8,21.8,0,0,0,10.9-2.7A20.2,20.2,0,0,0,422,221a21.6,21.6,0,0,0,2.7-10.8,23.4,23.4,0,0,0-2.7-11.4,20.6,20.6,0,0,0-7.4-7.8,21.8,21.8,0,0,0-10.9-2.8h-20Z" transform="translate(172.4 200.4)" style="stroke: #000;stroke-miterlimit: 10;stroke-width: 3px"/>
        <path d="M484.3,281.1a40.4,40.4,0,0,1-19.9-4.8,35.2,35.2,0,0,1-13.6-13.2,37.6,37.6,0,0,1-4.9-19.4,39.5,39.5,0,0,1,4.6-19.4,32.8,32.8,0,0,1,12.9-13.2,36.8,36.8,0,0,1,18.8-4.8c7.1,0,13.1,1.5,18.1,4.6a30.3,30.3,0,0,1,11.5,12.8,41.9,41.9,0,0,1,4,18.8,6,6,0,0,1-1.7,4.3,6.4,6.4,0,0,1-4.5,1.7H455.3V237.7h53.9l-5.5,3.7a29,29,0,0,0-2.7-12,19.3,19.3,0,0,0-7.3-8.4,20.2,20.2,0,0,0-11.5-3.1,24.7,24.7,0,0,0-13.1,3.3,22.6,22.6,0,0,0-8.3,9.3,29.7,29.7,0,0,0-2.8,13.2,25.6,25.6,0,0,0,3.4,13.3,23.9,23.9,0,0,0,9.3,9.1,26.2,26.2,0,0,0,13.6,3.4,23.7,23.7,0,0,0,8.5-1.6,26.1,26.1,0,0,0,7.1-3.5,8.2,8.2,0,0,1,4.4-1.6,6,6,0,0,1,4.1,1.4,6.7,6.7,0,0,1,2.4,4.5,4.9,4.9,0,0,1-2.1,4.2,38.2,38.2,0,0,1-11.4,5.9A42,42,0,0,1,484.3,281.1Z" transform="translate(172.4 200.4)" style="stroke: #000;stroke-miterlimit: 10;stroke-width: 3px"/>
        <path d="M540.2,280.7a6.8,6.8,0,0,1-6.9-6.9V213.7a6.7,6.7,0,0,1,2-5,6.6,6.6,0,0,1,4.9-1.9,6.5,6.5,0,0,1,6.9,6.9v60.1a6.6,6.6,0,0,1-1.9,4.9A6.7,6.7,0,0,1,540.2,280.7Zm55.4,0a6.8,6.8,0,0,1-6.9-6.9V240.6c0-5.1-.9-9.3-2.8-12.5a18.2,18.2,0,0,0-7.6-7.2,24.4,24.4,0,0,0-11-2.4,22.5,22.5,0,0,0-10.2,2.3,19.4,19.4,0,0,0-7.3,6.2,14.8,14.8,0,0,0-2.7,8.8h-8.5a28.8,28.8,0,0,1,4.1-15.2A30.4,30.4,0,0,1,554,210a32.7,32.7,0,0,1,16-3.9,34.8,34.8,0,0,1,16.6,4,28.4,28.4,0,0,1,11.6,11.7c2.9,5.1,4.3,11.4,4.3,18.8v33.2a6.8,6.8,0,0,1-6.9,6.9Z" transform="translate(172.4 200.4)" style="stroke: #000;stroke-miterlimit: 10;stroke-width: 3px"/>
        <path d="M654.4,277.6a6.2,6.2,0,0,1-4.8.2,7.2,7.2,0,0,1-3.6-3.5l-30.9-58.6a5.3,5.3,0,0,1-.3-4.9,6.8,6.8,0,0,1,3.6-3.5,6.7,6.7,0,0,1,4.8-.2,6.3,6.3,0,0,1,3.5,3.5l29.6,58.6a8.2,8.2,0,0,1,1,4.9A4.5,4.5,0,0,1,654.4,277.6Zm-15.9,35.3a9.8,9.8,0,0,1-3.3-.8c-3.9-1.8-5-4.7-3.2-8.5l41.1-92.9c1.8-3.8,4.6-4.8,8.5-3.2s5.2,4.5,3.4,8.5l-41.3,92.7C642.6,311.5,640.9,312.9,638.5,312.9Z" transform="translate(172.4 200.4)" style="stroke: #000;stroke-miterlimit: 10;stroke-width: 3px"/>
        <path d="M706.1,194.8a8.5,8.5,0,0,1-6.2-2.6,8.7,8.7,0,0,1,0-12.6,8.5,8.5,0,0,1,6.2-2.6,8.8,8.8,0,0,1,6.3,2.6,8.9,8.9,0,0,1,0,12.6A8.8,8.8,0,0,1,706.1,194.8Zm0,85.7a6.5,6.5,0,0,1-6.8-6.8v-60a6.6,6.6,0,0,1,1.9-5,6.7,6.7,0,0,1,4.9-1.9,6.5,6.5,0,0,1,5,1.9,6.6,6.6,0,0,1,1.9,5v60a6.7,6.7,0,0,1-1.9,4.9A6.5,6.5,0,0,1,706.1,280.5Z" transform="translate(172.4 200.4)" style="stroke: #000;stroke-miterlimit: 10;stroke-width: 3px"/>
        <path d="M735.5,221.1a6.5,6.5,0,0,1-4.6-1.6,5.5,5.5,0,0,1-1.7-4.1,5.8,5.8,0,0,1,1.7-4.3,6.5,6.5,0,0,1,4.6-1.6h31.1a6.3,6.3,0,0,1,4.6,1.6,5.5,5.5,0,0,1,1.8,4.3,5.2,5.2,0,0,1-1.8,4.1,6.3,6.3,0,0,1-4.6,1.6Zm29.9,59.4a21.9,21.9,0,0,1-12.1-3.4,24.2,24.2,0,0,1-8.5-9.4,27.8,27.8,0,0,1-3.1-13.3V190.1a6.6,6.6,0,0,1,1.9-4.9,6.9,6.9,0,0,1,4.9-1.8,6.8,6.8,0,0,1,4.8,1.8,6.6,6.6,0,0,1,1.9,4.9v64.3a13.6,13.6,0,0,0,3,9,9.1,9.1,0,0,0,7.2,3.7H770a5.4,5.4,0,0,1,4.1,1.8,6.8,6.8,0,0,1,1.7,4.9,6.1,6.1,0,0,1-2.2,4.9,8.8,8.8,0,0,1-5.7,1.8Z" transform="translate(172.4 200.4)" style="stroke: #000;stroke-miterlimit: 10;stroke-width: 3px"/>
        <path d="M823.4,281.1a33.2,33.2,0,0,1-17.7-4.9,35.3,35.3,0,0,1-12.3-13.4,39.9,39.9,0,0,1-4.5-19.1,37.2,37.2,0,0,1,4.9-19.1,35.9,35.9,0,0,1,13.4-13.4,38.9,38.9,0,0,1,37.8,0,36.1,36.1,0,0,1,13.2,13.4,37.3,37.3,0,0,1,5,19.1h-5.3a39.9,39.9,0,0,1-4.5,19.1,35.3,35.3,0,0,1-12.3,13.4A33.4,33.4,0,0,1,823.4,281.1Zm2.7-12.2a23.1,23.1,0,0,0,12.3-3.3,23.5,23.5,0,0,0,8.4-9,26.2,26.2,0,0,0,3.1-12.9,26.9,26.9,0,0,0-3.1-13,23.5,23.5,0,0,0-8.4-9,24.4,24.4,0,0,0-24.5,0,24,24,0,0,0-8.6,9,26.9,26.9,0,0,0-3.2,13,26.2,26.2,0,0,0,3.2,12.9,24,24,0,0,0,8.6,9A23,23,0,0,0,826.1,268.9Zm30.2,11.8a6.8,6.8,0,0,1-6.9-6.9V253.2l2.6-14.3,11.2,4.8v30.1a6.8,6.8,0,0,1-6.9,6.9Z" transform="translate(172.4 200.4)" style="stroke: #000;stroke-miterlimit: 10;stroke-width: 3px"/>
        <path d="M910.5,281.1a52.2,52.2,0,0,1-17.5-2.9c-5.3-2-9.5-4.4-12.5-7.4a5.6,5.6,0,0,1-1.6-4.9,6.6,6.6,0,0,1,2.6-4.5,7.3,7.3,0,0,1,5.3-1.8,7,7,0,0,1,4.5,2.3,22.5,22.5,0,0,0,7.4,4.8,27,27,0,0,0,11.2,2.2c5.2,0,9.2-.8,12-2.5s4.1-3.9,4.2-6.6-1.2-5.1-3.8-7-7.5-3.6-14.5-4.9q-13.6-2.7-19.8-8.1a16.9,16.9,0,0,1-6.1-13.2,16.4,16.4,0,0,1,4-11.4,25,25,0,0,1,10.4-6.7,38.9,38.9,0,0,1,13.2-2.2,40.9,40.9,0,0,1,15.8,2.8,27.1,27.1,0,0,1,10.9,7.8,6.2,6.2,0,0,1,1.8,4.5,5.4,5.4,0,0,1-2.3,4,7.1,7.1,0,0,1-5.2,1,9.6,9.6,0,0,1-4.9-2.5,19.3,19.3,0,0,0-7.3-4.4,30.6,30.6,0,0,0-9-1.2,22.2,22.2,0,0,0-10.1,2c-2.7,1.3-4.1,3.3-4.1,5.9a7.6,7.6,0,0,0,1.3,4.4c.8,1.3,2.5,2.5,5,3.5a68.9,68.9,0,0,0,11.1,3c6.7,1.4,12.1,3.1,16,5.2a20.3,20.3,0,0,1,8.4,7.2,17.5,17.5,0,0,1,2.5,9.5,20.1,20.1,0,0,1-3.3,11.2,22.7,22.7,0,0,1-9.7,7.9C922.2,280.1,916.8,281.1,910.5,281.1Z" transform="translate(172.4 200.4)" style="stroke: #000;stroke-miterlimit: 10;stroke-width: 3px"/>
        <path d="M1044.9,281.9a50.2,50.2,0,0,1-37-15.6,50.9,50.9,0,0,1-11.1-17.2,58.2,58.2,0,0,1,0-42.4,52.7,52.7,0,0,1,27.6-28.6,49.8,49.8,0,0,1,20.5-4.2,52.5,52.5,0,0,1,17.8,2.7,51.5,51.5,0,0,1,15,8.9,6.8,6.8,0,0,1,1.7,1.7,5.1,5.1,0,0,1,.8,1.7,6.8,6.8,0,0,1,.2,2.1,5.7,5.7,0,0,1-1.8,4.3,7.7,7.7,0,0,1-4.4,1.9,7.8,7.8,0,0,1-5-1.7,37.4,37.4,0,0,0-10.3-6.6c-3.5-1.5-8.2-2.3-14-2.3a36.1,36.1,0,0,0-15,3.2,38.8,38.8,0,0,0-12.3,8.9,39.4,39.4,0,0,0-8.3,13.2,44.2,44.2,0,0,0,0,32,39.4,39.4,0,0,0,8.3,13.2,37,37,0,0,0,12.3,8.8,36.6,36.6,0,0,0,28,.8,49.2,49.2,0,0,0,11.8-6.5,7,7,0,0,1,4.7-1.6,6.6,6.6,0,0,1,4,1.9,6.4,6.4,0,0,1,1.6,4.7,8,8,0,0,1-.5,2.6,9.1,9.1,0,0,1-1.6,2.4,57.4,57.4,0,0,1-15.6,8.7A50.5,50.5,0,0,1,1044.9,281.9Z" transform="translate(172.4 200.4)" style="stroke: #000;stroke-miterlimit: 10;stroke-width: 3px"/>
        <path d="M1129.1,281.1a38.1,38.1,0,0,1-19.3-4.8,34.6,34.6,0,0,1-13.1-13.2,41.6,41.6,0,0,1,0-38.8,33.3,33.3,0,0,1,13.1-13.2,38.1,38.1,0,0,1,19.3-4.8,37.4,37.4,0,0,1,19.1,4.8,33.5,33.5,0,0,1,13.2,13.2,41.6,41.6,0,0,1,0,38.8,34.3,34.3,0,0,1-13,13.2A38.1,38.1,0,0,1,1129.1,281.1Zm0-12.2a23.2,23.2,0,0,0,12.4-3.2,21.9,21.9,0,0,0,8.4-8.9,27.6,27.6,0,0,0,3.1-13.1,27.8,27.8,0,0,0-3.1-13.1,22.8,22.8,0,0,0-8.4-9,25.6,25.6,0,0,0-24.8,0,23.7,23.7,0,0,0-8.5,9,26.7,26.7,0,0,0-3.1,13.1,26.4,26.4,0,0,0,3.1,13.1,22.8,22.8,0,0,0,8.5,8.9A23.2,23.2,0,0,0,1129.1,268.9Z" transform="translate(172.4 200.4)" style="stroke: #000;stroke-miterlimit: 10;stroke-width: 3px"/>
        <path d="M1207.5,280.4c-2.7,0-4.9-1.5-6.4-4.4l-28.6-60.3a5.5,5.5,0,0,1-.2-4.5,6.3,6.3,0,0,1,3.4-3.4,5.6,5.6,0,0,1,4.7-.5,6.8,6.8,0,0,1,3.6,3.1l26.6,57.6h-6.4l26.4-57.6a6.3,6.3,0,0,1,8.7-2.6,5.6,5.6,0,0,1,3.3,3.3,6.1,6.1,0,0,1-.3,4.6L1213.7,276C1212.4,278.9,1210.3,280.4,1207.5,280.4Z" transform="translate(172.4 200.4)" style="stroke: #000;stroke-miterlimit: 10;stroke-width: 3px"/>
        <path d="M1264.7,194.8a8.9,8.9,0,1,1,6.3-2.6A8.9,8.9,0,0,1,1264.7,194.8Zm0,85.7a6.6,6.6,0,0,1-4.9-1.9,6.8,6.8,0,0,1-2-4.9v-60a6.7,6.7,0,0,1,2-5,6.6,6.6,0,0,1,4.9-1.9,6.6,6.6,0,0,1,5,1.9,7,7,0,0,1,1.9,5v60a7.1,7.1,0,0,1-1.9,4.9A6.6,6.6,0,0,1,1264.7,280.5Z" transform="translate(172.4 200.4)" style="stroke: #000;stroke-miterlimit: 10;stroke-width: 3px"/>
        <path d="M1330.6,281.1a37.5,37.5,0,0,1-18.9-4.9,36.2,36.2,0,0,1-13.4-13.5,37,37,0,0,1-4.9-19.1,39.9,39.9,0,0,1,4.5-19.1,35,35,0,0,1,12.3-13.3,32.5,32.5,0,0,1,17.7-4.9,33.3,33.3,0,0,1,26,12.2V182.1a6.5,6.5,0,0,1,2-4.9,6.6,6.6,0,0,1,4.9-1.9,6.6,6.6,0,0,1,5,1.9,6.8,6.8,0,0,1,1.9,4.9v61.5a37,37,0,0,1-5,19.1,36.4,36.4,0,0,1-13.2,13.5A37.5,37.5,0,0,1,1330.6,281.1Zm0-12.2a22.9,22.9,0,0,0,20.8-12.4,27.3,27.3,0,0,0,3.1-12.9,27,27,0,0,0-3.1-12.9,23.7,23.7,0,0,0-8.5-9,24.4,24.4,0,0,0-24.5,0,24,24,0,0,0-8.6,9,26,26,0,0,0-3.2,12.9,26.2,26.2,0,0,0,3.2,12.9,23.6,23.6,0,0,0,8.6,9.1A23,23,0,0,0,1330.6,268.9Z" transform="translate(172.4 200.4)" style="stroke: #000;stroke-miterlimit: 10;stroke-width: 3px"/>
        <path d="M1391.5,250.5a6.6,6.6,0,0,1-4.9-1.9,6.6,6.6,0,0,1-2-4.9,6.5,6.5,0,0,1,2-4.9,6.6,6.6,0,0,1,4.9-1.9h30.1a6.2,6.2,0,0,1,4.8,1.9,6.4,6.4,0,0,1,1.9,4.9,6.6,6.6,0,0,1-1.9,4.9,6.2,6.2,0,0,1-4.8,1.9Z" transform="translate(172.4 200.4)" style="stroke: #000;stroke-miterlimit: 10;stroke-width: 3px"/>
        <path d="M1465,280.5a6.1,6.1,0,0,1-4.7-2,6.3,6.3,0,0,1-2.1-4.8V191.4l-9.8,4.2a10.3,10.3,0,0,1-4.3,1,7,7,0,0,1-4.9-1.9,6.6,6.6,0,0,1-2-4.9,7.7,7.7,0,0,1,1.1-3.9,5.6,5.6,0,0,1,3.4-2.5l21-7.6,1.3-.4h1.2a6.5,6.5,0,0,1,5,1.9,7.2,7.2,0,0,1,1.8,5.1v91.4a6.6,6.6,0,0,1-2,4.8A6.6,6.6,0,0,1,1465,280.5Z" transform="translate(172.4 200.4)" style="stroke: #000;stroke-miterlimit: 10;stroke-width: 3px"/>
        <path d="M1523.2,175.1a33.1,33.1,0,0,1,16.5,4.1,30.2,30.2,0,0,1,11.3,11.4,36.2,36.2,0,0,1,0,33.1,29.2,29.2,0,0,1-11.3,11.3,32.1,32.1,0,0,1-16.5,4.2,31.5,31.5,0,0,1-16.4-4.2,29,29,0,0,1-11.2-11.3,35.5,35.5,0,0,1,0-33.1,29.9,29.9,0,0,1,11.2-11.4A32.5,32.5,0,0,1,1523.2,175.1Zm.1,12.2a18.5,18.5,0,0,0-9.7,2.5,16.8,16.8,0,0,0-6.7,7,21.5,21.5,0,0,0-2.4,10.3,21.9,21.9,0,0,0,2.4,10.4,18,18,0,0,0,6.7,7,18.6,18.6,0,0,0,26.1-7,21.9,21.9,0,0,0,2.4-10.4,21.5,21.5,0,0,0-2.4-10.3,17.2,17.2,0,0,0-6.6-7A18.6,18.6,0,0,0,1523.3,187.3Zm27.3,37-31.3,52.2c-1.6,2.5-3.7,3.8-6.2,3.8a7.2,7.2,0,0,1-4.7-1.6,7,7,0,0,1-2.4-4.1,6.5,6.5,0,0,1,1-4.8l19.2-31.9Z" transform="translate(172.4 200.4)" style="stroke: #000;stroke-miterlimit: 10;stroke-width: 3px"/>
      </g>
    </g>
  </g>
</svg>
